%TF.GenerationSoftware,KiCad,Pcbnew,9.0.1*%
%TF.CreationDate,2025-07-07T17:54:42+08:00*%
%TF.ProjectId,bitaxeGamma,62697461-7865-4476-916d-6d612e6b6963,rev?*%
%TF.SameCoordinates,Original*%
%TF.FileFunction,Copper,L4,Bot*%
%TF.FilePolarity,Positive*%
%FSLAX46Y46*%
G04 Gerber Fmt 4.6, Leading zero omitted, Abs format (unit mm)*
G04 Created by KiCad (PCBNEW 9.0.1) date 2025-07-07 17:54:42*
%MOMM*%
%LPD*%
G01*
G04 APERTURE LIST*
G04 Aperture macros list*
%AMRoundRect*
0 Rectangle with rounded corners*
0 $1 Rounding radius*
0 $2 $3 $4 $5 $6 $7 $8 $9 X,Y pos of 4 corners*
0 Add a 4 corners polygon primitive as box body*
4,1,4,$2,$3,$4,$5,$6,$7,$8,$9,$2,$3,0*
0 Add four circle primitives for the rounded corners*
1,1,$1+$1,$2,$3*
1,1,$1+$1,$4,$5*
1,1,$1+$1,$6,$7*
1,1,$1+$1,$8,$9*
0 Add four rect primitives between the rounded corners*
20,1,$1+$1,$2,$3,$4,$5,0*
20,1,$1+$1,$4,$5,$6,$7,0*
20,1,$1+$1,$6,$7,$8,$9,0*
20,1,$1+$1,$8,$9,$2,$3,0*%
G04 Aperture macros list end*
%TA.AperFunction,EtchedComponent*%
%ADD10C,0.020000*%
%TD*%
%TA.AperFunction,EtchedComponent*%
%ADD11C,0.200000*%
%TD*%
%TA.AperFunction,EtchedComponent*%
%ADD12C,0.000000*%
%TD*%
%TA.AperFunction,ComponentPad*%
%ADD13C,0.800000*%
%TD*%
%TA.AperFunction,ComponentPad*%
%ADD14C,6.000000*%
%TD*%
%TA.AperFunction,ComponentPad*%
%ADD15R,1.700000X1.700000*%
%TD*%
%TA.AperFunction,ComponentPad*%
%ADD16O,1.700000X1.700000*%
%TD*%
%TA.AperFunction,ComponentPad*%
%ADD17C,0.400000*%
%TD*%
%TA.AperFunction,ComponentPad*%
%ADD18C,1.574800*%
%TD*%
%TA.AperFunction,ComponentPad*%
%ADD19C,1.700000*%
%TD*%
%TA.AperFunction,SMDPad,CuDef*%
%ADD20C,1.000000*%
%TD*%
%TA.AperFunction,SMDPad,CuDef*%
%ADD21RoundRect,0.150000X0.425000X-0.150000X0.425000X0.150000X-0.425000X0.150000X-0.425000X-0.150000X0*%
%TD*%
%TA.AperFunction,SMDPad,CuDef*%
%ADD22RoundRect,0.075000X0.500000X-0.075000X0.500000X0.075000X-0.500000X0.075000X-0.500000X-0.075000X0*%
%TD*%
%TA.AperFunction,ComponentPad*%
%ADD23O,1.800000X1.000000*%
%TD*%
%TA.AperFunction,ComponentPad*%
%ADD24O,2.100000X1.000000*%
%TD*%
%TA.AperFunction,SMDPad,CuDef*%
%ADD25R,0.900000X1.500000*%
%TD*%
%TA.AperFunction,SMDPad,CuDef*%
%ADD26R,1.500000X0.900000*%
%TD*%
%TA.AperFunction,SMDPad,CuDef*%
%ADD27R,0.900000X0.900000*%
%TD*%
%TA.AperFunction,ConnectorPad*%
%ADD28C,0.787400*%
%TD*%
%TA.AperFunction,SMDPad,CuDef*%
%ADD29RoundRect,0.055250X0.340750X0.055250X-0.340750X0.055250X-0.340750X-0.055250X0.340750X-0.055250X0*%
%TD*%
%TA.AperFunction,SMDPad,CuDef*%
%ADD30R,6.330000X2.000000*%
%TD*%
%TA.AperFunction,SMDPad,CuDef*%
%ADD31R,6.330000X5.300000*%
%TD*%
%TA.AperFunction,SMDPad,CuDef*%
%ADD32R,2.000000X2.000000*%
%TD*%
%TA.AperFunction,SMDPad,CuDef*%
%ADD33R,0.900000X1.800000*%
%TD*%
%TA.AperFunction,ViaPad*%
%ADD34C,0.800000*%
%TD*%
%TA.AperFunction,ViaPad*%
%ADD35C,1.000000*%
%TD*%
%TA.AperFunction,ViaPad*%
%ADD36C,0.500000*%
%TD*%
%TA.AperFunction,ViaPad*%
%ADD37C,1.200000*%
%TD*%
%TA.AperFunction,Conductor*%
%ADD38C,0.254000*%
%TD*%
%TA.AperFunction,Conductor*%
%ADD39C,0.508000*%
%TD*%
%TA.AperFunction,Conductor*%
%ADD40C,1.000000*%
%TD*%
%TA.AperFunction,Conductor*%
%ADD41C,0.200000*%
%TD*%
G04 APERTURE END LIST*
D10*
%TO.C,REF\u002A\u002A*%
X126666000Y-143282000D02*
X126666000Y-143582000D01*
X126665994Y-143582000D02*
X126666000Y-143582000D01*
X126498407Y-143874680D02*
X126266000Y-143882000D01*
X126266000Y-143882000D02*
X125866000Y-143882000D01*
X125866000Y-143882000D02*
X125866000Y-144832000D01*
X125866000Y-144832000D02*
X125866000Y-145782000D01*
X125866000Y-145782000D02*
X125516000Y-145782000D01*
X125516000Y-143282000D02*
X126666000Y-143282000D01*
X125516000Y-145782000D02*
X125166000Y-145782000D01*
X125166000Y-143882000D02*
X124766000Y-143882000D01*
X125166000Y-144832000D02*
X125166000Y-143882000D01*
X125166000Y-145782000D02*
X125166000Y-144832000D01*
X124766000Y-143882000D02*
X124522332Y-143874326D01*
X124366000Y-143282000D02*
X125516000Y-143282000D01*
X124366000Y-143582000D02*
X124366000Y-143282000D01*
X124066000Y-143882000D02*
X124066000Y-144832000D01*
X124066000Y-144832000D02*
X124066000Y-145782000D01*
X124066000Y-145782000D02*
X123716000Y-145782000D01*
X123716000Y-143882000D02*
X124066000Y-143882000D01*
X123716000Y-145782000D02*
X123366000Y-145782000D01*
X123366000Y-143882000D02*
X123716000Y-143882000D01*
X123366000Y-144832000D02*
X123366000Y-143882000D01*
X123366000Y-145782000D02*
X123366000Y-144832000D01*
X122866000Y-143882000D02*
X122866000Y-144832000D01*
X122866000Y-144832000D02*
X122866000Y-145782000D01*
X122866000Y-145782000D02*
X122578019Y-145782000D01*
X122566000Y-143882000D02*
X122866000Y-143882000D01*
X122279334Y-145553758D02*
X122234039Y-145038390D01*
X121985403Y-144011657D02*
X122142218Y-144097152D01*
X121672045Y-144852906D02*
X121666000Y-145128861D01*
X121666000Y-145128861D02*
X121666000Y-145782000D01*
X121666000Y-145782000D02*
X121316000Y-145782000D01*
X121316000Y-145782000D02*
X120966000Y-145782000D01*
X120994336Y-144609516D02*
X121025132Y-144380681D01*
X120973089Y-144873542D02*
X120994336Y-144609516D01*
X120966000Y-145138510D02*
X120973089Y-144873542D01*
X120966000Y-145782000D02*
X120966000Y-145138510D01*
X120760879Y-143934118D02*
X120661494Y-144191554D01*
X120661494Y-144191554D02*
X120546608Y-144484576D01*
X120658093Y-143889796D02*
X120753594Y-143893044D01*
X120546608Y-144484576D02*
X120410233Y-144825421D01*
X120539514Y-143891693D02*
X120658093Y-143889796D01*
X120457247Y-143897107D02*
X120539514Y-143891693D01*
X120410233Y-144825421D02*
X120277774Y-145173391D01*
X120396836Y-146440272D02*
X120211207Y-146461737D01*
X120277774Y-145173391D02*
X120174433Y-145488822D01*
X120174433Y-145488822D02*
X120101691Y-145752510D01*
X119885850Y-144457000D02*
X119984225Y-144135161D01*
X119824944Y-144658221D02*
X119885850Y-144457000D01*
X119762177Y-144827781D02*
X119824944Y-144658221D01*
X119704256Y-144958262D02*
X119762177Y-144827781D01*
X119582608Y-144820437D02*
X119635887Y-144959752D01*
X119527068Y-144642817D02*
X119582608Y-144820437D01*
X119474741Y-144432000D02*
X119527068Y-144642817D01*
X119392170Y-144095961D02*
X119474741Y-144432000D01*
X119386101Y-145874748D02*
X119120569Y-145215626D01*
X119120569Y-145215626D02*
X118762171Y-144245666D01*
X118233549Y-143711118D02*
X118233549Y-143711119D01*
X116809655Y-144868954D02*
X116856807Y-144958585D01*
X116767351Y-144790617D02*
X116809655Y-144868954D01*
X116731356Y-144725557D02*
X116767351Y-144790617D01*
X116666061Y-144691447D02*
X116666052Y-144691422D01*
X116449783Y-144109152D02*
X116256828Y-144058513D01*
X116380569Y-144792727D02*
X116666052Y-144691422D01*
X116202408Y-145255191D02*
X116155630Y-145161968D01*
X116155630Y-145161968D02*
X116108677Y-145061188D01*
X116108677Y-145061188D02*
X116071478Y-144975087D01*
X116097863Y-144900563D02*
X116380569Y-144792727D01*
X115766000Y-143282000D02*
X115766000Y-144532000D01*
X115766000Y-144532000D02*
X115766000Y-145782000D01*
X115766000Y-145782000D02*
X115420569Y-145782000D01*
X115420569Y-145782000D02*
X115075138Y-145782000D01*
X115416000Y-143282000D02*
X115766000Y-143282000D01*
X115075138Y-145782000D02*
X115045569Y-145107000D01*
X115066000Y-143685518D02*
X115073896Y-143430946D01*
X115061471Y-143920567D02*
X115066000Y-143685518D01*
X115045569Y-145107000D02*
X115022582Y-144717493D01*
X114608207Y-144738018D02*
X114586431Y-145107000D01*
X114586431Y-145107000D02*
X114556862Y-145782000D01*
X114556862Y-145782000D02*
X114211431Y-145782000D01*
X114211431Y-145782000D02*
X113866000Y-145782000D01*
X113866000Y-145054251D02*
X113875134Y-144715529D01*
X113866000Y-145782000D02*
X113866000Y-145054251D01*
X113466000Y-143882000D02*
X113466000Y-144832000D01*
X113466000Y-144832000D02*
X113466000Y-145782000D01*
X113466000Y-145782000D02*
X113116000Y-145782000D01*
X113173700Y-143882000D02*
X113466000Y-143882000D01*
X113173700Y-143882000D02*
X113116000Y-143882000D01*
X113116000Y-145782000D02*
X112766000Y-145782000D01*
X112766000Y-143882000D02*
X113116000Y-143882000D01*
X112766000Y-144832000D02*
X112766000Y-143882000D01*
X112766000Y-145782000D02*
X112766000Y-144832000D01*
X112266000Y-143882000D02*
X112266000Y-144851000D01*
X112266000Y-145182000D02*
X112266000Y-144851000D01*
X112266000Y-145182000D02*
X112266000Y-146482000D01*
X112266000Y-146482000D02*
X111966000Y-146482000D01*
X111966000Y-143882000D02*
X112266000Y-143882000D01*
X111966000Y-146481999D02*
X111966000Y-146482000D01*
X111673352Y-146314854D02*
X111666000Y-146083913D01*
X111666000Y-145685826D02*
X111241011Y-145742510D01*
X111666000Y-146083913D02*
X111666000Y-145685826D01*
X111637045Y-144851000D02*
X111625481Y-144801238D01*
X111449563Y-144440435D02*
X111572770Y-144594649D01*
X111241009Y-145742497D02*
X111241011Y-145742510D01*
X110366000Y-144845536D02*
X110372036Y-144685733D01*
X109966000Y-143282000D02*
X109966000Y-144532000D01*
X109966000Y-144532000D02*
X109966000Y-145782000D01*
X109966000Y-145782000D02*
X109566000Y-145782000D01*
X109566000Y-143282000D02*
X109966000Y-143282000D01*
X109566000Y-145782000D02*
X109166000Y-145782000D01*
X109166000Y-143282000D02*
X109566000Y-143282000D01*
X109166000Y-143732000D02*
X109166000Y-143282000D01*
X109166000Y-144182000D02*
X109166000Y-143732000D01*
X109166000Y-144782000D02*
X108716000Y-144782000D01*
X109166000Y-145282000D02*
X109166000Y-144782000D01*
X109166000Y-145782000D02*
X109166000Y-145282000D01*
X108716000Y-144182000D02*
X109166000Y-144182000D01*
X108716000Y-144782000D02*
X108266000Y-144782000D01*
X108266000Y-143732000D02*
X108266000Y-144182000D01*
X108266000Y-144182000D02*
X108716000Y-144182000D01*
X108266000Y-144782000D02*
X108266000Y-145282000D01*
X108266000Y-145282000D02*
X108266000Y-145782000D01*
X108266000Y-145782000D02*
X107916000Y-145782000D01*
X108259187Y-143448636D02*
X108266000Y-143732000D01*
X107916000Y-145782000D02*
X107566000Y-145782000D01*
X107566000Y-143282000D02*
X107916000Y-143282000D01*
X107566000Y-144532000D02*
X107566000Y-143282000D01*
X107566000Y-145782000D02*
X107566000Y-144532000D01*
X107066000Y-143882000D02*
X107066000Y-144674857D01*
X107066000Y-144674857D02*
X107058095Y-145063399D01*
X106766000Y-143882000D02*
X107066000Y-143882000D01*
X106466000Y-144423821D02*
X106471791Y-144072717D01*
X106454494Y-144798358D02*
X106466000Y-144423821D01*
X105866000Y-143882000D02*
X105866000Y-144423821D01*
X105866000Y-144423821D02*
X105879240Y-144854770D01*
X105763187Y-145751592D02*
X105763187Y-145751591D01*
X105516000Y-143882000D02*
X105866000Y-143882000D01*
X105516000Y-145782000D02*
X105166000Y-145782000D01*
X105166000Y-143882000D02*
X105516000Y-143882000D01*
X105166000Y-144832000D02*
X105166000Y-143882000D01*
X105166000Y-145782000D02*
X105166000Y-144832000D01*
X104766000Y-143282000D02*
X104766000Y-144532000D01*
X104766000Y-144532000D02*
X104766000Y-145782000D01*
X104766000Y-145782000D02*
X104474333Y-145782000D01*
X104416000Y-143282000D02*
X104766000Y-143282000D01*
X104066000Y-143702000D02*
X104073573Y-143433614D01*
X104061766Y-143901110D02*
X104066000Y-143702000D01*
X126665994Y-143582000D02*
G75*
G02*
X126653927Y-143759574I-1311193J-95D01*
G01*
X126653927Y-143759574D02*
G75*
G02*
X126607667Y-143838250I-117292J16027D01*
G01*
X126607667Y-143838250D02*
G75*
G02*
X126498407Y-143874680I-109301J145754D01*
G01*
X124522332Y-143874326D02*
G75*
G02*
X124424333Y-143838250I11368J182025D01*
G01*
X124424333Y-143838250D02*
G75*
G02*
X124378073Y-143759574I71202J94804D01*
G01*
X124378073Y-143759574D02*
G75*
G02*
X124366000Y-143582000I1300423J177611D01*
G01*
X124048271Y-143381754D02*
G75*
G02*
X124066000Y-143482000I-274523J-100241D01*
G01*
X123997250Y-143321286D02*
G75*
G02*
X124048271Y-143381754I-57183J-100008D01*
G01*
X124066000Y-143482000D02*
G75*
G02*
X124048271Y-143582246I-292315J7D01*
G01*
X123898428Y-143290218D02*
G75*
G02*
X123997250Y-143321286I-21934J-242471D01*
G01*
X124048271Y-143582246D02*
G75*
G02*
X123997250Y-143642714I-108470J39764D01*
G01*
X123716000Y-143282000D02*
G75*
G02*
X123898428Y-143290218I-21J-2029405D01*
G01*
X123997250Y-143642714D02*
G75*
G02*
X123898428Y-143673782I-120517J210643D01*
G01*
X123533572Y-143290218D02*
G75*
G02*
X123716000Y-143282000I182449J-2021187D01*
G01*
X123898428Y-143673782D02*
G75*
G02*
X123716000Y-143682000I-182449J2021187D01*
G01*
X123434750Y-143321286D02*
G75*
G02*
X123533572Y-143290218I120517J-210643D01*
G01*
X123716000Y-143682000D02*
G75*
G02*
X123533572Y-143673782I21J2029405D01*
G01*
X123383747Y-143381761D02*
G75*
G02*
X123434750Y-143321287I108350J-39636D01*
G01*
X123533572Y-143673782D02*
G75*
G02*
X123434750Y-143642714I21934J242471D01*
G01*
X123366000Y-143482000D02*
G75*
G02*
X123383729Y-143381754I292315J-7D01*
G01*
X123434750Y-143642714D02*
G75*
G02*
X123383729Y-143582246I57183J100008D01*
G01*
X123383729Y-143582246D02*
G75*
G02*
X123366000Y-143482000I274523J100241D01*
G01*
X122435979Y-143890870D02*
G75*
G02*
X122566000Y-143882000I130018J-948479D01*
G01*
X122342600Y-143919112D02*
G75*
G02*
X122435979Y-143890870I135516J-279574D01*
G01*
X122578019Y-145782000D02*
G75*
G02*
X122406070Y-145763203I89J796679D01*
G01*
X122286589Y-143965367D02*
G75*
G02*
X122342600Y-143919112I123126J-92056D01*
G01*
X122406070Y-145763203D02*
G75*
G02*
X122322957Y-145701007I27195J122971D01*
G01*
X122266000Y-144027349D02*
G75*
G02*
X122286589Y-143965367I104167J-191D01*
G01*
X122322957Y-145701007D02*
G75*
G02*
X122279334Y-145553758I314161J173157D01*
G01*
X122266000Y-144027349D02*
G75*
G02*
X122252203Y-144094075I-168809J115D01*
G01*
X122197687Y-144766449D02*
G75*
G02*
X122234039Y-145038390I-4552457J-746955D01*
G01*
X122252203Y-144094075D02*
G75*
G02*
X122215032Y-144117047I-35048J15152D01*
G01*
X122112603Y-144521479D02*
G75*
G02*
X122197687Y-144766449I-664369J-368012D01*
G01*
X122215032Y-144117047D02*
G75*
G02*
X122142218Y-144097152I10069J180044D01*
G01*
X121987331Y-144414289D02*
G75*
G02*
X122112603Y-144521479I-81068J-221540D01*
G01*
X121822722Y-144415583D02*
G75*
G02*
X121987331Y-144414289I84036J-219567D01*
G01*
X121708329Y-143911027D02*
G75*
G02*
X121985403Y-144011657I-149919J-844548D01*
G01*
X121747011Y-144479830D02*
G75*
G02*
X121822722Y-144415583I129471J-75839D01*
G01*
X121699301Y-144601725D02*
G75*
G02*
X121747011Y-144479830I409214J-89883D01*
G01*
X121432962Y-143920420D02*
G75*
G02*
X121708329Y-143911027I159741J-641940D01*
G01*
X121672045Y-144852906D02*
G75*
G02*
X121699301Y-144601725I1170012J110D01*
G01*
X121205776Y-144037549D02*
G75*
G02*
X121432962Y-143920420I361447J-422179D01*
G01*
X121062463Y-144241303D02*
G75*
G02*
X121205776Y-144037549I471169J-179126D01*
G01*
X121025132Y-144380681D02*
G75*
G02*
X121062463Y-144241303I703129J-113638D01*
G01*
X120753594Y-143893044D02*
G75*
G02*
X120766000Y-143906531I-1093J-13455D01*
G01*
X120766000Y-143906531D02*
G75*
G02*
X120760879Y-143934118I-76669J-37D01*
G01*
X120623376Y-146025555D02*
G75*
G02*
X120652869Y-146090820I-69981J-70921D01*
G01*
X120652869Y-146090820D02*
G75*
G02*
X120647955Y-146207000I-587264J-33355D01*
G01*
X120554309Y-145991413D02*
G75*
G02*
X120623376Y-146025555I-17091J-121504D01*
G01*
X120647955Y-146207000D02*
G75*
G02*
X120611844Y-146322716I-373335J53012D01*
G01*
X120419817Y-145982000D02*
G75*
G02*
X120554309Y-145991413I-55J-966290D01*
G01*
X120611844Y-146322716D02*
G75*
G02*
X120544437Y-146394568I-153897J76832D01*
G01*
X120177278Y-143935614D02*
G75*
G02*
X120457247Y-143897107I354463J-1540137D01*
G01*
X120544437Y-146394568D02*
G75*
G02*
X120396836Y-146440272I-172673J296455D01*
G01*
X120419817Y-145982000D02*
G75*
G02*
X120316423Y-145971829I126J531892D01*
G01*
X120316423Y-145971829D02*
G75*
G02*
X120220666Y-145941713I89927J453225D01*
G01*
X120062794Y-144002082D02*
G75*
G02*
X120177278Y-143935614I164769J-151970D01*
G01*
X120220666Y-145941713D02*
G75*
G02*
X120146131Y-145897404I141500J322871D01*
G01*
X120146131Y-145897404D02*
G75*
G02*
X120107095Y-145844853I74246J95925D01*
G01*
X120107095Y-145844853D02*
G75*
G02*
X120101691Y-145752510I142268J54655D01*
G01*
X119984225Y-144135161D02*
G75*
G02*
X120062794Y-144002082I349208J-116437D01*
G01*
X120211207Y-146461737D02*
G75*
G02*
X119867619Y-146427481I-74029J997715D01*
G01*
X119704256Y-144958262D02*
G75*
G02*
X119669106Y-144982000I-35157J14166D01*
G01*
X119669106Y-144982000D02*
G75*
G02*
X119635887Y-144959752I-28J35883D01*
G01*
X119867619Y-146427481D02*
G75*
G02*
X119624612Y-146274346I135344J484154D01*
G01*
X119321540Y-143955137D02*
G75*
G02*
X119392170Y-144095961I-246691J-211852D01*
G01*
X119624612Y-146274346D02*
G75*
G02*
X119386101Y-145874748I974673J852740D01*
G01*
X119217158Y-143897677D02*
G75*
G02*
X119321540Y-143955137I-24639J-168300D01*
G01*
X119002090Y-143882000D02*
G75*
G02*
X119217158Y-143897677I12J-1482907D01*
G01*
X118778598Y-143915991D02*
G75*
G02*
X119002090Y-143882000I223488J-717710D01*
G01*
X118711122Y-144016734D02*
G75*
G02*
X118778598Y-143915991I96153J8567D01*
G01*
X118762171Y-144245666D02*
G75*
G02*
X118711122Y-144016734I844512J308473D01*
G01*
X118233549Y-143711118D02*
G75*
G02*
X118457612Y-144268183I-1228291J-817638D01*
G01*
X118457612Y-144268183D02*
G75*
G02*
X118445296Y-144887287I-1554159J-278757D01*
G01*
X117827188Y-143380007D02*
G75*
G02*
X118233549Y-143711119I-332616J-823119D01*
G01*
X118445296Y-144887287D02*
G75*
G02*
X118187756Y-145390254I-1089920J240665D01*
G01*
X117365211Y-143283729D02*
G75*
G02*
X117827188Y-143380007I-35653J-1327580D01*
G01*
X117674725Y-144198473D02*
G75*
G02*
X117766000Y-144532000I-563742J-333530D01*
G01*
X118187756Y-145390254D02*
G75*
G02*
X117728678Y-145695228I-814319J727783D01*
G01*
X117426055Y-143956176D02*
G75*
G02*
X117674725Y-144198473I-323663J-580930D01*
G01*
X117766000Y-144532000D02*
G75*
G02*
X117666599Y-144886191I-680340J-111D01*
G01*
X117120079Y-143894521D02*
G75*
G02*
X117426055Y-143956176I56660J-508878D01*
G01*
X117666599Y-144886191D02*
G75*
G02*
X117399357Y-145125472I-529909J322956D01*
G01*
X116852230Y-143340653D02*
G75*
G02*
X117365211Y-143283729I462269J-1825948D01*
G01*
X117728678Y-145695228D02*
G75*
G02*
X117128661Y-145777293I-507479J1475888D01*
G01*
X116866802Y-144031033D02*
G75*
G02*
X117120079Y-143894521I295654J-245326D01*
G01*
X117399357Y-145125472D02*
G75*
G02*
X117087810Y-145148466I-186042J398609D01*
G01*
X117087810Y-145148466D02*
G75*
G02*
X116856807Y-144958585I109993J369270D01*
G01*
X116423450Y-143521108D02*
G75*
G02*
X116852230Y-143340653I809932J-1324842D01*
G01*
X116866802Y-144031033D02*
G75*
G02*
X116796082Y-144091680I-212853J176649D01*
G01*
X116718670Y-144706549D02*
G75*
G02*
X116731356Y-144725557I-106687J-84940D01*
G01*
X116666061Y-144691447D02*
G75*
G02*
X116718670Y-144706549I15766J-44262D01*
G01*
X116796082Y-144091680D02*
G75*
G02*
X116707974Y-144126770I-152390J254477D01*
G01*
X116707974Y-144126770D02*
G75*
G02*
X116602263Y-144135176I-82877J373332D01*
G01*
X117128661Y-145777293D02*
G75*
G02*
X116566623Y-145625286I84975J1429247D01*
G01*
X116602263Y-144135176D02*
G75*
G02*
X116449783Y-144109152I42440J708382D01*
G01*
X116213956Y-143788439D02*
G75*
G02*
X116423450Y-143521108I462507J-146693D01*
G01*
X116172882Y-143945545D02*
G75*
G02*
X116213956Y-143788439I1540203J-318750D01*
G01*
X116566623Y-145625286D02*
G75*
G02*
X116202408Y-145255191I368058J726472D01*
G01*
X116256828Y-144058513D02*
G75*
G02*
X116189439Y-144013827I37172J129214D01*
G01*
X116189439Y-144013827D02*
G75*
G02*
X116172882Y-143945545I63834J51627D01*
G01*
X116066000Y-144946748D02*
G75*
G02*
X116097863Y-144900563I49524J-83D01*
G01*
X116071478Y-144975087D02*
G75*
G02*
X116066000Y-144946748I71339J28489D01*
G01*
X115198218Y-143291959D02*
G75*
G02*
X115416000Y-143282000I217779J-2376176D01*
G01*
X115112684Y-143335823D02*
G75*
G02*
X115198218Y-143291962I97286J-84387D01*
G01*
X115073896Y-143430946D02*
G75*
G02*
X115112684Y-143335823I159804J-9694D01*
G01*
X115061471Y-143920567D02*
G75*
G02*
X115035425Y-144008898I-163371J167D01*
G01*
X114987451Y-144545071D02*
G75*
G02*
X115022582Y-144717493I-657021J-223659D01*
G01*
X114922990Y-144463103D02*
G75*
G02*
X114987452Y-144545071I-83830J-132257D01*
G01*
X115035430Y-144008901D02*
G75*
G02*
X114981631Y-144029333I-40730J26201D01*
G01*
X114816000Y-144432000D02*
G75*
G02*
X114923001Y-144463085I0J-199700D01*
G01*
X114981634Y-144029324D02*
G75*
G02*
X114872574Y-143985518I144866J518324D01*
G01*
X114631906Y-143898578D02*
G75*
G02*
X114872575Y-143985517I-178056J-869492D01*
G01*
X114709010Y-144463103D02*
G75*
G02*
X114816000Y-144432005I106990J-168497D01*
G01*
X114644549Y-144545071D02*
G75*
G02*
X114709010Y-144463103I148851J-50729D01*
G01*
X114608207Y-144738018D02*
G75*
G02*
X114644549Y-144545071I695283J-31062D01*
G01*
X114389975Y-143890921D02*
G75*
G02*
X114631903Y-143898591I98625J-708479D01*
G01*
X114177793Y-143962662D02*
G75*
G02*
X114389975Y-143890920I295507J-524338D01*
G01*
X114021670Y-144104251D02*
G75*
G02*
X114177790Y-143962657I390730J-273949D01*
G01*
X113951978Y-144246364D02*
G75*
G02*
X114021674Y-144104254I489122J-151736D01*
G01*
X113903982Y-144449839D02*
G75*
G02*
X113951978Y-144246364I1491672J-244460D01*
G01*
X113875134Y-144715529D02*
G75*
G02*
X113903982Y-144449839I2461679J-132872D01*
G01*
X113448271Y-143381754D02*
G75*
G02*
X113466011Y-143482000I-274371J-100246D01*
G01*
X113397250Y-143321286D02*
G75*
G02*
X113448280Y-143381751I-57050J-99914D01*
G01*
X113465998Y-143482000D02*
G75*
G02*
X113448255Y-143582241I-292598J100D01*
G01*
X113298428Y-143290218D02*
G75*
G02*
X113397253Y-143321281I-21828J-242182D01*
G01*
X113448271Y-143582246D02*
G75*
G02*
X113397251Y-143642716I-108571J39846D01*
G01*
X113116000Y-143282000D02*
G75*
G02*
X113298428Y-143290215I100J-2027400D01*
G01*
X113397250Y-143642714D02*
G75*
G02*
X113298427Y-143673773I-120550J210814D01*
G01*
X112933572Y-143290218D02*
G75*
G02*
X113116000Y-143281998I182428J-2020182D01*
G01*
X113298428Y-143673782D02*
G75*
G02*
X113116000Y-143682004I-182628J2024182D01*
G01*
X112834750Y-143321286D02*
G75*
G02*
X112933571Y-143290203I120450J-210314D01*
G01*
X113116000Y-143682000D02*
G75*
G02*
X112933572Y-143673779I100J2030400D01*
G01*
X112783729Y-143381754D02*
G75*
G02*
X112834759Y-143321301I108171J-39546D01*
G01*
X112933572Y-143673782D02*
G75*
G02*
X112834742Y-143642728I21928J242582D01*
G01*
X112766000Y-143482000D02*
G75*
G02*
X112783728Y-143381754I292300J0D01*
G01*
X112834750Y-143642714D02*
G75*
G02*
X112783728Y-143582246I56950J99814D01*
G01*
X112783729Y-143582246D02*
G75*
G02*
X112766007Y-143482000I274671J100246D01*
G01*
X111851082Y-143889539D02*
G75*
G02*
X111966000Y-143882001I114918J-872161D01*
G01*
X111754125Y-143912408D02*
G75*
G02*
X111851083Y-143889546I161475J-467792D01*
G01*
X111966000Y-146481999D02*
G75*
G02*
X111788542Y-146469962I-100J1312699D01*
G01*
X111687166Y-143945769D02*
G75*
G02*
X111754121Y-143912397I160834J-238831D01*
G01*
X111788542Y-146469963D02*
G75*
G02*
X111709879Y-146423797I16058J117463D01*
G01*
X111666000Y-143985518D02*
G75*
G02*
X111687178Y-143945787I48200J-182D01*
G01*
X111709840Y-146423826D02*
G75*
G02*
X111673376Y-146314854I144760J109026D01*
G01*
X111666000Y-143985518D02*
G75*
G02*
X111652402Y-144023451I-59200J-182D01*
G01*
X111449563Y-144440435D02*
G75*
G02*
X111637025Y-144851000I-355863J-410565D01*
G01*
X111572770Y-144594649D02*
G75*
G02*
X111625501Y-144801238I-392670J-210251D01*
G01*
X111652381Y-144023434D02*
G75*
G02*
X111619287Y-144039049I-33081J27234D01*
G01*
X111625481Y-144801238D02*
G75*
G02*
X111585206Y-145034439I-663081J-5562D01*
G01*
X111619287Y-144039037D02*
G75*
G02*
X111560999Y-144027431I13J152237D01*
G01*
X111585208Y-145034440D02*
G75*
G02*
X111472921Y-145216586I-500308J182740D01*
G01*
X111561005Y-144027418D02*
G75*
G02*
X111472571Y-143985523I383895J924618D01*
G01*
X111243619Y-143901900D02*
G75*
G02*
X111472574Y-143985518I-179519J-846800D01*
G01*
X111307098Y-144391120D02*
G75*
G02*
X111449556Y-144440443I9802J-202080D01*
G01*
X111472927Y-145216592D02*
G75*
G02*
X111321662Y-145282008I-151227J142092D01*
G01*
X111167686Y-144453445D02*
G75*
G02*
X111307100Y-144391156I149414J-147255D01*
G01*
X111014650Y-143892794D02*
G75*
G02*
X111243622Y-143901884I87850J-675506D01*
G01*
X111053568Y-144619351D02*
G75*
G02*
X111167695Y-144453454I526432J-239949D01*
G01*
X111321662Y-145282000D02*
G75*
G02*
X111165482Y-145221259I-62J231000D01*
G01*
X111007051Y-144832961D02*
G75*
G02*
X111053557Y-144619346I517249J-739D01*
G01*
X111165468Y-145221275D02*
G75*
G02*
X111050144Y-145055149I309832J338175D01*
G01*
X110796088Y-143960175D02*
G75*
G02*
X111014649Y-143892790I306112J-604725D01*
G01*
X111050143Y-145055150D02*
G75*
G02*
X111007052Y-144832961I547167J221390D01*
G01*
X111241009Y-145742497D02*
G75*
G02*
X110843644Y-145734988I-174109J1304197D01*
G01*
X110597445Y-144099431D02*
G75*
G02*
X110796092Y-143960183I583555J-621169D01*
G01*
X110481852Y-144234660D02*
G75*
G02*
X110597443Y-144099429I673348J-458540D01*
G01*
X110843643Y-145734996D02*
G75*
G02*
X110572520Y-145592420I84257J489296D01*
G01*
X110412227Y-144379027D02*
G75*
G02*
X110481856Y-144234663I516773J-160273D01*
G01*
X110572515Y-145592425D02*
G75*
G02*
X110415922Y-145302534I430385J419725D01*
G01*
X110372036Y-144685733D02*
G75*
G02*
X110408518Y-144377875I850264J55333D01*
G01*
X110415915Y-145302536D02*
G75*
G02*
X110372036Y-144685733I2067385J457036D01*
G01*
X108221556Y-143339143D02*
G75*
G02*
X108259210Y-143448636I-140556J-109557D01*
G01*
X108136924Y-143292599D02*
G75*
G02*
X108221571Y-143339132I-11624J-121401D01*
G01*
X107916000Y-143282000D02*
G75*
G02*
X108136924Y-143292601I-100J-2309300D01*
G01*
X107058095Y-145063399D02*
G75*
G02*
X107031095Y-145326489I-2145895J87299D01*
G01*
X107031090Y-145326488D02*
G75*
G02*
X106983528Y-145507680I-996690J164788D01*
G01*
X106983534Y-145507682D02*
G75*
G02*
X106908861Y-145624861I-302334J110282D01*
G01*
X106582975Y-143897023D02*
G75*
G02*
X106766000Y-143882004I183025J-1107677D01*
G01*
X106908857Y-145624857D02*
G75*
G02*
X106744127Y-145729654I-318357J318557D01*
G01*
X106504842Y-143952152D02*
G75*
G02*
X106582980Y-143897051I96258J-53548D01*
G01*
X106744134Y-145729672D02*
G75*
G02*
X106522385Y-145775883I-271834J749272D01*
G01*
X106471791Y-144072717D02*
G75*
G02*
X106504858Y-143952161I264309J-7683D01*
G01*
X106454494Y-144798358D02*
G75*
G02*
X106402977Y-145101755I-918894J-42D01*
G01*
X106402992Y-145101760D02*
G75*
G02*
X106309476Y-145232452I-270092J94460D01*
G01*
X106522386Y-145775896D02*
G75*
G02*
X106281183Y-145758874I-57286J905696D01*
G01*
X106309479Y-145232455D02*
G75*
G02*
X106166000Y-145282005I-143479J182955D01*
G01*
X106281186Y-145758861D02*
G75*
G02*
X106059428Y-145678478I167314J807661D01*
G01*
X105970994Y-145636582D02*
G75*
G02*
X106059426Y-145678482I-383994J-924718D01*
G01*
X106166000Y-145282000D02*
G75*
G02*
X106022524Y-145232451I0J232500D01*
G01*
X105912713Y-145624963D02*
G75*
G02*
X105970994Y-145636582I-13J-152037D01*
G01*
X106022521Y-145232455D02*
G75*
G02*
X105929028Y-145101753I176379J224955D01*
G01*
X105879619Y-145640566D02*
G75*
G02*
X105912713Y-145624987I33081J-27334D01*
G01*
X105866000Y-145678482D02*
G75*
G02*
X105879612Y-145640560I59400J82D01*
G01*
X105929008Y-145101760D02*
G75*
G02*
X105879247Y-144854770I867892J303360D01*
G01*
X105866000Y-145678482D02*
G75*
G02*
X105842501Y-145718386I-45600J-18D01*
G01*
X105842493Y-145718372D02*
G75*
G02*
X105763190Y-145751601I-190993J344572D01*
G01*
X105763187Y-145751591D02*
G75*
G02*
X105650104Y-145774481I-186787J631991D01*
G01*
X105650105Y-145774486D02*
G75*
G02*
X105516000Y-145782004I-134105J1192286D01*
G01*
X104196994Y-143292179D02*
G75*
G02*
X104416000Y-143282000I219006J-2350821D01*
G01*
X104474333Y-145782000D02*
G75*
G02*
X104359339Y-145772777I-133J719800D01*
G01*
X104359339Y-145772777D02*
G75*
G02*
X104254882Y-145745276I88761J549277D01*
G01*
X104111833Y-143337000D02*
G75*
G02*
X104196993Y-143292163I96767J-80500D01*
G01*
X104254880Y-145745281D02*
G75*
G02*
X104174981Y-145705005I138420J373981D01*
G01*
X104174983Y-145705002D02*
G75*
G02*
X104136831Y-145657001I53017J81302D01*
G01*
X104107394Y-145599807D02*
G75*
G02*
X104136837Y-145656999I-214094J-146393D01*
G01*
X104073573Y-143433614D02*
G75*
G02*
X104111852Y-143337016I166727J-10186D01*
G01*
X104073667Y-145582000D02*
G75*
G02*
X104107401Y-145599802I33J-40800D01*
G01*
X104029240Y-145596989D02*
G75*
G02*
X104073667Y-145582034I44460J-58611D01*
G01*
X104026596Y-144523553D02*
G75*
G02*
X104071892Y-144750066I-640396J-245847D01*
G01*
X104071898Y-144750066D02*
G75*
G02*
X104042447Y-144988027I-793998J-22534D01*
G01*
X104061766Y-143901110D02*
G75*
G02*
X104041012Y-144009505I-290366J-590D01*
G01*
X103958500Y-145657000D02*
G75*
G02*
X104029244Y-145596994I603000J-639200D01*
G01*
X103918530Y-144402793D02*
G75*
G02*
X104026578Y-144523560I-104830J-202507D01*
G01*
X104041000Y-144009500D02*
G75*
G02*
X104002139Y-144031133I-32800J13200D01*
G01*
X104042436Y-144988024D02*
G75*
G02*
X103953393Y-145168593I-531436J149824D01*
G01*
X104002133Y-144031169D02*
G75*
G02*
X103945999Y-144002001I18067J103369D01*
G01*
X103805026Y-143918807D02*
G75*
G02*
X103946008Y-144001992I-90826J-314993D01*
G01*
X103756193Y-144382826D02*
G75*
G02*
X103918534Y-144402785I54307J-228474D01*
G01*
X103953394Y-145168594D02*
G75*
G02*
X103826899Y-145231992I-126494J94494D01*
G01*
X103598147Y-143886303D02*
G75*
G02*
X103805025Y-143918811I-26047J-840297D01*
G01*
X103958500Y-145657000D02*
G75*
G02*
X103774482Y-145755883I-275700J292400D01*
G01*
X103596493Y-144475731D02*
G75*
G02*
X103756193Y-144382824I232807J-216469D01*
G01*
X103826899Y-145232000D02*
G75*
G02*
X103659792Y-145185790I-99J324900D01*
G01*
X103372313Y-143905951D02*
G75*
G02*
X103598147Y-143886305I196087J-946249D01*
G01*
X103503180Y-144647478D02*
G75*
G02*
X103596505Y-144475742I379720J-95122D01*
G01*
X103659793Y-145185788D02*
G75*
G02*
X103538132Y-145059940I172807J288788D01*
G01*
X103774488Y-145755910D02*
G75*
G02*
X103523112Y-145775053I-187288J799310D01*
G01*
X103482728Y-144870365D02*
G75*
G02*
X103503175Y-144647477I727272J45665D01*
G01*
X103538132Y-145059940D02*
G75*
G02*
X103482743Y-144870364I393468J217840D01*
G01*
X103173141Y-143978178D02*
G75*
G02*
X103372313Y-143905952I349559J-653222D01*
G01*
X103523112Y-145775054D02*
G75*
G02*
X103267693Y-145716142I68988J882254D01*
G01*
X102915324Y-144256565D02*
G75*
G02*
X103173133Y-143978164I532276J-234335D01*
G01*
X103267690Y-145716148D02*
G75*
G02*
X103071588Y-145587568I210810J535348D01*
G01*
X102802411Y-144720244D02*
G75*
G02*
X102915316Y-144256561I1361189J-85856D01*
G01*
X103071578Y-145587578D02*
G75*
G02*
X102854613Y-145216395I599422J599378D01*
G01*
X102854595Y-145216400D02*
G75*
G02*
X102802410Y-144720244I1438305J402100D01*
G01*
X126634812Y-143355993D02*
X126634812Y-143655993D01*
X126634806Y-143655993D02*
X126634812Y-143655993D01*
X126467219Y-143948673D02*
X126234812Y-143955993D01*
X126234812Y-143955993D02*
X125834812Y-143955993D01*
X125834812Y-143955993D02*
X125834812Y-144905993D01*
X125834812Y-144905993D02*
X125834812Y-145855993D01*
X125834812Y-145855993D02*
X125484812Y-145855993D01*
X125484812Y-143355993D02*
X126634812Y-143355993D01*
X125484812Y-145855993D02*
X125134812Y-145855993D01*
X125134812Y-143955993D02*
X124734812Y-143955993D01*
X125134812Y-144905993D02*
X125134812Y-143955993D01*
X125134812Y-145855993D02*
X125134812Y-144905993D01*
X124734812Y-143955993D02*
X124491144Y-143948319D01*
X124334812Y-143355993D02*
X125484812Y-143355993D01*
X124334812Y-143655993D02*
X124334812Y-143355993D01*
X124034812Y-143955993D02*
X124034812Y-144905993D01*
X124034812Y-144905993D02*
X124034812Y-145855993D01*
X124034812Y-145855993D02*
X123684812Y-145855993D01*
X123684812Y-143955993D02*
X124034812Y-143955993D01*
X123684812Y-145855993D02*
X123334812Y-145855993D01*
X123334812Y-143955993D02*
X123684812Y-143955993D01*
X123334812Y-144905993D02*
X123334812Y-143955993D01*
X123334812Y-145855993D02*
X123334812Y-144905993D01*
X122834812Y-143955993D02*
X122834812Y-144905993D01*
X122834812Y-144905993D02*
X122834812Y-145855993D01*
X122834812Y-145855993D02*
X122546831Y-145855993D01*
X122534812Y-143955993D02*
X122834812Y-143955993D01*
X122248146Y-145627751D02*
X122202851Y-145112383D01*
X121954215Y-144085650D02*
X122111030Y-144171145D01*
X121640857Y-144926899D02*
X121634812Y-145202854D01*
X121634812Y-145202854D02*
X121634812Y-145855993D01*
X121634812Y-145855993D02*
X121284812Y-145855993D01*
X121284812Y-145855993D02*
X120934812Y-145855993D01*
X120963148Y-144683509D02*
X120993944Y-144454674D01*
X120941901Y-144947535D02*
X120963148Y-144683509D01*
X120934812Y-145212503D02*
X120941901Y-144947535D01*
X120934812Y-145855993D02*
X120934812Y-145212503D01*
X120729691Y-144008111D02*
X120630306Y-144265547D01*
X120630306Y-144265547D02*
X120515420Y-144558569D01*
X120626905Y-143963789D02*
X120722406Y-143967037D01*
X120515420Y-144558569D02*
X120379045Y-144899414D01*
X120508326Y-143965686D02*
X120626905Y-143963789D01*
X120426059Y-143971100D02*
X120508326Y-143965686D01*
X120379045Y-144899414D02*
X120246586Y-145247384D01*
X120365648Y-146514265D02*
X120180019Y-146535730D01*
X120246586Y-145247384D02*
X120143245Y-145562815D01*
X120143245Y-145562815D02*
X120070503Y-145826503D01*
X119854662Y-144530993D02*
X119953037Y-144209154D01*
X119793756Y-144732214D02*
X119854662Y-144530993D01*
X119730989Y-144901774D02*
X119793756Y-144732214D01*
X119673068Y-145032255D02*
X119730989Y-144901774D01*
X119551420Y-144894430D02*
X119604699Y-145033745D01*
X119495880Y-144716810D02*
X119551420Y-144894430D01*
X119443553Y-144505993D02*
X119495880Y-144716810D01*
X119360982Y-144169954D02*
X119443553Y-144505993D01*
X119354913Y-145948741D02*
X119089381Y-145289619D01*
X119089381Y-145289619D02*
X118730983Y-144319659D01*
X118202361Y-143785111D02*
X118202361Y-143785112D01*
X116778467Y-144942947D02*
X116825619Y-145032578D01*
X116736163Y-144864610D02*
X116778467Y-144942947D01*
X116700168Y-144799550D02*
X116736163Y-144864610D01*
X116634873Y-144765440D02*
X116634864Y-144765415D01*
X116418595Y-144183145D02*
X116225640Y-144132506D01*
X116349381Y-144866720D02*
X116634864Y-144765415D01*
X116171220Y-145329184D02*
X116124442Y-145235961D01*
X116124442Y-145235961D02*
X116077489Y-145135181D01*
X116077489Y-145135181D02*
X116040290Y-145049080D01*
X116066675Y-144974556D02*
X116349381Y-144866720D01*
X115734812Y-143355993D02*
X115734812Y-144605993D01*
X115734812Y-144605993D02*
X115734812Y-145855993D01*
X115734812Y-145855993D02*
X115389381Y-145855993D01*
X115389381Y-145855993D02*
X115043950Y-145855993D01*
X115384812Y-143355993D02*
X115734812Y-143355993D01*
X115043950Y-145855993D02*
X115014381Y-145180993D01*
X115034812Y-143759511D02*
X115042708Y-143504939D01*
X115030283Y-143994560D02*
X115034812Y-143759511D01*
X115014381Y-145180993D02*
X114991394Y-144791486D01*
X114577019Y-144812011D02*
X114555243Y-145180993D01*
X114555243Y-145180993D02*
X114525674Y-145855993D01*
X114525674Y-145855993D02*
X114180243Y-145855993D01*
X114180243Y-145855993D02*
X113834812Y-145855993D01*
X113834812Y-145128244D02*
X113843946Y-144789522D01*
X113834812Y-145855993D02*
X113834812Y-145128244D01*
X113434812Y-143955993D02*
X113434812Y-144905993D01*
X113434812Y-144905993D02*
X113434812Y-145855993D01*
X113434812Y-145855993D02*
X113084812Y-145855993D01*
X113142512Y-143955993D02*
X113434812Y-143955993D01*
X113142512Y-143955993D02*
X113084812Y-143955993D01*
X113084812Y-145855993D02*
X112734812Y-145855993D01*
X112734812Y-143955993D02*
X113084812Y-143955993D01*
X112734812Y-144905993D02*
X112734812Y-143955993D01*
X112734812Y-145855993D02*
X112734812Y-144905993D01*
X112234812Y-143955993D02*
X112234812Y-144924993D01*
X112234812Y-145255993D02*
X112234812Y-144924993D01*
X112234812Y-145255993D02*
X112234812Y-146555993D01*
X112234812Y-146555993D02*
X111934812Y-146555993D01*
X111934812Y-143955993D02*
X112234812Y-143955993D01*
X111934812Y-146555992D02*
X111934812Y-146555993D01*
X111642164Y-146388847D02*
X111634812Y-146157906D01*
X111634812Y-145759819D02*
X111209823Y-145816503D01*
X111634812Y-146157906D02*
X111634812Y-145759819D01*
X111605857Y-144924993D02*
X111594293Y-144875231D01*
X111418375Y-144514428D02*
X111541582Y-144668642D01*
X111209821Y-145816490D02*
X111209823Y-145816503D01*
X110334812Y-144919529D02*
X110340848Y-144759726D01*
X109934812Y-143355993D02*
X109934812Y-144605993D01*
X109934812Y-144605993D02*
X109934812Y-145855993D01*
X109934812Y-145855993D02*
X109534812Y-145855993D01*
X109534812Y-143355993D02*
X109934812Y-143355993D01*
X109534812Y-145855993D02*
X109134812Y-145855993D01*
X109134812Y-143355993D02*
X109534812Y-143355993D01*
X109134812Y-143805993D02*
X109134812Y-143355993D01*
X109134812Y-144255993D02*
X109134812Y-143805993D01*
X109134812Y-144855993D02*
X108684812Y-144855993D01*
X109134812Y-145355993D02*
X109134812Y-144855993D01*
X109134812Y-145855993D02*
X109134812Y-145355993D01*
X108684812Y-144255993D02*
X109134812Y-144255993D01*
X108684812Y-144855993D02*
X108234812Y-144855993D01*
X108234812Y-143805993D02*
X108234812Y-144255993D01*
X108234812Y-144255993D02*
X108684812Y-144255993D01*
X108234812Y-144855993D02*
X108234812Y-145355993D01*
X108234812Y-145355993D02*
X108234812Y-145855993D01*
X108234812Y-145855993D02*
X107884812Y-145855993D01*
X108227999Y-143522629D02*
X108234812Y-143805993D01*
X107884812Y-145855993D02*
X107534812Y-145855993D01*
X107534812Y-143355993D02*
X107884812Y-143355993D01*
X107534812Y-144605993D02*
X107534812Y-143355993D01*
X107534812Y-145855993D02*
X107534812Y-144605993D01*
X107034812Y-143955993D02*
X107034812Y-144748850D01*
X107034812Y-144748850D02*
X107026907Y-145137392D01*
X106734812Y-143955993D02*
X107034812Y-143955993D01*
X106434812Y-144497814D02*
X106440603Y-144146710D01*
X106423306Y-144872351D02*
X106434812Y-144497814D01*
X105834812Y-143955993D02*
X105834812Y-144497814D01*
X105834812Y-144497814D02*
X105848052Y-144928763D01*
X105731999Y-145825585D02*
X105731999Y-145825584D01*
X105484812Y-143955993D02*
X105834812Y-143955993D01*
X105484812Y-145855993D02*
X105134812Y-145855993D01*
X105134812Y-143955993D02*
X105484812Y-143955993D01*
X105134812Y-144905993D02*
X105134812Y-143955993D01*
X105134812Y-145855993D02*
X105134812Y-144905993D01*
X104734812Y-143355993D02*
X104734812Y-144605993D01*
X104734812Y-144605993D02*
X104734812Y-145855993D01*
X104734812Y-145855993D02*
X104443145Y-145855993D01*
X104384812Y-143355993D02*
X104734812Y-143355993D01*
X104034812Y-143775993D02*
X104042385Y-143507607D01*
X104030578Y-143975103D02*
X104034812Y-143775993D01*
X126634806Y-143655993D02*
G75*
G02*
X126622739Y-143833567I-1311193J-95D01*
G01*
X126622739Y-143833567D02*
G75*
G02*
X126576479Y-143912243I-117292J16027D01*
G01*
X126576479Y-143912243D02*
G75*
G02*
X126467219Y-143948673I-109300J145749D01*
G01*
X124491144Y-143948319D02*
G75*
G02*
X124393145Y-143912243I11368J182025D01*
G01*
X124393145Y-143912243D02*
G75*
G02*
X124346885Y-143833567I71173J94787D01*
G01*
X124346885Y-143833567D02*
G75*
G02*
X124334812Y-143655993I1300423J177611D01*
G01*
X124017083Y-143455747D02*
G75*
G02*
X124034812Y-143555993I-274523J-100241D01*
G01*
X123966062Y-143395279D02*
G75*
G02*
X124017083Y-143455747I-56897J-99767D01*
G01*
X124034812Y-143555993D02*
G75*
G02*
X124017083Y-143656239I-292315J7D01*
G01*
X123867240Y-143364211D02*
G75*
G02*
X123966062Y-143395279I-21997J-242670D01*
G01*
X124017083Y-143656239D02*
G75*
G02*
X123966062Y-143716707I-108355J39667D01*
G01*
X123684812Y-143355993D02*
G75*
G02*
X123867240Y-143364211I-66J-2030391D01*
G01*
X123966062Y-143716707D02*
G75*
G02*
X123867240Y-143747775I-120571J210813D01*
G01*
X123502384Y-143364211D02*
G75*
G02*
X123684812Y-143355993I182403J-2020158D01*
G01*
X123867240Y-143747775D02*
G75*
G02*
X123684812Y-143755993I-182403J2020158D01*
G01*
X123403562Y-143395279D02*
G75*
G02*
X123502384Y-143364211I120571J-210813D01*
G01*
X123684812Y-143755993D02*
G75*
G02*
X123502384Y-143747775I66J2030391D01*
G01*
X123352559Y-143455754D02*
G75*
G02*
X123403562Y-143395280I108350J-39636D01*
G01*
X123502384Y-143747775D02*
G75*
G02*
X123403562Y-143716707I21997J242670D01*
G01*
X123334812Y-143555993D02*
G75*
G02*
X123352541Y-143455747I292315J-7D01*
G01*
X123403562Y-143716707D02*
G75*
G02*
X123352541Y-143656239I56897J99767D01*
G01*
X123352541Y-143656239D02*
G75*
G02*
X123334812Y-143555993I274523J100241D01*
G01*
X122404791Y-143964863D02*
G75*
G02*
X122534812Y-143955993I130018J-948479D01*
G01*
X122311412Y-143993105D02*
G75*
G02*
X122404791Y-143964863I135487J-279478D01*
G01*
X122546831Y-145855993D02*
G75*
G02*
X122374882Y-145837196I14J795993D01*
G01*
X122255401Y-144039360D02*
G75*
G02*
X122311412Y-143993105I123091J-92014D01*
G01*
X122374882Y-145837196D02*
G75*
G02*
X122291769Y-145775000I27195J122971D01*
G01*
X122234812Y-144101342D02*
G75*
G02*
X122255401Y-144039360I103871J-93D01*
G01*
X122291769Y-145775000D02*
G75*
G02*
X122248146Y-145627751I314149J173154D01*
G01*
X122234812Y-144101342D02*
G75*
G02*
X122221015Y-144168068I-168566J65D01*
G01*
X122166499Y-144840442D02*
G75*
G02*
X122202851Y-145112383I-4552457J-746955D01*
G01*
X122221015Y-144168068D02*
G75*
G02*
X122183844Y-144191040I-34962J15013D01*
G01*
X122081415Y-144595472D02*
G75*
G02*
X122166499Y-144840442I-664369J-368012D01*
G01*
X122183844Y-144191040D02*
G75*
G02*
X122111030Y-144171145I10069J180044D01*
G01*
X121956143Y-144488282D02*
G75*
G02*
X122081415Y-144595472I-81068J-221540D01*
G01*
X121791534Y-144489576D02*
G75*
G02*
X121956143Y-144488282I84033J-219283D01*
G01*
X121677141Y-143985020D02*
G75*
G02*
X121954215Y-144085650I-149919J-844548D01*
G01*
X121715823Y-144553823D02*
G75*
G02*
X121791534Y-144489576I129471J-75839D01*
G01*
X121668113Y-144675718D02*
G75*
G02*
X121715823Y-144553823I409214J-89883D01*
G01*
X121401774Y-143994413D02*
G75*
G02*
X121677141Y-143985020I159741J-641940D01*
G01*
X121640857Y-144926899D02*
G75*
G02*
X121668113Y-144675718I1170689J36D01*
G01*
X121174588Y-144111542D02*
G75*
G02*
X121401774Y-143994413I361301J-421896D01*
G01*
X121031275Y-144315296D02*
G75*
G02*
X121174588Y-144111542I471126J-179095D01*
G01*
X120993944Y-144454674D02*
G75*
G02*
X121031275Y-144315296I702718J-113528D01*
G01*
X120722406Y-143967037D02*
G75*
G02*
X120734812Y-143980524I-1093J-13455D01*
G01*
X120734812Y-143980524D02*
G75*
G02*
X120729691Y-144008111I-76214J-121D01*
G01*
X120592188Y-146099548D02*
G75*
G02*
X120621681Y-146164813I-70102J-70975D01*
G01*
X120621681Y-146164813D02*
G75*
G02*
X120616767Y-146280993I-588090J-33320D01*
G01*
X120523121Y-146065406D02*
G75*
G02*
X120592188Y-146099548I-17024J-121369D01*
G01*
X120616767Y-146280993D02*
G75*
G02*
X120580656Y-146396709I-373545J53078D01*
G01*
X120388629Y-146055993D02*
G75*
G02*
X120523121Y-146065406I33J-965038D01*
G01*
X120580656Y-146396709D02*
G75*
G02*
X120513249Y-146468561I-154058J76983D01*
G01*
X120146090Y-144009607D02*
G75*
G02*
X120426059Y-143971100I354396J-1539647D01*
G01*
X120513249Y-146468561D02*
G75*
G02*
X120365648Y-146514265I-172622J296291D01*
G01*
X120388629Y-146055993D02*
G75*
G02*
X120285235Y-146045822I24J530858D01*
G01*
X120285235Y-146045822D02*
G75*
G02*
X120189478Y-146015706I90039J453581D01*
G01*
X120031606Y-144076075D02*
G75*
G02*
X120146090Y-144009607I164945J-152272D01*
G01*
X120189478Y-146015706D02*
G75*
G02*
X120114943Y-145971397I141500J322871D01*
G01*
X120114943Y-145971397D02*
G75*
G02*
X120075907Y-145918846I74532J96138D01*
G01*
X120075907Y-145918846D02*
G75*
G02*
X120070503Y-145826503I142331J54659D01*
G01*
X119953037Y-144209154D02*
G75*
G02*
X120031606Y-144076075I349036J-116336D01*
G01*
X120180019Y-146535730D02*
G75*
G02*
X119836431Y-146501474I-74015J997853D01*
G01*
X119673068Y-145032255D02*
G75*
G02*
X119637918Y-145055993I-35157J14166D01*
G01*
X119637918Y-145055993D02*
G75*
G02*
X119604699Y-145033745I-28J35883D01*
G01*
X119836431Y-146501474D02*
G75*
G02*
X119593424Y-146348339I135311J484102D01*
G01*
X119290352Y-144029130D02*
G75*
G02*
X119360982Y-144169954I-246463J-211737D01*
G01*
X119593424Y-146348339D02*
G75*
G02*
X119354913Y-145948741I974673J852740D01*
G01*
X119185970Y-143971670D02*
G75*
G02*
X119290352Y-144029130I-24639J-168300D01*
G01*
X118970902Y-143955993D02*
G75*
G02*
X119185970Y-143971670I12J-1482907D01*
G01*
X118747410Y-143989984D02*
G75*
G02*
X118970902Y-143955993I223514J-717882D01*
G01*
X118679934Y-144090727D02*
G75*
G02*
X118747410Y-143989984I96153J8567D01*
G01*
X118730983Y-144319659D02*
G75*
G02*
X118679934Y-144090727I843819J308319D01*
G01*
X118202361Y-143785111D02*
G75*
G02*
X118426424Y-144342176I-1227780J-817432D01*
G01*
X118426424Y-144342176D02*
G75*
G02*
X118414108Y-144961280I-1554159J-278757D01*
G01*
X117796000Y-143454000D02*
G75*
G02*
X118202361Y-143785112I-332587J-823083D01*
G01*
X118414108Y-144961280D02*
G75*
G02*
X118156568Y-145464247I-1090066J240740D01*
G01*
X117334023Y-143357722D02*
G75*
G02*
X117796000Y-143454000I-35693J-1327774D01*
G01*
X117643537Y-144272466D02*
G75*
G02*
X117734812Y-144605993I-563742J-333530D01*
G01*
X118156568Y-145464247D02*
G75*
G02*
X117697490Y-145769221I-814124J727490D01*
G01*
X117394867Y-144030169D02*
G75*
G02*
X117643537Y-144272466I-323663J-580930D01*
G01*
X117734812Y-144605993D02*
G75*
G02*
X117635411Y-144960184I-680628J-30D01*
G01*
X117088891Y-143968514D02*
G75*
G02*
X117394867Y-144030169I56649J-508930D01*
G01*
X117635411Y-144960184D02*
G75*
G02*
X117368169Y-145199465I-529777J322808D01*
G01*
X116821042Y-143414646D02*
G75*
G02*
X117334023Y-143357722I462282J-1826065D01*
G01*
X117697490Y-145769221D02*
G75*
G02*
X117097473Y-145851286I-507471J1475829D01*
G01*
X116835614Y-144105026D02*
G75*
G02*
X117088891Y-143968514I295731J-245468D01*
G01*
X117368169Y-145199465D02*
G75*
G02*
X117056622Y-145222459I-186033J398488D01*
G01*
X117056622Y-145222459D02*
G75*
G02*
X116825619Y-145032578I109993J369270D01*
G01*
X116392262Y-143595101D02*
G75*
G02*
X116821042Y-143414646I809932J-1324842D01*
G01*
X116835614Y-144105026D02*
G75*
G02*
X116764894Y-144165673I-213239J177100D01*
G01*
X116687482Y-144780542D02*
G75*
G02*
X116700168Y-144799550I-106884J-85072D01*
G01*
X116634873Y-144765440D02*
G75*
G02*
X116687482Y-144780542I15791J-44175D01*
G01*
X116764894Y-144165673D02*
G75*
G02*
X116676786Y-144200763I-152491J254732D01*
G01*
X116676786Y-144200763D02*
G75*
G02*
X116571075Y-144209169I-82868J373220D01*
G01*
X117097473Y-145851286D02*
G75*
G02*
X116535435Y-145699279I84887J1428923D01*
G01*
X116571075Y-144209169D02*
G75*
G02*
X116418595Y-144183145I42435J708355D01*
G01*
X116182768Y-143862432D02*
G75*
G02*
X116392262Y-143595101I462790J-146915D01*
G01*
X116141694Y-144019538D02*
G75*
G02*
X116182768Y-143862432I1540203J-318750D01*
G01*
X116535435Y-145699279D02*
G75*
G02*
X116171220Y-145329184I368058J726472D01*
G01*
X116225640Y-144132506D02*
G75*
G02*
X116158251Y-144087820I37172J129214D01*
G01*
X116158251Y-144087820D02*
G75*
G02*
X116141694Y-144019538I63834J51627D01*
G01*
X116034812Y-145020741D02*
G75*
G02*
X116066675Y-144974556I49524J-83D01*
G01*
X116040290Y-145049080D02*
G75*
G02*
X116034812Y-145020741I71339J28489D01*
G01*
X115167030Y-143365952D02*
G75*
G02*
X115384812Y-143355993I217779J-2376176D01*
G01*
X115081496Y-143409816D02*
G75*
G02*
X115167030Y-143365953I97354J-84514D01*
G01*
X115042708Y-143504939D02*
G75*
G02*
X115081497Y-143409817I159892J-9731D01*
G01*
X115030283Y-143994560D02*
G75*
G02*
X115004247Y-144082897I-163083J60D01*
G01*
X114956263Y-144619064D02*
G75*
G02*
X114991393Y-144791486I-657523J-223756D01*
G01*
X114891802Y-144537096D02*
G75*
G02*
X114956269Y-144619062I-84002J-132404D01*
G01*
X115004242Y-144082894D02*
G75*
G02*
X114950439Y-144103342I-40742J26194D01*
G01*
X114784812Y-144505993D02*
G75*
G02*
X114891802Y-144537096I-12J-199607D01*
G01*
X114950446Y-144103317D02*
G75*
G02*
X114841387Y-144059509I144954J518517D01*
G01*
X114600718Y-143972571D02*
G75*
G02*
X114841387Y-144059510I-177818J-868829D01*
G01*
X114677822Y-144537096D02*
G75*
G02*
X114784812Y-144505990I106978J-168404D01*
G01*
X114613361Y-144619064D02*
G75*
G02*
X114677821Y-144537094I148789J-50676D01*
G01*
X114577019Y-144812011D02*
G75*
G02*
X114613361Y-144619064I695001J-31009D01*
G01*
X114358787Y-143964914D02*
G75*
G02*
X114600720Y-143972563I98713J-707686D01*
G01*
X114146605Y-144036655D02*
G75*
G02*
X114358787Y-143964917I295395J-524045D01*
G01*
X113990482Y-144178244D02*
G75*
G02*
X114146598Y-144036642I390218J-273356D01*
G01*
X113920790Y-144320357D02*
G75*
G02*
X113990490Y-144178250I489710J-152043D01*
G01*
X113872794Y-144523832D02*
G75*
G02*
X113920790Y-144320357I1492068J-244553D01*
G01*
X113843946Y-144789522D02*
G75*
G02*
X113872794Y-144523832I2461007J-132799D01*
G01*
X113417083Y-143455747D02*
G75*
G02*
X113434818Y-143555993I-274483J-100253D01*
G01*
X113366062Y-143395279D02*
G75*
G02*
X113417075Y-143455750I-56862J-99721D01*
G01*
X113434810Y-143555993D02*
G75*
G02*
X113417085Y-143656240I-292310J-7D01*
G01*
X113267240Y-143364211D02*
G75*
G02*
X113366055Y-143395292I-22040J-242689D01*
G01*
X113417083Y-143656239D02*
G75*
G02*
X113366076Y-143716731I-108383J39639D01*
G01*
X113084812Y-143355993D02*
G75*
G02*
X113267240Y-143364215I-112J-2030407D01*
G01*
X113366062Y-143716707D02*
G75*
G02*
X113267240Y-143747772I-120562J210807D01*
G01*
X112902384Y-143364211D02*
G75*
G02*
X113084812Y-143355992I182416J-2020189D01*
G01*
X113267240Y-143747775D02*
G75*
G02*
X113084812Y-143755996I-182440J2020175D01*
G01*
X112803562Y-143395279D02*
G75*
G02*
X112902385Y-143364225I120538J-210821D01*
G01*
X113084812Y-143755993D02*
G75*
G02*
X112902384Y-143747773I88J2030393D01*
G01*
X112752541Y-143455747D02*
G75*
G02*
X112803557Y-143395271I108359J-39653D01*
G01*
X112902384Y-143747775D02*
G75*
G02*
X112803566Y-143716701I22016J242675D01*
G01*
X112734812Y-143555993D02*
G75*
G02*
X112752543Y-143455748I292288J-7D01*
G01*
X112803562Y-143716707D02*
G75*
G02*
X112752538Y-143656240I56938J99807D01*
G01*
X112752541Y-143656239D02*
G75*
G02*
X112734815Y-143555993I274559J100239D01*
G01*
X111819894Y-143963532D02*
G75*
G02*
X111934812Y-143955995I114906J-872168D01*
G01*
X111722937Y-143986401D02*
G75*
G02*
X111819893Y-143963522I161563J-467799D01*
G01*
X111934812Y-146555992D02*
G75*
G02*
X111757355Y-146543952I-12J1313592D01*
G01*
X111655978Y-144019762D02*
G75*
G02*
X111722938Y-143986404I161122J-239538D01*
G01*
X111757354Y-146543956D02*
G75*
G02*
X111678655Y-146497817I16046J117556D01*
G01*
X111634812Y-144059511D02*
G75*
G02*
X111655953Y-144019725I47988J11D01*
G01*
X111678652Y-146497819D02*
G75*
G02*
X111642170Y-146388847I144648J109019D01*
G01*
X111634812Y-144059511D02*
G75*
G02*
X111621174Y-144097411I-59512J11D01*
G01*
X111418375Y-144514428D02*
G75*
G02*
X111605838Y-144924993I-355875J-410572D01*
G01*
X111541582Y-144668642D02*
G75*
G02*
X111594303Y-144875231I-392782J-210258D01*
G01*
X111621193Y-144097427D02*
G75*
G02*
X111588099Y-144113054I-33093J27227D01*
G01*
X111594293Y-144875231D02*
G75*
G02*
X111554017Y-145108432I-663593J-5469D01*
G01*
X111588099Y-144113030D02*
G75*
G02*
X111529810Y-144101428I-99J151730D01*
G01*
X111554020Y-145108433D02*
G75*
G02*
X111441742Y-145290588I-500520J182833D01*
G01*
X111529817Y-144101411D02*
G75*
G02*
X111441387Y-144059509I383983J924611D01*
G01*
X111212431Y-143975893D02*
G75*
G02*
X111441388Y-144059507I-179431J-846607D01*
G01*
X111275910Y-144465113D02*
G75*
G02*
X111418366Y-144514439I9690J-202387D01*
G01*
X111441739Y-145290585D02*
G75*
G02*
X111290474Y-145356012I-151239J142085D01*
G01*
X111136498Y-144527438D02*
G75*
G02*
X111275909Y-144465093I149502J-147262D01*
G01*
X110983462Y-143966787D02*
G75*
G02*
X111212432Y-143975889I87838J-674913D01*
G01*
X111022380Y-144693344D02*
G75*
G02*
X111136504Y-144527444I526320J-239856D01*
G01*
X111290474Y-145355993D02*
G75*
G02*
X111134290Y-145295257I-74J230993D01*
G01*
X110975863Y-144906954D02*
G75*
G02*
X111022372Y-144693340I517237J-746D01*
G01*
X111134280Y-145295268D02*
G75*
G02*
X111018956Y-145129143I309820J338168D01*
G01*
X110764900Y-144034168D02*
G75*
G02*
X110983462Y-143966790I306000J-604432D01*
G01*
X111018955Y-145129143D02*
G75*
G02*
X110975861Y-144906954I547665J221493D01*
G01*
X111209821Y-145816490D02*
G75*
G02*
X110812455Y-145808987I-174121J1304590D01*
G01*
X110566257Y-144173424D02*
G75*
G02*
X110764904Y-144034176I583843J-621576D01*
G01*
X110450664Y-144308653D02*
G75*
G02*
X110566261Y-144173428I674236J-459347D01*
G01*
X110812455Y-145808989D02*
G75*
G02*
X110541308Y-145666436I84245J489389D01*
G01*
X110381039Y-144453020D02*
G75*
G02*
X110450673Y-144308659I517361J-160580D01*
G01*
X110541327Y-145666418D02*
G75*
G02*
X110384730Y-145376528I430173J419618D01*
G01*
X110340848Y-144759726D02*
G75*
G02*
X110377314Y-144451863I849852J55426D01*
G01*
X110384727Y-145376529D02*
G75*
G02*
X110340849Y-144759726I2067373J457029D01*
G01*
X108190368Y-143413136D02*
G75*
G02*
X108228024Y-143522629I-140568J-109564D01*
G01*
X108105736Y-143366592D02*
G75*
G02*
X108190378Y-143413128I-11636J-121408D01*
G01*
X107884812Y-143355993D02*
G75*
G02*
X108105736Y-143366589I88J-2306607D01*
G01*
X107026907Y-145137392D02*
G75*
G02*
X106999906Y-145400482I-2143807J87092D01*
G01*
X106999902Y-145400481D02*
G75*
G02*
X106952339Y-145581672I-997402J164981D01*
G01*
X106952346Y-145581675D02*
G75*
G02*
X106877672Y-145698853I-301846J109975D01*
G01*
X106551787Y-143971016D02*
G75*
G02*
X106734812Y-143955995I183013J-1107384D01*
G01*
X106877669Y-145698850D02*
G75*
G02*
X106712948Y-145803671I-318169J318150D01*
G01*
X106473654Y-144026145D02*
G75*
G02*
X106551781Y-143970977I96146J-53255D01*
G01*
X106712946Y-145803665D02*
G75*
G02*
X106491197Y-145849878I-272046J750265D01*
G01*
X106440603Y-144146710D02*
G75*
G02*
X106473645Y-144026140I264197J-7590D01*
G01*
X106423306Y-144872351D02*
G75*
G02*
X106371792Y-145175749I-919506J51D01*
G01*
X106371804Y-145175753D02*
G75*
G02*
X106278293Y-145306450I-270104J94453D01*
G01*
X106491198Y-145849889D02*
G75*
G02*
X106250000Y-145832846I-57198J905789D01*
G01*
X106278291Y-145306448D02*
G75*
G02*
X106134812Y-145355986I-143491J183048D01*
G01*
X106249998Y-145832854D02*
G75*
G02*
X106028233Y-145752484I167002J806954D01*
G01*
X105939806Y-145710575D02*
G75*
G02*
X106028238Y-145752475I-384006J-924725D01*
G01*
X106134812Y-145355993D02*
G75*
G02*
X105991333Y-145306448I-12J232493D01*
G01*
X105881525Y-145698956D02*
G75*
G02*
X105939810Y-145710565I75J-151744D01*
G01*
X105991333Y-145306448D02*
G75*
G02*
X105897797Y-145175761I176367J225048D01*
G01*
X105848431Y-145714559D02*
G75*
G02*
X105881525Y-145698956I33069J-27241D01*
G01*
X105834812Y-145752475D02*
G75*
G02*
X105848461Y-145714584I59488J-25D01*
G01*
X105897820Y-145175753D02*
G75*
G02*
X105848039Y-144928764I866980J303253D01*
G01*
X105834812Y-145752475D02*
G75*
G02*
X105811277Y-145792314I-45612J75D01*
G01*
X105811305Y-145792365D02*
G75*
G02*
X105731999Y-145825584I-191105J344965D01*
G01*
X105731999Y-145825584D02*
G75*
G02*
X105618917Y-145848477I-186699J631484D01*
G01*
X105618917Y-145848479D02*
G75*
G02*
X105484812Y-145855994I-134117J1192979D01*
G01*
X104165806Y-143366172D02*
G75*
G02*
X104384812Y-143355994I218994J-2350828D01*
G01*
X104443145Y-145855993D02*
G75*
G02*
X104328152Y-145846764I55J721693D01*
G01*
X104328151Y-145846770D02*
G75*
G02*
X104223690Y-145819279I88649J549070D01*
G01*
X104080645Y-143410993D02*
G75*
G02*
X104165809Y-143366205I96855J-80807D01*
G01*
X104223692Y-145819274D02*
G75*
G02*
X104143798Y-145778991I138508J374074D01*
G01*
X104143795Y-145778995D02*
G75*
G02*
X104105669Y-145730984I53205J81395D01*
G01*
X104076206Y-145673800D02*
G75*
G02*
X104105649Y-145730992I-214306J-146500D01*
G01*
X104042385Y-143507607D02*
G75*
G02*
X104080643Y-143410991I166615J-10093D01*
G01*
X104042479Y-145655993D02*
G75*
G02*
X104076207Y-145673799I21J-40807D01*
G01*
X103998052Y-145670982D02*
G75*
G02*
X104042479Y-145655955I44548J-58518D01*
G01*
X103995408Y-144597546D02*
G75*
G02*
X104040706Y-144824059I-640408J-245854D01*
G01*
X104040710Y-144824059D02*
G75*
G02*
X104011251Y-145062018I-793710J-22541D01*
G01*
X104030578Y-143975103D02*
G75*
G02*
X104009814Y-144083494I-290178J-597D01*
G01*
X103927312Y-145730993D02*
G75*
G02*
X103998052Y-145670982I603088J-639207D01*
G01*
X103887342Y-144476786D02*
G75*
G02*
X103995432Y-144597537I-104742J-202514D01*
G01*
X104009812Y-144083493D02*
G75*
G02*
X103970948Y-144105143I-32812J13193D01*
G01*
X104011248Y-145062017D02*
G75*
G02*
X103922223Y-145242599I-530948J149517D01*
G01*
X103970945Y-144105162D02*
G75*
G02*
X103914808Y-144075997I18055J103362D01*
G01*
X103773838Y-143992800D02*
G75*
G02*
X103914818Y-144075987I-90838J-315000D01*
G01*
X103725005Y-144456819D02*
G75*
G02*
X103887330Y-144476809I54195J-228981D01*
G01*
X103922206Y-145242587D02*
G75*
G02*
X103795711Y-145305997I-126506J94487D01*
G01*
X103566959Y-143960296D02*
G75*
G02*
X103773840Y-143992792I-25859J-839404D01*
G01*
X103927312Y-145730993D02*
G75*
G02*
X103743303Y-145829914I-275512J291893D01*
G01*
X103565305Y-144549724D02*
G75*
G02*
X103725008Y-144456833I232895J-216676D01*
G01*
X103795711Y-145305993D02*
G75*
G02*
X103628613Y-145259768I-11J325093D01*
G01*
X103341125Y-143979944D02*
G75*
G02*
X103566959Y-143960301I196075J-946256D01*
G01*
X103471992Y-144721471D02*
G75*
G02*
X103565316Y-144549734I380108J-95329D01*
G01*
X103628605Y-145259781D02*
G75*
G02*
X103506939Y-145133936I173095J289081D01*
G01*
X103743300Y-145829903D02*
G75*
G02*
X103491924Y-145849050I-187300J799303D01*
G01*
X103451540Y-144944358D02*
G75*
G02*
X103471979Y-144721468I726560J45758D01*
G01*
X103506944Y-145133933D02*
G75*
G02*
X103451544Y-144944358I393356J217833D01*
G01*
X103141953Y-144052171D02*
G75*
G02*
X103341127Y-143979951I349647J-653529D01*
G01*
X103491924Y-145849047D02*
G75*
G02*
X103236505Y-145790133I69176J883047D01*
G01*
X102884136Y-144330558D02*
G75*
G02*
X103141946Y-144052158I532064J-234142D01*
G01*
X103236502Y-145790141D02*
G75*
G02*
X103040398Y-145661563I210798J535341D01*
G01*
X102771223Y-144794237D02*
G75*
G02*
X102884140Y-144330560I1361877J-86063D01*
G01*
X103040390Y-145661571D02*
G75*
G02*
X102823393Y-145290397I599110J599271D01*
G01*
X102823407Y-145290393D02*
G75*
G02*
X102771224Y-144794237I1438293J402093D01*
G01*
D11*
X124034812Y-145855993D02*
X123334812Y-145855993D01*
X123334812Y-143955993D01*
X124034812Y-143955993D01*
X124034812Y-145855993D01*
%TA.AperFunction,EtchedComponent*%
G36*
X124034812Y-145855993D02*
G01*
X123334812Y-145855993D01*
X123334812Y-143955993D01*
X124034812Y-143955993D01*
X124034812Y-145855993D01*
G37*
%TD.AperFunction*%
X113434812Y-145855993D02*
X112734812Y-145855993D01*
X112734812Y-143955993D01*
X113434812Y-143955993D01*
X113434812Y-145855993D01*
%TA.AperFunction,EtchedComponent*%
G36*
X113434812Y-145855993D02*
G01*
X112734812Y-145855993D01*
X112734812Y-143955993D01*
X113434812Y-143955993D01*
X113434812Y-145855993D01*
G37*
%TD.AperFunction*%
X104276000Y-143944000D02*
X104136000Y-144324000D01*
X103956000Y-144374000D01*
X103926000Y-144174000D01*
X104276000Y-143934000D01*
X104276000Y-143944000D01*
%TA.AperFunction,EtchedComponent*%
G36*
X104276000Y-143944000D02*
G01*
X104136000Y-144324000D01*
X103956000Y-144374000D01*
X103926000Y-144174000D01*
X104276000Y-143934000D01*
X104276000Y-143944000D01*
G37*
%TD.AperFunction*%
X112234812Y-146555993D02*
X111845879Y-146552981D01*
X111757354Y-146543956D01*
X111713390Y-146528758D01*
X111678652Y-146497819D01*
X111651536Y-146446304D01*
X111638488Y-146273377D01*
X111634812Y-145759819D01*
X112236000Y-145654000D01*
X112234812Y-146555993D01*
%TA.AperFunction,EtchedComponent*%
G36*
X112234812Y-146555993D02*
G01*
X111845879Y-146552981D01*
X111757354Y-146543956D01*
X111713390Y-146528758D01*
X111678652Y-146497819D01*
X111651536Y-146446304D01*
X111638488Y-146273377D01*
X111634812Y-145759819D01*
X112236000Y-145654000D01*
X112234812Y-146555993D01*
G37*
%TD.AperFunction*%
X104734812Y-145855993D02*
X104443145Y-145855993D01*
X104328151Y-145846770D01*
X104223692Y-145819274D01*
X104143795Y-145778995D01*
X104061550Y-145660717D01*
X103866461Y-145289256D01*
X103975036Y-145156398D01*
X104011248Y-145062017D01*
X104035013Y-144944157D01*
X104040710Y-144824059D01*
X104027662Y-144708881D01*
X103995408Y-144597546D01*
X104734812Y-143355993D01*
X104734812Y-145855993D01*
%TA.AperFunction,EtchedComponent*%
G36*
X104734812Y-145855993D02*
G01*
X104443145Y-145855993D01*
X104328151Y-145846770D01*
X104223692Y-145819274D01*
X104143795Y-145778995D01*
X104061550Y-145660717D01*
X103866461Y-145289256D01*
X103975036Y-145156398D01*
X104011248Y-145062017D01*
X104035013Y-144944157D01*
X104040710Y-144824059D01*
X104027662Y-144708881D01*
X103995408Y-144597546D01*
X104734812Y-143355993D01*
X104734812Y-145855993D01*
G37*
%TD.AperFunction*%
X109934812Y-145855993D02*
X109134812Y-145855993D01*
X109134812Y-144855993D01*
X108234812Y-144855993D01*
X108234812Y-145855993D01*
X107534812Y-145855993D01*
X107534812Y-143355993D01*
X107995401Y-143358643D01*
X108152853Y-143381131D01*
X108218323Y-143464740D01*
X108227999Y-143522629D01*
X108234812Y-144255993D01*
X109134812Y-144255993D01*
X109134812Y-143355993D01*
X109934812Y-143355993D01*
X109934812Y-145855993D01*
%TA.AperFunction,EtchedComponent*%
G36*
X109934812Y-145855993D02*
G01*
X109134812Y-145855993D01*
X109134812Y-144855993D01*
X108234812Y-144855993D01*
X108234812Y-145855993D01*
X107534812Y-145855993D01*
X107534812Y-143355993D01*
X107995401Y-143358643D01*
X108152853Y-143381131D01*
X108218323Y-143464740D01*
X108227999Y-143522629D01*
X108234812Y-144255993D01*
X109134812Y-144255993D01*
X109134812Y-143355993D01*
X109934812Y-143355993D01*
X109934812Y-145855993D01*
G37*
%TD.AperFunction*%
X126622739Y-143833567D02*
X126576479Y-143912243D01*
X126524802Y-143939320D01*
X126234812Y-143955993D01*
X125834812Y-143955993D01*
X125834812Y-145855993D01*
X125134812Y-145855993D01*
X125134812Y-143955993D01*
X124612978Y-143952156D01*
X124491144Y-143948319D01*
X124439507Y-143937445D01*
X124393145Y-143912243D01*
X124362138Y-143877534D01*
X124346885Y-143833567D01*
X124337835Y-143744985D01*
X124334812Y-143655993D01*
X124334812Y-143355993D01*
X126634812Y-143355993D01*
X126622739Y-143833567D01*
%TA.AperFunction,EtchedComponent*%
G36*
X126622739Y-143833567D02*
G01*
X126576479Y-143912243D01*
X126524802Y-143939320D01*
X126234812Y-143955993D01*
X125834812Y-143955993D01*
X125834812Y-145855993D01*
X125134812Y-145855993D01*
X125134812Y-143955993D01*
X124612978Y-143952156D01*
X124491144Y-143948319D01*
X124439507Y-143937445D01*
X124393145Y-143912243D01*
X124362138Y-143877534D01*
X124346885Y-143833567D01*
X124337835Y-143744985D01*
X124334812Y-143655993D01*
X124334812Y-143355993D01*
X126634812Y-143355993D01*
X126622739Y-143833567D01*
G37*
%TD.AperFunction*%
X113176118Y-143358050D02*
X113318322Y-143374433D01*
X113396942Y-143420979D01*
X113417083Y-143455747D01*
X113434810Y-143555993D01*
X113417082Y-143656239D01*
X113366062Y-143716707D01*
X113318328Y-143737571D01*
X113267240Y-143747775D01*
X113176119Y-143753938D01*
X112993506Y-143753936D01*
X112902384Y-143747775D01*
X112851302Y-143737553D01*
X112803562Y-143716707D01*
X112752541Y-143656239D01*
X112739278Y-143606894D01*
X112734812Y-143555993D01*
X112752541Y-143455747D01*
X112803562Y-143395279D01*
X112851296Y-143374415D01*
X112902384Y-143364211D01*
X112993505Y-143358048D01*
X113084812Y-143355993D01*
X113176118Y-143358050D01*
%TA.AperFunction,EtchedComponent*%
G36*
X113176118Y-143358050D02*
G01*
X113318322Y-143374433D01*
X113396942Y-143420979D01*
X113417083Y-143455747D01*
X113434810Y-143555993D01*
X113417082Y-143656239D01*
X113366062Y-143716707D01*
X113318328Y-143737571D01*
X113267240Y-143747775D01*
X113176119Y-143753938D01*
X112993506Y-143753936D01*
X112902384Y-143747775D01*
X112851302Y-143737553D01*
X112803562Y-143716707D01*
X112752541Y-143656239D01*
X112739278Y-143606894D01*
X112734812Y-143555993D01*
X112752541Y-143455747D01*
X112803562Y-143395279D01*
X112851296Y-143374415D01*
X112902384Y-143364211D01*
X112993505Y-143358048D01*
X113084812Y-143355993D01*
X113176118Y-143358050D01*
G37*
%TD.AperFunction*%
X123776118Y-143358050D02*
X123918322Y-143374433D01*
X123966062Y-143395279D01*
X124017083Y-143455747D01*
X124030346Y-143505092D01*
X124034812Y-143555993D01*
X124030345Y-143606894D01*
X124017083Y-143656239D01*
X123996915Y-143690985D01*
X123966062Y-143716707D01*
X123918328Y-143737571D01*
X123867240Y-143747775D01*
X123776119Y-143753938D01*
X123593506Y-143753936D01*
X123502384Y-143747775D01*
X123451302Y-143737553D01*
X123403562Y-143716707D01*
X123372682Y-143691007D01*
X123352541Y-143656239D01*
X123334812Y-143555993D01*
X123352541Y-143455747D01*
X123403562Y-143395280D01*
X123451296Y-143374415D01*
X123502384Y-143364211D01*
X123593505Y-143358048D01*
X123684812Y-143355993D01*
X123776118Y-143358050D01*
%TA.AperFunction,EtchedComponent*%
G36*
X123776118Y-143358050D02*
G01*
X123918322Y-143374433D01*
X123966062Y-143395279D01*
X124017083Y-143455747D01*
X124030346Y-143505092D01*
X124034812Y-143555993D01*
X124030345Y-143606894D01*
X124017083Y-143656239D01*
X123996915Y-143690985D01*
X123966062Y-143716707D01*
X123918328Y-143737571D01*
X123867240Y-143747775D01*
X123776119Y-143753938D01*
X123593506Y-143753936D01*
X123502384Y-143747775D01*
X123451302Y-143737553D01*
X123403562Y-143716707D01*
X123372682Y-143691007D01*
X123352541Y-143656239D01*
X123334812Y-143555993D01*
X123352541Y-143455747D01*
X123403562Y-143395280D01*
X123451296Y-143374415D01*
X123502384Y-143364211D01*
X123593505Y-143358048D01*
X123684812Y-143355993D01*
X123776118Y-143358050D01*
G37*
%TD.AperFunction*%
X115734812Y-145855993D02*
X115043950Y-145855993D01*
X115014381Y-145180993D01*
X114991394Y-144791486D01*
X114956263Y-144619064D01*
X114891802Y-144537096D01*
X114784812Y-144505993D01*
X114638597Y-144572577D01*
X114588349Y-144714249D01*
X114577019Y-144812011D01*
X114566131Y-144996502D01*
X114546000Y-145344000D01*
X114525674Y-145855993D01*
X113834812Y-145855993D01*
X113839379Y-144958883D01*
X113854766Y-144656286D01*
X113872794Y-144523832D01*
X113920790Y-144320357D01*
X113990482Y-144178244D01*
X114060617Y-144098708D01*
X114146605Y-144036655D01*
X114249328Y-143990822D01*
X114358787Y-143964914D01*
X114480079Y-143958424D01*
X114600718Y-143972571D01*
X114724204Y-144007315D01*
X114841386Y-144059511D01*
X114894717Y-144084399D01*
X114950446Y-144103317D01*
X115004242Y-144082894D01*
X115023627Y-144040603D01*
X115032547Y-143877035D01*
X115034812Y-143759511D01*
X115042708Y-143504939D01*
X115081496Y-143409816D01*
X115167030Y-143365952D01*
X115275807Y-143358484D01*
X115734812Y-143355993D01*
X115734812Y-145855993D01*
%TA.AperFunction,EtchedComponent*%
G36*
X115734812Y-145855993D02*
G01*
X115043950Y-145855993D01*
X115014381Y-145180993D01*
X114991394Y-144791486D01*
X114956263Y-144619064D01*
X114891802Y-144537096D01*
X114784812Y-144505993D01*
X114638597Y-144572577D01*
X114588349Y-144714249D01*
X114577019Y-144812011D01*
X114566131Y-144996502D01*
X114546000Y-145344000D01*
X114525674Y-145855993D01*
X113834812Y-145855993D01*
X113839379Y-144958883D01*
X113854766Y-144656286D01*
X113872794Y-144523832D01*
X113920790Y-144320357D01*
X113990482Y-144178244D01*
X114060617Y-144098708D01*
X114146605Y-144036655D01*
X114249328Y-143990822D01*
X114358787Y-143964914D01*
X114480079Y-143958424D01*
X114600718Y-143972571D01*
X114724204Y-144007315D01*
X114841386Y-144059511D01*
X114894717Y-144084399D01*
X114950446Y-144103317D01*
X115004242Y-144082894D01*
X115023627Y-144040603D01*
X115032547Y-143877035D01*
X115034812Y-143759511D01*
X115042708Y-143504939D01*
X115081496Y-143409816D01*
X115167030Y-143365952D01*
X115275807Y-143358484D01*
X115734812Y-143355993D01*
X115734812Y-145855993D01*
G37*
%TD.AperFunction*%
X105834812Y-144497814D02*
X105848052Y-144928763D01*
X105864427Y-145053973D01*
X105897820Y-145175753D01*
X105935205Y-145247807D01*
X106058915Y-145343262D01*
X106134812Y-145355993D01*
X106210707Y-145343257D01*
X106278291Y-145306448D01*
X106334412Y-145247802D01*
X106371804Y-145175753D01*
X106423306Y-144872351D01*
X106434812Y-144497814D01*
X106440603Y-144146710D01*
X106473654Y-144026145D01*
X106551787Y-143971016D01*
X106642992Y-143959755D01*
X106734812Y-143955993D01*
X107034812Y-143955993D01*
X107034812Y-144748850D01*
X107026907Y-145137392D01*
X107017462Y-145269353D01*
X106999902Y-145400481D01*
X106952346Y-145581675D01*
X106877669Y-145698850D01*
X106801061Y-145760300D01*
X106603720Y-145834684D01*
X106491198Y-145849889D01*
X106370028Y-145849440D01*
X106136227Y-145800640D01*
X105939806Y-145710575D01*
X105863225Y-145703045D01*
X105828491Y-145775624D01*
X105731999Y-145825585D01*
X105551970Y-145854113D01*
X105134812Y-145855993D01*
X105134812Y-143955993D01*
X105834812Y-143955993D01*
X105834812Y-144497814D01*
%TA.AperFunction,EtchedComponent*%
G36*
X105834812Y-144497814D02*
G01*
X105848052Y-144928763D01*
X105864427Y-145053973D01*
X105897820Y-145175753D01*
X105935205Y-145247807D01*
X106058915Y-145343262D01*
X106134812Y-145355993D01*
X106210707Y-145343257D01*
X106278291Y-145306448D01*
X106334412Y-145247802D01*
X106371804Y-145175753D01*
X106423306Y-144872351D01*
X106434812Y-144497814D01*
X106440603Y-144146710D01*
X106473654Y-144026145D01*
X106551787Y-143971016D01*
X106642992Y-143959755D01*
X106734812Y-143955993D01*
X107034812Y-143955993D01*
X107034812Y-144748850D01*
X107026907Y-145137392D01*
X107017462Y-145269353D01*
X106999902Y-145400481D01*
X106952346Y-145581675D01*
X106877669Y-145698850D01*
X106801061Y-145760300D01*
X106603720Y-145834684D01*
X106491198Y-145849889D01*
X106370028Y-145849440D01*
X106136227Y-145800640D01*
X105939806Y-145710575D01*
X105863225Y-145703045D01*
X105828491Y-145775624D01*
X105731999Y-145825585D01*
X105551970Y-145854113D01*
X105134812Y-145855993D01*
X105134812Y-143955993D01*
X105834812Y-143955993D01*
X105834812Y-144497814D01*
G37*
%TD.AperFunction*%
X112236000Y-145654000D02*
X111634812Y-145759819D01*
X111316000Y-145814000D01*
X111010853Y-145827825D01*
X110812455Y-145808989D01*
X110665621Y-145759133D01*
X110541327Y-145666418D01*
X110442771Y-145532416D01*
X110384727Y-145376529D01*
X110340149Y-145069738D01*
X110337830Y-144839627D01*
X110344955Y-144604122D01*
X110410483Y-144378247D01*
X110450664Y-144308653D01*
X110566257Y-144173424D01*
X110764900Y-144034168D01*
X110871317Y-143991188D01*
X111098333Y-143961634D01*
X111441386Y-144059511D01*
X111418375Y-144514428D01*
X111275910Y-144465113D01*
X111136498Y-144527438D01*
X111022380Y-144693344D01*
X110975863Y-144906954D01*
X110986669Y-145020131D01*
X111018955Y-145129143D01*
X111134280Y-145295268D01*
X111290474Y-145355993D01*
X111372882Y-145338953D01*
X111441739Y-145290585D01*
X111507117Y-145205203D01*
X111554020Y-145108433D01*
X111584635Y-144993642D01*
X111600075Y-144900112D01*
X111594293Y-144875231D01*
X111541582Y-144668642D01*
X111418375Y-144514428D01*
X111621193Y-144097427D01*
X111655978Y-144019762D01*
X111819894Y-143963532D01*
X112234812Y-143955993D01*
X112236000Y-145654000D01*
%TA.AperFunction,EtchedComponent*%
G36*
X112236000Y-145654000D02*
G01*
X111634812Y-145759819D01*
X111316000Y-145814000D01*
X111010853Y-145827825D01*
X110812455Y-145808989D01*
X110665621Y-145759133D01*
X110541327Y-145666418D01*
X110442771Y-145532416D01*
X110384727Y-145376529D01*
X110340149Y-145069738D01*
X110337830Y-144839627D01*
X110344955Y-144604122D01*
X110410483Y-144378247D01*
X110450664Y-144308653D01*
X110566257Y-144173424D01*
X110764900Y-144034168D01*
X110871317Y-143991188D01*
X111098333Y-143961634D01*
X111441386Y-144059511D01*
X111418375Y-144514428D01*
X111275910Y-144465113D01*
X111136498Y-144527438D01*
X111022380Y-144693344D01*
X110975863Y-144906954D01*
X110986669Y-145020131D01*
X111018955Y-145129143D01*
X111134280Y-145295268D01*
X111290474Y-145355993D01*
X111372882Y-145338953D01*
X111441739Y-145290585D01*
X111507117Y-145205203D01*
X111554020Y-145108433D01*
X111584635Y-144993642D01*
X111600075Y-144900112D01*
X111594293Y-144875231D01*
X111541582Y-144668642D01*
X111418375Y-144514428D01*
X111621193Y-144097427D01*
X111655978Y-144019762D01*
X111819894Y-143963532D01*
X112234812Y-143955993D01*
X112236000Y-145654000D01*
G37*
%TD.AperFunction*%
X103773838Y-143992800D02*
X103849600Y-144025457D01*
X103914812Y-144075993D01*
X103970945Y-144105162D01*
X103994212Y-144101213D01*
X103887342Y-144476786D01*
X103725005Y-144456819D01*
X103638262Y-144491424D01*
X103565305Y-144549724D01*
X103507768Y-144629687D01*
X103471992Y-144721471D01*
X103453149Y-144832124D01*
X103451540Y-144944358D01*
X103506944Y-145133933D01*
X103559461Y-145204894D01*
X103628605Y-145259781D01*
X103709021Y-145294232D01*
X103961890Y-145700053D01*
X103841856Y-145792630D01*
X103743300Y-145829903D01*
X103491924Y-145849047D01*
X103362022Y-145829095D01*
X103131827Y-145735953D01*
X103040390Y-145661571D01*
X102907967Y-145489973D01*
X102823407Y-145290393D01*
X102776451Y-145044509D01*
X102771223Y-144794237D01*
X102786000Y-144674000D01*
X102836000Y-144424000D01*
X102884136Y-144330558D01*
X102989688Y-144169737D01*
X103141953Y-144052171D01*
X103341125Y-143979944D01*
X103566959Y-143960296D01*
X103773838Y-143992800D01*
%TA.AperFunction,EtchedComponent*%
G36*
X103773838Y-143992800D02*
G01*
X103849600Y-144025457D01*
X103914812Y-144075993D01*
X103970945Y-144105162D01*
X103994212Y-144101213D01*
X103887342Y-144476786D01*
X103725005Y-144456819D01*
X103638262Y-144491424D01*
X103565305Y-144549724D01*
X103507768Y-144629687D01*
X103471992Y-144721471D01*
X103453149Y-144832124D01*
X103451540Y-144944358D01*
X103506944Y-145133933D01*
X103559461Y-145204894D01*
X103628605Y-145259781D01*
X103709021Y-145294232D01*
X103961890Y-145700053D01*
X103841856Y-145792630D01*
X103743300Y-145829903D01*
X103491924Y-145849047D01*
X103362022Y-145829095D01*
X103131827Y-145735953D01*
X103040390Y-145661571D01*
X102907967Y-145489973D01*
X102823407Y-145290393D01*
X102776451Y-145044509D01*
X102771223Y-144794237D01*
X102786000Y-144674000D01*
X102836000Y-144424000D01*
X102884136Y-144330558D01*
X102989688Y-144169737D01*
X103141953Y-144052171D01*
X103341125Y-143979944D01*
X103566959Y-143960296D01*
X103773838Y-143992800D01*
G37*
%TD.AperFunction*%
X103994212Y-144101213D02*
X104009812Y-144083493D01*
X104025396Y-144030294D01*
X104032695Y-143875548D01*
X104038598Y-143641800D01*
X104042385Y-143507607D01*
X104080645Y-143410993D01*
X104165806Y-143366172D01*
X104734812Y-143355993D01*
X103994212Y-144101213D01*
%TA.AperFunction,EtchedComponent*%
G36*
X103994212Y-144101213D02*
G01*
X104009812Y-144083493D01*
X104025396Y-144030294D01*
X104032695Y-143875548D01*
X104038598Y-143641800D01*
X104042385Y-143507607D01*
X104080645Y-143410993D01*
X104165806Y-143366172D01*
X104734812Y-143355993D01*
X103994212Y-144101213D01*
G37*
%TD.AperFunction*%
X122834812Y-145855993D02*
X122546831Y-145855993D01*
X122460344Y-145851279D01*
X122374882Y-145837196D01*
X122326620Y-145815060D01*
X122291769Y-145775000D01*
X122248146Y-145627751D01*
X122202851Y-145112383D01*
X122166499Y-144840442D01*
X122134490Y-144714299D01*
X122081415Y-144595472D01*
X122028448Y-144530577D01*
X121956143Y-144488282D01*
X121873724Y-144474033D01*
X121791534Y-144489576D01*
X121748210Y-144515255D01*
X121715823Y-144553823D01*
X121687178Y-144612896D01*
X121668113Y-144675718D01*
X121647689Y-144800571D01*
X121640857Y-144926899D01*
X121637835Y-145064877D01*
X121636000Y-145294000D01*
X121634812Y-145855993D01*
X120934812Y-145855993D01*
X120934812Y-145212503D01*
X120941901Y-144947535D01*
X120952525Y-144815522D01*
X120993944Y-144454674D01*
X121031275Y-144315296D01*
X121090145Y-144204426D01*
X121174588Y-144111542D01*
X121281352Y-144039732D01*
X121401774Y-143994413D01*
X121538963Y-143975221D01*
X121677141Y-143985020D01*
X121954215Y-144085650D01*
X122032623Y-144128397D01*
X122146384Y-144184945D01*
X122183844Y-144191040D01*
X122221015Y-144168068D01*
X122240109Y-144068688D01*
X122311412Y-143993105D01*
X122404791Y-143964863D01*
X122469650Y-143958213D01*
X122534812Y-143955993D01*
X122834812Y-143955993D01*
X122834812Y-145855993D01*
%TA.AperFunction,EtchedComponent*%
G36*
X122834812Y-145855993D02*
G01*
X122546831Y-145855993D01*
X122460344Y-145851279D01*
X122374882Y-145837196D01*
X122326620Y-145815060D01*
X122291769Y-145775000D01*
X122248146Y-145627751D01*
X122202851Y-145112383D01*
X122166499Y-144840442D01*
X122134490Y-144714299D01*
X122081415Y-144595472D01*
X122028448Y-144530577D01*
X121956143Y-144488282D01*
X121873724Y-144474033D01*
X121791534Y-144489576D01*
X121748210Y-144515255D01*
X121715823Y-144553823D01*
X121687178Y-144612896D01*
X121668113Y-144675718D01*
X121647689Y-144800571D01*
X121640857Y-144926899D01*
X121637835Y-145064877D01*
X121636000Y-145294000D01*
X121634812Y-145855993D01*
X120934812Y-145855993D01*
X120934812Y-145212503D01*
X120941901Y-144947535D01*
X120952525Y-144815522D01*
X120993944Y-144454674D01*
X121031275Y-144315296D01*
X121090145Y-144204426D01*
X121174588Y-144111542D01*
X121281352Y-144039732D01*
X121401774Y-143994413D01*
X121538963Y-143975221D01*
X121677141Y-143985020D01*
X121954215Y-144085650D01*
X122032623Y-144128397D01*
X122146384Y-144184945D01*
X122183844Y-144191040D01*
X122221015Y-144168068D01*
X122240109Y-144068688D01*
X122311412Y-143993105D01*
X122404791Y-143964863D01*
X122469650Y-143958213D01*
X122534812Y-143955993D01*
X122834812Y-143955993D01*
X122834812Y-145855993D01*
G37*
%TD.AperFunction*%
X117569321Y-143385180D02*
X117796000Y-143454000D01*
X118024177Y-143588880D01*
X118202361Y-143785112D01*
X118343038Y-144052121D01*
X118426424Y-144342176D01*
X118450913Y-144652338D01*
X118414108Y-144961280D01*
X118317688Y-145229330D01*
X118156568Y-145464247D01*
X117946589Y-145646179D01*
X117697490Y-145769221D01*
X117401501Y-145839637D01*
X117097473Y-145851286D01*
X116808644Y-145804160D01*
X116535435Y-145699279D01*
X116323041Y-145544037D01*
X116171220Y-145329184D01*
X116100966Y-145185571D01*
X116036208Y-145035170D01*
X116066675Y-144974556D01*
X116634864Y-144765415D01*
X116663603Y-144764522D01*
X116700168Y-144799550D01*
X116757315Y-144903778D01*
X116825619Y-145032578D01*
X116921949Y-145150842D01*
X117056622Y-145222459D01*
X117214503Y-145239558D01*
X117368169Y-145199465D01*
X117519461Y-145099562D01*
X117635411Y-144960184D01*
X117709495Y-144789931D01*
X117734812Y-144605993D01*
X117711581Y-144433098D01*
X117643537Y-144272466D01*
X117535294Y-144134803D01*
X117394867Y-144030169D01*
X117246688Y-143975460D01*
X117088891Y-143968514D01*
X116948997Y-144012174D01*
X116835614Y-144105026D01*
X116764894Y-144165673D01*
X116624224Y-144208649D01*
X116494123Y-144200324D01*
X116322118Y-144157825D01*
X116188507Y-144115349D01*
X116142299Y-144055540D01*
X116160202Y-143940455D01*
X116182768Y-143862432D01*
X116263379Y-143709851D01*
X116392262Y-143595101D01*
X116599856Y-143488725D01*
X116821042Y-143414646D01*
X117075574Y-143368531D01*
X117334023Y-143357722D01*
X117569321Y-143385180D01*
%TA.AperFunction,EtchedComponent*%
G36*
X117569321Y-143385180D02*
G01*
X117796000Y-143454000D01*
X118024177Y-143588880D01*
X118202361Y-143785112D01*
X118343038Y-144052121D01*
X118426424Y-144342176D01*
X118450913Y-144652338D01*
X118414108Y-144961280D01*
X118317688Y-145229330D01*
X118156568Y-145464247D01*
X117946589Y-145646179D01*
X117697490Y-145769221D01*
X117401501Y-145839637D01*
X117097473Y-145851286D01*
X116808644Y-145804160D01*
X116535435Y-145699279D01*
X116323041Y-145544037D01*
X116171220Y-145329184D01*
X116100966Y-145185571D01*
X116036208Y-145035170D01*
X116066675Y-144974556D01*
X116634864Y-144765415D01*
X116663603Y-144764522D01*
X116700168Y-144799550D01*
X116757315Y-144903778D01*
X116825619Y-145032578D01*
X116921949Y-145150842D01*
X117056622Y-145222459D01*
X117214503Y-145239558D01*
X117368169Y-145199465D01*
X117519461Y-145099562D01*
X117635411Y-144960184D01*
X117709495Y-144789931D01*
X117734812Y-144605993D01*
X117711581Y-144433098D01*
X117643537Y-144272466D01*
X117535294Y-144134803D01*
X117394867Y-144030169D01*
X117246688Y-143975460D01*
X117088891Y-143968514D01*
X116948997Y-144012174D01*
X116835614Y-144105026D01*
X116764894Y-144165673D01*
X116624224Y-144208649D01*
X116494123Y-144200324D01*
X116322118Y-144157825D01*
X116188507Y-144115349D01*
X116142299Y-144055540D01*
X116160202Y-143940455D01*
X116182768Y-143862432D01*
X116263379Y-143709851D01*
X116392262Y-143595101D01*
X116599856Y-143488725D01*
X116821042Y-143414646D01*
X117075574Y-143368531D01*
X117334023Y-143357722D01*
X117569321Y-143385180D01*
G37*
%TD.AperFunction*%
X119078721Y-143959917D02*
X119185970Y-143971670D01*
X119243357Y-143990961D01*
X119290352Y-144029130D01*
X119334331Y-144095196D01*
X119360982Y-144169954D01*
X119402268Y-144337973D01*
X119523650Y-144805620D01*
X119551420Y-144894430D01*
X119604699Y-145033745D01*
X119617924Y-145049925D01*
X119637918Y-145055993D01*
X119659124Y-145049501D01*
X119673068Y-145032255D01*
X119730989Y-144901774D01*
X119793756Y-144732214D01*
X119854662Y-144530993D01*
X119953037Y-144209154D01*
X119985255Y-144138443D01*
X120031606Y-144076075D01*
X120083839Y-144034209D01*
X120285212Y-143984081D01*
X120426059Y-143971100D01*
X120508326Y-143965686D01*
X120626905Y-143963789D01*
X120731248Y-143971353D01*
X120734812Y-143980524D01*
X120312816Y-145073399D01*
X120246586Y-145247384D01*
X120194916Y-145405100D01*
X120106874Y-145694659D01*
X120070503Y-145826503D01*
X120066033Y-145873095D01*
X120091823Y-145947796D01*
X120150843Y-145995852D01*
X120236537Y-146033370D01*
X120285235Y-146045822D01*
X120456040Y-146058348D01*
X120560406Y-146076908D01*
X120592188Y-146099548D01*
X120621681Y-146164813D01*
X120622098Y-146223024D01*
X120616767Y-146280993D01*
X120580656Y-146396709D01*
X120513249Y-146468561D01*
X120442056Y-146499835D01*
X120365648Y-146514265D01*
X120272834Y-146524998D01*
X120006737Y-146533535D01*
X119836431Y-146501474D01*
X119703757Y-146442634D01*
X119593424Y-146348339D01*
X119456072Y-146159341D01*
X119354913Y-145948741D01*
X118730983Y-144319659D01*
X118697955Y-144206866D01*
X118679934Y-144090727D01*
X118695880Y-144028442D01*
X118747410Y-143989984D01*
X118857871Y-143964541D01*
X118970902Y-143955993D01*
X119078721Y-143959917D01*
%TA.AperFunction,EtchedComponent*%
G36*
X119078721Y-143959917D02*
G01*
X119185970Y-143971670D01*
X119243357Y-143990961D01*
X119290352Y-144029130D01*
X119334331Y-144095196D01*
X119360982Y-144169954D01*
X119402268Y-144337973D01*
X119523650Y-144805620D01*
X119551420Y-144894430D01*
X119604699Y-145033745D01*
X119617924Y-145049925D01*
X119637918Y-145055993D01*
X119659124Y-145049501D01*
X119673068Y-145032255D01*
X119730989Y-144901774D01*
X119793756Y-144732214D01*
X119854662Y-144530993D01*
X119953037Y-144209154D01*
X119985255Y-144138443D01*
X120031606Y-144076075D01*
X120083839Y-144034209D01*
X120285212Y-143984081D01*
X120426059Y-143971100D01*
X120508326Y-143965686D01*
X120626905Y-143963789D01*
X120731248Y-143971353D01*
X120734812Y-143980524D01*
X120312816Y-145073399D01*
X120246586Y-145247384D01*
X120194916Y-145405100D01*
X120106874Y-145694659D01*
X120070503Y-145826503D01*
X120066033Y-145873095D01*
X120091823Y-145947796D01*
X120150843Y-145995852D01*
X120236537Y-146033370D01*
X120285235Y-146045822D01*
X120456040Y-146058348D01*
X120560406Y-146076908D01*
X120592188Y-146099548D01*
X120621681Y-146164813D01*
X120622098Y-146223024D01*
X120616767Y-146280993D01*
X120580656Y-146396709D01*
X120513249Y-146468561D01*
X120442056Y-146499835D01*
X120365648Y-146514265D01*
X120272834Y-146524998D01*
X120006737Y-146533535D01*
X119836431Y-146501474D01*
X119703757Y-146442634D01*
X119593424Y-146348339D01*
X119456072Y-146159341D01*
X119354913Y-145948741D01*
X118730983Y-144319659D01*
X118697955Y-144206866D01*
X118679934Y-144090727D01*
X118695880Y-144028442D01*
X118747410Y-143989984D01*
X118857871Y-143964541D01*
X118970902Y-143955993D01*
X119078721Y-143959917D01*
G37*
%TD.AperFunction*%
D12*
%TA.AperFunction,EtchedComponent*%
%TO.C,G\u002A\u002A\u002A*%
G36*
X110835225Y-83669191D02*
G01*
X111225774Y-84059740D01*
X110840646Y-84445290D01*
X110743775Y-84541920D01*
X110649131Y-84635592D01*
X110567917Y-84715197D01*
X110504115Y-84776859D01*
X110461707Y-84816699D01*
X110444677Y-84830841D01*
X110429633Y-84818501D01*
X110388808Y-84780268D01*
X110326321Y-84719953D01*
X110246154Y-84641434D01*
X110152289Y-84548587D01*
X110048708Y-84445290D01*
X109663579Y-84059740D01*
X110054128Y-83669191D01*
X110444677Y-83278642D01*
X110835225Y-83669191D01*
G37*
%TD.AperFunction*%
%TA.AperFunction,EtchedComponent*%
G36*
X106952962Y-84218195D02*
G01*
X107012788Y-84384727D01*
X107130174Y-84656382D01*
X107260097Y-84893409D01*
X107401616Y-85094547D01*
X107553792Y-85258537D01*
X107715685Y-85384116D01*
X107886356Y-85470027D01*
X107916657Y-85479077D01*
X107996489Y-85494470D01*
X108098933Y-85507422D01*
X108211773Y-85516200D01*
X108448024Y-85528872D01*
X108633717Y-85851383D01*
X108687239Y-85945026D01*
X108740061Y-86039000D01*
X108781920Y-86115205D01*
X108809482Y-86167559D01*
X108819410Y-86189981D01*
X108812654Y-86193248D01*
X108772106Y-86198329D01*
X108701063Y-86202393D01*
X108606604Y-86205090D01*
X108495806Y-86206067D01*
X108172203Y-86206067D01*
X108178046Y-87763614D01*
X108179056Y-88029567D01*
X108180108Y-88286071D01*
X108181182Y-88506491D01*
X108182369Y-88693760D01*
X108183761Y-88850811D01*
X108185446Y-88980576D01*
X108187518Y-89085988D01*
X108190065Y-89169980D01*
X108193180Y-89235484D01*
X108196952Y-89285434D01*
X108201474Y-89322762D01*
X108206835Y-89350400D01*
X108213126Y-89371282D01*
X108220439Y-89388341D01*
X108228864Y-89404508D01*
X108261787Y-89457864D01*
X108349332Y-89557893D01*
X108450475Y-89629877D01*
X108508694Y-89659932D01*
X108417585Y-89713326D01*
X108319765Y-89792653D01*
X108242377Y-89900266D01*
X108195128Y-90023485D01*
X108193591Y-90033321D01*
X108189824Y-90086905D01*
X108186397Y-90179408D01*
X108183334Y-90308844D01*
X108180661Y-90473224D01*
X108178401Y-90670562D01*
X108176578Y-90898870D01*
X108175218Y-91156162D01*
X108174344Y-91440449D01*
X108173980Y-91749745D01*
X108173471Y-93386531D01*
X107742630Y-93787538D01*
X107311790Y-94188545D01*
X107277386Y-94097910D01*
X107247290Y-94032073D01*
X107177868Y-93916154D01*
X107082976Y-93783702D01*
X106967059Y-93640128D01*
X106834561Y-93490847D01*
X106689927Y-93341272D01*
X106537600Y-93196816D01*
X106483754Y-93146978D01*
X106402109Y-93067371D01*
X106327474Y-92990122D01*
X106262576Y-92918696D01*
X106210143Y-92856560D01*
X106172904Y-92807181D01*
X106153586Y-92774024D01*
X106154918Y-92760556D01*
X106179628Y-92770243D01*
X106230444Y-92806551D01*
X106299366Y-92857410D01*
X106369454Y-92896819D01*
X106436950Y-92916253D01*
X106516137Y-92921454D01*
X106532152Y-92921097D01*
X106642284Y-92901731D01*
X106745371Y-92857661D01*
X106824867Y-92795630D01*
X106826684Y-92793536D01*
X106833773Y-92782700D01*
X106839814Y-92766544D01*
X106844873Y-92742039D01*
X106849018Y-92706155D01*
X106852314Y-92655863D01*
X106854829Y-92588133D01*
X106856628Y-92499937D01*
X106857778Y-92388244D01*
X106858346Y-92250025D01*
X106858398Y-92082251D01*
X106858000Y-91881892D01*
X106857219Y-91645920D01*
X106856122Y-91371304D01*
X106850337Y-89987937D01*
X106790861Y-89886750D01*
X106733692Y-89809469D01*
X106627929Y-89721251D01*
X106524473Y-89656939D01*
X106595168Y-89620671D01*
X106660367Y-89577358D01*
X106737556Y-89503287D01*
X106800898Y-89418954D01*
X106838416Y-89338263D01*
X106840403Y-89327806D01*
X106845101Y-89272011D01*
X106849184Y-89174805D01*
X106852651Y-89036374D01*
X106855498Y-88856905D01*
X106857723Y-88636583D01*
X106859323Y-88375593D01*
X106860296Y-88074124D01*
X106860639Y-87732359D01*
X106860755Y-86206067D01*
X106708307Y-86206067D01*
X106555859Y-86206067D01*
X106282673Y-85867470D01*
X106009487Y-85528872D01*
X106435121Y-85523240D01*
X106860755Y-85517608D01*
X106861024Y-84731444D01*
X106861292Y-83945279D01*
X106952962Y-84218195D01*
G37*
%TD.AperFunction*%
%TA.AperFunction,EtchedComponent*%
G36*
X110875684Y-85508401D02*
G01*
X110901173Y-85546235D01*
X110945271Y-85612062D01*
X111005209Y-85701741D01*
X111078222Y-85811131D01*
X111161542Y-85936090D01*
X111252402Y-86072478D01*
X111628268Y-86636921D01*
X111578013Y-86701135D01*
X111533263Y-86747758D01*
X111443903Y-86815237D01*
X111334780Y-86877924D01*
X111218190Y-86928062D01*
X111111453Y-86965971D01*
X111111453Y-88107771D01*
X111111446Y-88275760D01*
X111111559Y-88507622D01*
X111112114Y-88703489D01*
X111113445Y-88866832D01*
X111115885Y-89001120D01*
X111119767Y-89109823D01*
X111125425Y-89196412D01*
X111133192Y-89264355D01*
X111143400Y-89317123D01*
X111156384Y-89358185D01*
X111172477Y-89391011D01*
X111192011Y-89419071D01*
X111215321Y-89445835D01*
X111242739Y-89474772D01*
X111256864Y-89488805D01*
X111322178Y-89541654D01*
X111387734Y-89580913D01*
X111466066Y-89616790D01*
X111381498Y-89654924D01*
X111375494Y-89657712D01*
X111281872Y-89720387D01*
X111198671Y-89808646D01*
X111140101Y-89907615D01*
X111138050Y-89913353D01*
X111132956Y-89936914D01*
X111128511Y-89974168D01*
X111124674Y-90027659D01*
X111121401Y-90099929D01*
X111118649Y-90193524D01*
X111116374Y-90310985D01*
X111114534Y-90454858D01*
X111113085Y-90627686D01*
X111111983Y-90832012D01*
X111111187Y-91070380D01*
X111110652Y-91345334D01*
X111110335Y-91659417D01*
X111109217Y-93342654D01*
X110688391Y-93742728D01*
X110674494Y-93755934D01*
X110565705Y-93858938D01*
X110467267Y-93951493D01*
X110383136Y-94029930D01*
X110317265Y-94090579D01*
X110273609Y-94129771D01*
X110256123Y-94143836D01*
X110253726Y-94142893D01*
X110237968Y-94118544D01*
X110218096Y-94071351D01*
X110201334Y-94030446D01*
X110153397Y-93941437D01*
X110083781Y-93838666D01*
X109990413Y-93719559D01*
X109871219Y-93581541D01*
X109724123Y-93422036D01*
X109547051Y-93238470D01*
X109543132Y-93234475D01*
X109396872Y-93084228D01*
X109277197Y-92958886D01*
X109184596Y-92859026D01*
X109119552Y-92785223D01*
X109082554Y-92738053D01*
X109074086Y-92718092D01*
X109094636Y-92725916D01*
X109144690Y-92762100D01*
X109161332Y-92775007D01*
X109222126Y-92820072D01*
X109267670Y-92847117D01*
X109311821Y-92863145D01*
X109368432Y-92875156D01*
X109424247Y-92880245D01*
X109532354Y-92868158D01*
X109635541Y-92832791D01*
X109716601Y-92778902D01*
X109777901Y-92720173D01*
X109777784Y-91364474D01*
X109777450Y-91061641D01*
X109776407Y-90777058D01*
X109774652Y-90533703D01*
X109772182Y-90331350D01*
X109768993Y-90169770D01*
X109765081Y-90048738D01*
X109760444Y-89968026D01*
X109755076Y-89927406D01*
X109729641Y-89873164D01*
X109684106Y-89807892D01*
X109627056Y-89741021D01*
X109567001Y-89681715D01*
X109512452Y-89639140D01*
X109471918Y-89622460D01*
X109461738Y-89621456D01*
X109460241Y-89611288D01*
X109496605Y-89588775D01*
X109590651Y-89524440D01*
X109677420Y-89436473D01*
X109738314Y-89341998D01*
X109739156Y-89340168D01*
X109746794Y-89321373D01*
X109753334Y-89298885D01*
X109758862Y-89269539D01*
X109763465Y-89230169D01*
X109767229Y-89177612D01*
X109770239Y-89108701D01*
X109772582Y-89020272D01*
X109774344Y-88909160D01*
X109775610Y-88772200D01*
X109776467Y-88606226D01*
X109777001Y-88408073D01*
X109777298Y-88174578D01*
X109777443Y-87902574D01*
X109777901Y-86546497D01*
X109723429Y-86517344D01*
X109717003Y-86513566D01*
X109670874Y-86477206D01*
X109611948Y-86421367D01*
X109551012Y-86357292D01*
X109498855Y-86296221D01*
X109466268Y-86249396D01*
X109462396Y-86239552D01*
X109467939Y-86227474D01*
X109494743Y-86220368D01*
X109549610Y-86216913D01*
X109639339Y-86215787D01*
X109644743Y-86215764D01*
X109745420Y-86213103D01*
X109821565Y-86204306D01*
X109889472Y-86186406D01*
X109965431Y-86156439D01*
X110083913Y-86098122D01*
X110261573Y-85989272D01*
X110451696Y-85850389D01*
X110649303Y-85684906D01*
X110675153Y-85662002D01*
X110750198Y-85596617D01*
X110811604Y-85544759D01*
X110853607Y-85511228D01*
X110870442Y-85500822D01*
X110875684Y-85508401D01*
G37*
%TD.AperFunction*%
%TA.AperFunction,EtchedComponent*%
G36*
X94321726Y-88203688D02*
G01*
X94327450Y-89345307D01*
X94390708Y-89447836D01*
X94449755Y-89524977D01*
X94562645Y-89615543D01*
X94671323Y-89680721D01*
X94606011Y-89707774D01*
X94543402Y-89739855D01*
X94442182Y-89826730D01*
X94366349Y-89945412D01*
X94317438Y-90050447D01*
X94317235Y-91492995D01*
X94317031Y-92935544D01*
X94374332Y-92949316D01*
X94504813Y-92999651D01*
X94623731Y-93085425D01*
X94720321Y-93199404D01*
X94789662Y-93335721D01*
X94826830Y-93488511D01*
X94839564Y-93592695D01*
X94798954Y-93519767D01*
X94767864Y-93468659D01*
X94696223Y-93385706D01*
X94612548Y-93336540D01*
X94509179Y-93315767D01*
X94396328Y-93317778D01*
X94279739Y-93339423D01*
X94277012Y-93340249D01*
X94230067Y-93356189D01*
X94151537Y-93384567D01*
X94045832Y-93423686D01*
X93917364Y-93471846D01*
X93770541Y-93527347D01*
X93609773Y-93588491D01*
X93439472Y-93653579D01*
X93264047Y-93720910D01*
X93087908Y-93788787D01*
X92915465Y-93855510D01*
X92751128Y-93919380D01*
X92599308Y-93978697D01*
X92464414Y-94031763D01*
X92350857Y-94076879D01*
X92263046Y-94112345D01*
X92205393Y-94136462D01*
X92182306Y-94147531D01*
X92156950Y-94162429D01*
X92123410Y-94161789D01*
X92108335Y-94137849D01*
X92107708Y-94130648D01*
X92092011Y-94080784D01*
X92058316Y-94005401D01*
X92010789Y-93911903D01*
X91953592Y-93807696D01*
X91890888Y-93700184D01*
X91826843Y-93596772D01*
X91765618Y-93504865D01*
X91711378Y-93431868D01*
X91633746Y-93341345D01*
X91428675Y-93144290D01*
X91199837Y-92976294D01*
X90952588Y-92840495D01*
X90692285Y-92740029D01*
X90424283Y-92678034D01*
X90264283Y-92653320D01*
X90251592Y-91883221D01*
X90250405Y-91812732D01*
X90246370Y-91603183D01*
X90241813Y-91429431D01*
X90236204Y-91286956D01*
X90229012Y-91171235D01*
X90219709Y-91077750D01*
X90207764Y-91001978D01*
X90192648Y-90939400D01*
X90173831Y-90885494D01*
X90150784Y-90835740D01*
X90122975Y-90785617D01*
X90120847Y-90782042D01*
X90055158Y-90699440D01*
X89968535Y-90624924D01*
X89878803Y-90573944D01*
X89873811Y-90570360D01*
X89893019Y-90568784D01*
X89941313Y-90573315D01*
X90042375Y-90597494D01*
X90160102Y-90644707D01*
X90275032Y-90706919D01*
X90371015Y-90776491D01*
X90398820Y-90803695D01*
X90454315Y-90864996D01*
X90523987Y-90947126D01*
X90601656Y-91042752D01*
X90681141Y-91144537D01*
X90734840Y-91213508D01*
X90818912Y-91317242D01*
X90899591Y-91412229D01*
X90969785Y-91490190D01*
X91022398Y-91542845D01*
X91062638Y-91577211D01*
X91215232Y-91682141D01*
X91381116Y-91762486D01*
X91549910Y-91813887D01*
X91711234Y-91831990D01*
X91805458Y-91831990D01*
X91727919Y-91884679D01*
X91726511Y-91885637D01*
X91680191Y-91919536D01*
X91644507Y-91954123D01*
X91617967Y-91995254D01*
X91599082Y-92048782D01*
X91586361Y-92120563D01*
X91578314Y-92216452D01*
X91573451Y-92342305D01*
X91570280Y-92503975D01*
X91570271Y-92504579D01*
X91568454Y-92654882D01*
X91568425Y-92767967D01*
X91570389Y-92848244D01*
X91574549Y-92900125D01*
X91581111Y-92928019D01*
X91590277Y-92936337D01*
X91591076Y-92936279D01*
X91620124Y-92927830D01*
X91682001Y-92906515D01*
X91771195Y-92874430D01*
X91882191Y-92833666D01*
X92009476Y-92786318D01*
X92147538Y-92734478D01*
X92290864Y-92680241D01*
X92433940Y-92625699D01*
X92571254Y-92572945D01*
X92697292Y-92524073D01*
X92806541Y-92481175D01*
X92893488Y-92446347D01*
X92952621Y-92421679D01*
X92978425Y-92409267D01*
X92980554Y-92406582D01*
X92985763Y-92388149D01*
X92990120Y-92351420D01*
X92993668Y-92293796D01*
X92996447Y-92212681D01*
X92998497Y-92105477D01*
X92999861Y-91969587D01*
X93000578Y-91802416D01*
X93000690Y-91601364D01*
X93000238Y-91363836D01*
X92999262Y-91087234D01*
X92993897Y-89785247D01*
X92845552Y-89747576D01*
X92795197Y-89733623D01*
X92584188Y-89650458D01*
X92373511Y-89528486D01*
X92166508Y-89369879D01*
X91966522Y-89176806D01*
X91954304Y-89163562D01*
X91894802Y-89097043D01*
X91816697Y-89007551D01*
X91726200Y-88902295D01*
X91629520Y-88788485D01*
X91532865Y-88673329D01*
X91411974Y-88529984D01*
X91249584Y-88344170D01*
X91104594Y-88187826D01*
X90973619Y-88057822D01*
X90853274Y-87951029D01*
X90740175Y-87864315D01*
X90630938Y-87794552D01*
X90522177Y-87738608D01*
X90514875Y-87735308D01*
X90404294Y-87692014D01*
X90286919Y-87656257D01*
X90177336Y-87631939D01*
X90090130Y-87622966D01*
X90018498Y-87622966D01*
X90056588Y-87597653D01*
X91567307Y-87597653D01*
X91567708Y-87650108D01*
X91576720Y-87862890D01*
X91599702Y-88047668D01*
X91639589Y-88214539D01*
X91699311Y-88373600D01*
X91781803Y-88534948D01*
X91889995Y-88708680D01*
X91917006Y-88748242D01*
X92050892Y-88921724D01*
X92203075Y-89088150D01*
X92366516Y-89241311D01*
X92534179Y-89374999D01*
X92699026Y-89483007D01*
X92854021Y-89559125D01*
X92900901Y-89576869D01*
X92955065Y-89595307D01*
X92984250Y-89602457D01*
X92987222Y-89592193D01*
X92991070Y-89543051D01*
X92994468Y-89454586D01*
X92997396Y-89328175D01*
X92999836Y-89165195D01*
X93001767Y-88967024D01*
X93003170Y-88735040D01*
X93004026Y-88470619D01*
X93004316Y-88175140D01*
X93004259Y-88026074D01*
X93003937Y-87793751D01*
X93003352Y-87576138D01*
X93002527Y-87376604D01*
X93001489Y-87198520D01*
X93000260Y-87045257D01*
X92998866Y-86920185D01*
X92997331Y-86826675D01*
X92995680Y-86768097D01*
X92993937Y-86747822D01*
X92991503Y-86748422D01*
X92959821Y-86759684D01*
X92896275Y-86783599D01*
X92806237Y-86818064D01*
X92695077Y-86860979D01*
X92568166Y-86910239D01*
X92430874Y-86963742D01*
X92288571Y-87019386D01*
X92146628Y-87075069D01*
X92010417Y-87128688D01*
X91885306Y-87178140D01*
X91776668Y-87221323D01*
X91689872Y-87256135D01*
X91630289Y-87280473D01*
X91603290Y-87292234D01*
X91594124Y-87298428D01*
X91582050Y-87315882D01*
X91574136Y-87347708D01*
X91569576Y-87400731D01*
X91567568Y-87481772D01*
X91567307Y-87597653D01*
X90056588Y-87597653D01*
X90089298Y-87575915D01*
X90109228Y-87560563D01*
X90163325Y-87502836D01*
X90206982Y-87436061D01*
X90217845Y-87413574D01*
X90233814Y-87371933D01*
X90244274Y-87324765D01*
X90250353Y-87263036D01*
X90253174Y-87177714D01*
X90253865Y-87059764D01*
X90253865Y-86776270D01*
X90143230Y-86741395D01*
X90058403Y-86706242D01*
X89939051Y-86622638D01*
X89843108Y-86510508D01*
X89775444Y-86376095D01*
X89740927Y-86225641D01*
X89729100Y-86112301D01*
X89775716Y-86202561D01*
X89838802Y-86289077D01*
X89932429Y-86361967D01*
X90039340Y-86403558D01*
X90070304Y-86406574D01*
X90146405Y-86401553D01*
X90233759Y-86384628D01*
X90243350Y-86381914D01*
X90296052Y-86364473D01*
X90379854Y-86334744D01*
X90490374Y-86294407D01*
X90623228Y-86245146D01*
X90774034Y-86188642D01*
X90938409Y-86126576D01*
X91111969Y-86060630D01*
X91290333Y-85992487D01*
X91469118Y-85923827D01*
X91643940Y-85856333D01*
X91810416Y-85791686D01*
X91964165Y-85731569D01*
X92100803Y-85677662D01*
X92215947Y-85631648D01*
X92305215Y-85595208D01*
X92364223Y-85570025D01*
X92388590Y-85557779D01*
X92414471Y-85541528D01*
X92448806Y-85549415D01*
X92472066Y-85595165D01*
X92475889Y-85607757D01*
X92497208Y-85662159D01*
X92530356Y-85736720D01*
X92569968Y-85819160D01*
X92595756Y-85869606D01*
X92758633Y-86140535D01*
X92945653Y-86377530D01*
X93156687Y-86580498D01*
X93391607Y-86749341D01*
X93650281Y-86883965D01*
X93932582Y-86984274D01*
X94238379Y-87050172D01*
X94316002Y-87062069D01*
X94321583Y-88175140D01*
X94321726Y-88203688D01*
G37*
%TD.AperFunction*%
%TA.AperFunction,EtchedComponent*%
G36*
X105245907Y-92057041D02*
G01*
X105245907Y-92917613D01*
X105370928Y-92967812D01*
X105430008Y-92995089D01*
X105554364Y-93083226D01*
X105649593Y-93200838D01*
X105714408Y-93346505D01*
X105734620Y-93417897D01*
X105750000Y-93484787D01*
X105755573Y-93527171D01*
X105753328Y-93550543D01*
X105743744Y-93547509D01*
X105721785Y-93509348D01*
X105693905Y-93462287D01*
X105611304Y-93368746D01*
X105512841Y-93310573D01*
X105402588Y-93290562D01*
X105354520Y-93295517D01*
X105280084Y-93309868D01*
X105198761Y-93330325D01*
X105196858Y-93330871D01*
X105147588Y-93346997D01*
X105066904Y-93375570D01*
X104959208Y-93414896D01*
X104828901Y-93463281D01*
X104680384Y-93519031D01*
X104518060Y-93580452D01*
X104346329Y-93645850D01*
X104169594Y-93713530D01*
X103992255Y-93781799D01*
X103818714Y-93848961D01*
X103653373Y-93913324D01*
X103500633Y-93973193D01*
X103364896Y-94026874D01*
X103250563Y-94072673D01*
X103162036Y-94108895D01*
X103103716Y-94133846D01*
X103080005Y-94145833D01*
X103066191Y-94157840D01*
X103049936Y-94160477D01*
X103033194Y-94141356D01*
X103011533Y-94094620D01*
X102980518Y-94014414D01*
X102957215Y-93956363D01*
X102865871Y-93771175D01*
X102749948Y-93583181D01*
X102617823Y-93406421D01*
X102498437Y-93261820D01*
X102054938Y-93718972D01*
X102010996Y-93764104D01*
X101902447Y-93874102D01*
X101806275Y-93969421D01*
X101725747Y-94046955D01*
X101664126Y-94103597D01*
X101624678Y-94136240D01*
X101610667Y-94141776D01*
X101610188Y-94135996D01*
X101594021Y-94084945D01*
X101558675Y-94011146D01*
X101509185Y-93923607D01*
X101450586Y-93831333D01*
X101387913Y-93743331D01*
X101356524Y-93704912D01*
X101294815Y-93634712D01*
X101213091Y-93545222D01*
X101116602Y-93442104D01*
X101010600Y-93331021D01*
X100900335Y-93217634D01*
X100861484Y-93178017D01*
X100728732Y-93041405D01*
X100625077Y-92932341D01*
X100549720Y-92849813D01*
X100501860Y-92792811D01*
X100480696Y-92760325D01*
X100485428Y-92751343D01*
X100515255Y-92764856D01*
X100569376Y-92799853D01*
X100621986Y-92833797D01*
X100684304Y-92868648D01*
X100728345Y-92887115D01*
X100754000Y-92891983D01*
X100854280Y-92890795D01*
X100963060Y-92865032D01*
X101063798Y-92818099D01*
X101161904Y-92757447D01*
X101167267Y-91417164D01*
X101167527Y-91347696D01*
X101168186Y-91059654D01*
X101168058Y-90802734D01*
X101167160Y-90578444D01*
X101165509Y-90388289D01*
X101163121Y-90233776D01*
X101160012Y-90116412D01*
X101156200Y-90037703D01*
X101151701Y-89999156D01*
X101146978Y-89983090D01*
X101093056Y-89872002D01*
X101011135Y-89775451D01*
X100912147Y-89706778D01*
X100814920Y-89659712D01*
X100895809Y-89623496D01*
X100952938Y-89589809D01*
X101035424Y-89515822D01*
X101065003Y-89477437D01*
X102485038Y-89477437D01*
X102485038Y-91206887D01*
X102485101Y-91363235D01*
X102485493Y-91620762D01*
X102486217Y-91864144D01*
X102487246Y-92090323D01*
X102488553Y-92296239D01*
X102490109Y-92478834D01*
X102491887Y-92635049D01*
X102493859Y-92761825D01*
X102495998Y-92856105D01*
X102498276Y-92914828D01*
X102500665Y-92934936D01*
X102519082Y-92928771D01*
X102572479Y-92909080D01*
X102656175Y-92877532D01*
X102765668Y-92835843D01*
X102896456Y-92785727D01*
X103044036Y-92728899D01*
X103203906Y-92667074D01*
X103891518Y-92400612D01*
X103896970Y-91570235D01*
X103898110Y-91398476D01*
X103899062Y-91211383D01*
X103898896Y-91057340D01*
X103897027Y-90931497D01*
X103892866Y-90829007D01*
X103885829Y-90745021D01*
X103875328Y-90674692D01*
X103860777Y-90613171D01*
X103841589Y-90555610D01*
X103817178Y-90497162D01*
X103786957Y-90432977D01*
X103750340Y-90358209D01*
X103710480Y-90281669D01*
X103588173Y-90089899D01*
X103445758Y-89917878D01*
X103287874Y-89769139D01*
X103119161Y-89647217D01*
X102944256Y-89555645D01*
X102767800Y-89497956D01*
X102594431Y-89477684D01*
X102485038Y-89477437D01*
X101065003Y-89477437D01*
X101104781Y-89425817D01*
X101148140Y-89334529D01*
X101150874Y-89322142D01*
X101156156Y-89274719D01*
X101160633Y-89197578D01*
X101164335Y-89089011D01*
X101167294Y-88947312D01*
X101169541Y-88770773D01*
X101171107Y-88557687D01*
X101172024Y-88306346D01*
X101172322Y-88015043D01*
X101172322Y-86776270D01*
X101061688Y-86741395D01*
X100976861Y-86706242D01*
X100857509Y-86622638D01*
X100761566Y-86510508D01*
X100693901Y-86376095D01*
X100659385Y-86225641D01*
X100647558Y-86112301D01*
X100694174Y-86202561D01*
X100757393Y-86289208D01*
X100850913Y-86361994D01*
X100957591Y-86403513D01*
X100983192Y-86406375D01*
X101061203Y-86401151D01*
X101155540Y-86381207D01*
X101170133Y-86376746D01*
X101228147Y-86356820D01*
X101318109Y-86324409D01*
X101435294Y-86281315D01*
X101574974Y-86229342D01*
X101732423Y-86170292D01*
X101902914Y-86105966D01*
X102081721Y-86038168D01*
X102264115Y-85968700D01*
X102445372Y-85899364D01*
X102620763Y-85831963D01*
X102785563Y-85768298D01*
X102935043Y-85710173D01*
X103064479Y-85659390D01*
X103169142Y-85617751D01*
X103244306Y-85587059D01*
X103285245Y-85569115D01*
X103316302Y-85554335D01*
X103356014Y-85542142D01*
X103376900Y-85554798D01*
X103390524Y-85595165D01*
X103408235Y-85646507D01*
X103445078Y-85729953D01*
X103494694Y-85830182D01*
X103551983Y-85937350D01*
X103611849Y-86041616D01*
X103669192Y-86133138D01*
X103677407Y-86145375D01*
X103819863Y-86327650D01*
X103991568Y-86501823D01*
X104182778Y-86659787D01*
X104383750Y-86793439D01*
X104584739Y-86894673D01*
X104686352Y-86932559D01*
X104838590Y-86979085D01*
X105001368Y-87019755D01*
X105157351Y-87049874D01*
X105235489Y-87062262D01*
X105235832Y-87212384D01*
X105238365Y-87275518D01*
X105263321Y-87400449D01*
X105316628Y-87498900D01*
X105400372Y-87575467D01*
X105470856Y-87622966D01*
X105389637Y-87623274D01*
X105342452Y-87626378D01*
X105260955Y-87637788D01*
X105176626Y-87654651D01*
X105168801Y-87656518D01*
X105045374Y-87693013D01*
X104931246Y-87742438D01*
X104821443Y-87808680D01*
X104710993Y-87895628D01*
X104594922Y-88007171D01*
X104468254Y-88147195D01*
X104326018Y-88319590D01*
X104282507Y-88373427D01*
X104152540Y-88524765D01*
X104035793Y-88643604D01*
X103927727Y-88733388D01*
X103823802Y-88797564D01*
X103719480Y-88839575D01*
X103610222Y-88862866D01*
X103516457Y-88875353D01*
X103578967Y-88840531D01*
X103614314Y-88819059D01*
X103722445Y-88727057D01*
X103801212Y-88615712D01*
X103817538Y-88582297D01*
X103839986Y-88527551D01*
X103858492Y-88466967D01*
X103873521Y-88396066D01*
X103885538Y-88310368D01*
X103895008Y-88205395D01*
X103902396Y-88076666D01*
X103908168Y-87919703D01*
X103912789Y-87730026D01*
X103916722Y-87503155D01*
X103918938Y-87331049D01*
X103920220Y-87172141D01*
X103920579Y-87031738D01*
X103920037Y-86914473D01*
X103918615Y-86824977D01*
X103916334Y-86767883D01*
X103913217Y-86747822D01*
X103911509Y-86748169D01*
X103881561Y-86758513D01*
X103819409Y-86781673D01*
X103730439Y-86815544D01*
X103620033Y-86858017D01*
X103493574Y-86906988D01*
X103356446Y-86960350D01*
X103214031Y-87015995D01*
X103071713Y-87071817D01*
X102934875Y-87125710D01*
X102808900Y-87175568D01*
X102699172Y-87219283D01*
X102611073Y-87254749D01*
X102549987Y-87279860D01*
X102521297Y-87292509D01*
X102520880Y-87292735D01*
X102512403Y-87299608D01*
X102505397Y-87312441D01*
X102499752Y-87334805D01*
X102495353Y-87370271D01*
X102492090Y-87422410D01*
X102489848Y-87494794D01*
X102488517Y-87590994D01*
X102487983Y-87714581D01*
X102488134Y-87869126D01*
X102488858Y-88058200D01*
X102490041Y-88285376D01*
X102495456Y-89258651D01*
X102682987Y-89271588D01*
X102787792Y-89282177D01*
X102905062Y-89304056D01*
X103019997Y-89338459D01*
X103137092Y-89387853D01*
X103260844Y-89454704D01*
X103395750Y-89541480D01*
X103546306Y-89650647D01*
X103717009Y-89784672D01*
X103912355Y-89946021D01*
X104063378Y-90070861D01*
X104258942Y-90224002D01*
X104436714Y-90350755D01*
X104602421Y-90453993D01*
X104761789Y-90536591D01*
X104920541Y-90601423D01*
X105084404Y-90651362D01*
X105259103Y-90689283D01*
X105450363Y-90718060D01*
X105550635Y-90730584D01*
X105464210Y-90824345D01*
X105416622Y-90883718D01*
X105359239Y-90970458D01*
X105311846Y-91057287D01*
X105245907Y-91196469D01*
X105245907Y-91211383D01*
X105245907Y-92057041D01*
G37*
%TD.AperFunction*%
%TA.AperFunction,EtchedComponent*%
G36*
X96706501Y-85545981D02*
G01*
X96733746Y-85582419D01*
X96779421Y-85646962D01*
X96840714Y-85735534D01*
X96914811Y-85844058D01*
X96998900Y-85968457D01*
X97090168Y-86104653D01*
X97097526Y-86115680D01*
X97199815Y-86269346D01*
X97281048Y-86392518D01*
X97343387Y-86488969D01*
X97388996Y-86562474D01*
X97420041Y-86616805D01*
X97438685Y-86655736D01*
X97447092Y-86683040D01*
X97447426Y-86702490D01*
X97441852Y-86717861D01*
X97403760Y-86765286D01*
X97336242Y-86823661D01*
X97250643Y-86883879D01*
X97157364Y-86938652D01*
X97066802Y-86980692D01*
X96942462Y-87028906D01*
X96942462Y-88190661D01*
X96942504Y-88337706D01*
X96942711Y-88545010D01*
X96943077Y-88736786D01*
X96943586Y-88909299D01*
X96944219Y-89058812D01*
X96944961Y-89181593D01*
X96945795Y-89273905D01*
X96946704Y-89332013D01*
X96947671Y-89352183D01*
X96947698Y-89352180D01*
X96968225Y-89344530D01*
X97023120Y-89323347D01*
X97108047Y-89290323D01*
X97218668Y-89247151D01*
X97350647Y-89195523D01*
X97499647Y-89137132D01*
X97661330Y-89073671D01*
X98369779Y-88795393D01*
X98362012Y-87708027D01*
X98354244Y-86620662D01*
X98177209Y-86443627D01*
X98175209Y-86441626D01*
X98107799Y-86372952D01*
X98053813Y-86315646D01*
X98018693Y-86275644D01*
X98007881Y-86258886D01*
X98016822Y-86257395D01*
X98057030Y-86260608D01*
X98116841Y-86270096D01*
X98188347Y-86277931D01*
X98338102Y-86265427D01*
X98503088Y-86218008D01*
X98680623Y-86136997D01*
X98868029Y-86023716D01*
X99062626Y-85879484D01*
X99261732Y-85705624D01*
X99334897Y-85639603D01*
X99396864Y-85588785D01*
X99441359Y-85558013D01*
X99462319Y-85551933D01*
X99463756Y-85553759D01*
X99483075Y-85581451D01*
X99521185Y-85637535D01*
X99574657Y-85716869D01*
X99640060Y-85814309D01*
X99713966Y-85924713D01*
X99792943Y-86042938D01*
X99873563Y-86163841D01*
X99952394Y-86282279D01*
X100026007Y-86393110D01*
X100090971Y-86491190D01*
X100143858Y-86571378D01*
X100181237Y-86628529D01*
X100199677Y-86657502D01*
X100202687Y-86677535D01*
X100181029Y-86721509D01*
X100132175Y-86775372D01*
X100062480Y-86833989D01*
X99978298Y-86892226D01*
X99885982Y-86944948D01*
X99791888Y-86987021D01*
X99692913Y-87024362D01*
X99692913Y-88177971D01*
X99692913Y-88202922D01*
X99692989Y-88447975D01*
X99693264Y-88654867D01*
X99693841Y-88826811D01*
X99694822Y-88967021D01*
X99696308Y-89078709D01*
X99698400Y-89165087D01*
X99701201Y-89229369D01*
X99704811Y-89274768D01*
X99709332Y-89304496D01*
X99714866Y-89321766D01*
X99721514Y-89329790D01*
X99729377Y-89331783D01*
X99758104Y-89335512D01*
X99830765Y-89361581D01*
X99912972Y-89406164D01*
X99991721Y-89461696D01*
X100054008Y-89520613D01*
X100062167Y-89530468D01*
X100125193Y-89629410D01*
X100172661Y-89744429D01*
X100175591Y-89753963D01*
X100202672Y-89850092D01*
X100213384Y-89908414D01*
X100207608Y-89929456D01*
X100185224Y-89913747D01*
X100146112Y-89861816D01*
X100099776Y-89801503D01*
X100017517Y-89730768D01*
X99923233Y-89694737D01*
X99811097Y-89691652D01*
X99675283Y-89719754D01*
X99658101Y-89724970D01*
X99592826Y-89746835D01*
X99504354Y-89778285D01*
X99399613Y-89816671D01*
X99285531Y-89859345D01*
X99169038Y-89903657D01*
X99057061Y-89946958D01*
X98956530Y-89986601D01*
X98874373Y-90019936D01*
X98817519Y-90044314D01*
X98792896Y-90057087D01*
X98794223Y-90064982D01*
X98820552Y-90093977D01*
X98871986Y-90138478D01*
X98942306Y-90193903D01*
X99025294Y-90255672D01*
X99114729Y-90319201D01*
X99204392Y-90379909D01*
X99288064Y-90433214D01*
X99359525Y-90474534D01*
X99365144Y-90477509D01*
X99462868Y-90523448D01*
X99569044Y-90565033D01*
X99661658Y-90593591D01*
X99666067Y-90594667D01*
X99741312Y-90613106D01*
X99801360Y-90627954D01*
X99833561Y-90636083D01*
X99836707Y-90639436D01*
X99841704Y-90658717D01*
X99845973Y-90697180D01*
X99849559Y-90757325D01*
X99852512Y-90841650D01*
X99854880Y-90952654D01*
X99856709Y-91092836D01*
X99858049Y-91264694D01*
X99858946Y-91470729D01*
X99859450Y-91713438D01*
X99859607Y-91995320D01*
X99859607Y-93347654D01*
X99427244Y-93755422D01*
X99404238Y-93777116D01*
X99294849Y-93880180D01*
X99196559Y-93972643D01*
X99113209Y-94050904D01*
X99048639Y-94111360D01*
X99006690Y-94150408D01*
X98991200Y-94164448D01*
X98983944Y-94152795D01*
X98963748Y-94112367D01*
X98935831Y-94052805D01*
X98927664Y-94035265D01*
X98883562Y-93950046D01*
X98830779Y-93864455D01*
X98765619Y-93773887D01*
X98684386Y-93673735D01*
X98583382Y-93559395D01*
X98458911Y-93426260D01*
X98307276Y-93269726D01*
X98305399Y-93267810D01*
X98157582Y-93115980D01*
X98038670Y-92991444D01*
X97947409Y-92892768D01*
X97882544Y-92818517D01*
X97842823Y-92767257D01*
X97826990Y-92737553D01*
X97833794Y-92727970D01*
X97857596Y-92740102D01*
X97892514Y-92772586D01*
X97916248Y-92795183D01*
X97994394Y-92844432D01*
X98087213Y-92880163D01*
X98175683Y-92894206D01*
X98247284Y-92888511D01*
X98343301Y-92858010D01*
X98447917Y-92796900D01*
X98526055Y-92743139D01*
X98526055Y-91452690D01*
X98526019Y-91221891D01*
X98525836Y-90991437D01*
X98525421Y-90797043D01*
X98524687Y-90635699D01*
X98523549Y-90504396D01*
X98521921Y-90400123D01*
X98519717Y-90319872D01*
X98516852Y-90260631D01*
X98513238Y-90219392D01*
X98508791Y-90193146D01*
X98503425Y-90178881D01*
X98497053Y-90173589D01*
X98489591Y-90174259D01*
X98471920Y-90180672D01*
X98417968Y-90200893D01*
X98333520Y-90232837D01*
X98223354Y-90274688D01*
X98092251Y-90324627D01*
X97944990Y-90380840D01*
X97786350Y-90441511D01*
X97119574Y-90696744D01*
X97109156Y-92030574D01*
X97098737Y-93364404D01*
X96673016Y-93762351D01*
X96247294Y-94160299D01*
X96170263Y-94006964D01*
X96142674Y-93954637D01*
X96093816Y-93872976D01*
X96034864Y-93787659D01*
X95962404Y-93694573D01*
X95873024Y-93589607D01*
X95763314Y-93468650D01*
X95629859Y-93327592D01*
X95469249Y-93162319D01*
X95374914Y-93065374D01*
X95281923Y-92968131D01*
X95202872Y-92883678D01*
X95141624Y-92816203D01*
X95102043Y-92769895D01*
X95087991Y-92748941D01*
X95090868Y-92744264D01*
X95115019Y-92752041D01*
X95155710Y-92781367D01*
X95165367Y-92789255D01*
X95229267Y-92833723D01*
X95290480Y-92866566D01*
X95316736Y-92876166D01*
X95430229Y-92892950D01*
X95549155Y-92878166D01*
X95660118Y-92834757D01*
X95749721Y-92765667D01*
X95796766Y-92714519D01*
X95791394Y-91446728D01*
X95786022Y-90178937D01*
X95692257Y-90148066D01*
X95630330Y-90124001D01*
X95501543Y-90046464D01*
X95397330Y-89943431D01*
X95323210Y-89821157D01*
X95284699Y-89685901D01*
X95281411Y-89662346D01*
X95271258Y-89596642D01*
X95262743Y-89550365D01*
X95263870Y-89541935D01*
X95278975Y-89560050D01*
X95305553Y-89605670D01*
X95324570Y-89638094D01*
X95370170Y-89701605D01*
X95413066Y-89746248D01*
X95430694Y-89758928D01*
X95514043Y-89799520D01*
X95605620Y-89821644D01*
X95686267Y-89820117D01*
X95709181Y-89813143D01*
X95766534Y-89793254D01*
X95849794Y-89763222D01*
X95952460Y-89725498D01*
X96068028Y-89682535D01*
X96189997Y-89636783D01*
X96311864Y-89590693D01*
X96427125Y-89546717D01*
X96529280Y-89507305D01*
X96611824Y-89474909D01*
X96668255Y-89451981D01*
X96692072Y-89440971D01*
X96687231Y-89429777D01*
X96658014Y-89398671D01*
X96610349Y-89356238D01*
X96489318Y-89256395D01*
X96336170Y-89135564D01*
X96203754Y-89039220D01*
X96087095Y-88964239D01*
X95981218Y-88907500D01*
X95881149Y-88865880D01*
X95781913Y-88836256D01*
X95636105Y-88800461D01*
X95624307Y-87697840D01*
X95621954Y-87482338D01*
X95619482Y-87273333D01*
X95617086Y-87099696D01*
X95614616Y-86958072D01*
X95611923Y-86845104D01*
X95608856Y-86757438D01*
X95605267Y-86691718D01*
X95601005Y-86644589D01*
X95595922Y-86612695D01*
X95589867Y-86592680D01*
X95582692Y-86581189D01*
X95574245Y-86574866D01*
X95550190Y-86558265D01*
X95498780Y-86513511D01*
X95437647Y-86453974D01*
X95376874Y-86389999D01*
X95326543Y-86331933D01*
X95296738Y-86290123D01*
X95284758Y-86266055D01*
X95286841Y-86251655D01*
X95320616Y-86260230D01*
X95353148Y-86266914D01*
X95419803Y-86272800D01*
X95496967Y-86274010D01*
X95607121Y-86261676D01*
X95768216Y-86214805D01*
X95941656Y-86135294D01*
X96123220Y-86025472D01*
X96308692Y-85887663D01*
X96493853Y-85724195D01*
X96505163Y-85713404D01*
X96577511Y-85645392D01*
X96638159Y-85590075D01*
X96681035Y-85552894D01*
X96700072Y-85539291D01*
X96706501Y-85545981D01*
G37*
%TD.AperFunction*%
%TA.AperFunction,EtchedComponent*%
G36*
X117551978Y-84631446D02*
G01*
X117408593Y-84753929D01*
X117357351Y-84798345D01*
X117250367Y-84892961D01*
X117152838Y-84981656D01*
X117070371Y-85059203D01*
X117008573Y-85120373D01*
X116973054Y-85159940D01*
X116961784Y-85174683D01*
X116941173Y-85201915D01*
X116923062Y-85228277D01*
X116907287Y-85256429D01*
X116893689Y-85289028D01*
X116882106Y-85328734D01*
X116872377Y-85378206D01*
X116864340Y-85440103D01*
X116857834Y-85517083D01*
X116852698Y-85611806D01*
X116848770Y-85726931D01*
X116845889Y-85865117D01*
X116843894Y-86029022D01*
X116842623Y-86221306D01*
X116841916Y-86444627D01*
X116841610Y-86701645D01*
X116841545Y-86995019D01*
X116841559Y-87327407D01*
X116841619Y-87555697D01*
X116841952Y-87873173D01*
X116842603Y-88152341D01*
X116843599Y-88395236D01*
X116844965Y-88603897D01*
X116846729Y-88780360D01*
X116848918Y-88926663D01*
X116851559Y-89044842D01*
X116854677Y-89136935D01*
X116858300Y-89204980D01*
X116862455Y-89251012D01*
X116867168Y-89277070D01*
X116878577Y-89308226D01*
X116935759Y-89402897D01*
X117019252Y-89492370D01*
X117118220Y-89566337D01*
X117221830Y-89614491D01*
X117276108Y-89632921D01*
X117323429Y-89652795D01*
X117341641Y-89665981D01*
X117325794Y-89678653D01*
X117280349Y-89700535D01*
X117215681Y-89726148D01*
X117101531Y-89779032D01*
X116983060Y-89869944D01*
X116897633Y-89985964D01*
X116893671Y-89993444D01*
X116883481Y-90014628D01*
X116875060Y-90038148D01*
X116868209Y-90067938D01*
X116862729Y-90107931D01*
X116858418Y-90162062D01*
X116855079Y-90234262D01*
X116852511Y-90328468D01*
X116850515Y-90448611D01*
X116848994Y-90589040D01*
X116848890Y-90598626D01*
X116847437Y-90782446D01*
X116845957Y-91004006D01*
X116839937Y-91936728D01*
X116950141Y-91926665D01*
X117072216Y-91915969D01*
X117188994Y-91907519D01*
X117286335Y-91903508D01*
X117376162Y-91903737D01*
X117470400Y-91908007D01*
X117580972Y-91916118D01*
X117886215Y-91956593D01*
X118179448Y-92030141D01*
X118445953Y-92135300D01*
X118685313Y-92271739D01*
X118897113Y-92439128D01*
X119080939Y-92637137D01*
X119236373Y-92865434D01*
X119363001Y-93123689D01*
X119460407Y-93411572D01*
X119479871Y-93486304D01*
X119495620Y-93559932D01*
X119506130Y-93633392D01*
X119512487Y-93717140D01*
X119515776Y-93821636D01*
X119517084Y-93957338D01*
X119517347Y-94044669D01*
X119516676Y-94151474D01*
X119513804Y-94231084D01*
X119507717Y-94292299D01*
X119497406Y-94343924D01*
X119481858Y-94394760D01*
X119460062Y-94453611D01*
X119458056Y-94458814D01*
X119352858Y-94684259D01*
X119223392Y-94882650D01*
X119072458Y-95050860D01*
X118902851Y-95185758D01*
X118717371Y-95284216D01*
X118674960Y-95301063D01*
X118605462Y-95324716D01*
X118569462Y-95330995D01*
X118568476Y-95320967D01*
X118604019Y-95295695D01*
X118677603Y-95256245D01*
X118824002Y-95166551D01*
X118973098Y-95038521D01*
X119101549Y-94888943D01*
X119199002Y-94728298D01*
X119267605Y-94567329D01*
X119314489Y-94406662D01*
X119340790Y-94235974D01*
X119349703Y-94040685D01*
X119349743Y-94030300D01*
X119339393Y-93825340D01*
X119305883Y-93649759D01*
X119246700Y-93496975D01*
X119159327Y-93360409D01*
X119041250Y-93233477D01*
X119023281Y-93217159D01*
X118875488Y-93105835D01*
X118713447Y-93024332D01*
X118532150Y-92971121D01*
X118326592Y-92944673D01*
X118091765Y-92943460D01*
X118068218Y-92944554D01*
X117887016Y-92958833D01*
X117716957Y-92984480D01*
X117548962Y-93023967D01*
X117373953Y-93079772D01*
X117182852Y-93154369D01*
X116966580Y-93250233D01*
X116915321Y-93273712D01*
X116816728Y-93318283D01*
X116689159Y-93375511D01*
X116537890Y-93443046D01*
X116368196Y-93518537D01*
X116185351Y-93599636D01*
X115994633Y-93683993D01*
X115801314Y-93769257D01*
X115715367Y-93807098D01*
X115519969Y-93892974D01*
X115358064Y-93963733D01*
X115226339Y-94020646D01*
X115121482Y-94064987D01*
X115040177Y-94098029D01*
X114979112Y-94121043D01*
X114934973Y-94135304D01*
X114904446Y-94142082D01*
X114884218Y-94142652D01*
X114870975Y-94138285D01*
X114861403Y-94130255D01*
X114857136Y-94125659D01*
X114824653Y-94090072D01*
X114772177Y-94032128D01*
X114705973Y-93958756D01*
X114632308Y-93876886D01*
X114619370Y-93862541D01*
X114403144Y-93637346D01*
X114177034Y-93427318D01*
X113945951Y-93236060D01*
X113714805Y-93067176D01*
X113488508Y-92924267D01*
X113271972Y-92810938D01*
X113070107Y-92730792D01*
X112994020Y-92709415D01*
X112892415Y-92686191D01*
X112785939Y-92665823D01*
X112689578Y-92651157D01*
X112618317Y-92645036D01*
X112615148Y-92632226D01*
X112631373Y-92594018D01*
X112664519Y-92539357D01*
X112693873Y-92492129D01*
X112732736Y-92417950D01*
X112756759Y-92357035D01*
X112761033Y-92321246D01*
X112764958Y-92244264D01*
X112768400Y-92127437D01*
X112771349Y-91971690D01*
X112773792Y-91777948D01*
X112775718Y-91547136D01*
X112777115Y-91280180D01*
X112777972Y-90978004D01*
X112778277Y-90641533D01*
X112778371Y-89317528D01*
X114091108Y-89317528D01*
X114091108Y-91137351D01*
X114091124Y-91268340D01*
X114091324Y-91581884D01*
X114091779Y-91856758D01*
X114092519Y-92095135D01*
X114093575Y-92299186D01*
X114094980Y-92471082D01*
X114096762Y-92612993D01*
X114098955Y-92727092D01*
X114101589Y-92815549D01*
X114104694Y-92880536D01*
X114108303Y-92924224D01*
X114112446Y-92948784D01*
X114117154Y-92956388D01*
X114136965Y-92950668D01*
X114191269Y-92931808D01*
X114274070Y-92901812D01*
X114379852Y-92862775D01*
X114503093Y-92816792D01*
X114638277Y-92765959D01*
X114779885Y-92712370D01*
X114922397Y-92658122D01*
X115060296Y-92605309D01*
X115188063Y-92556027D01*
X115300178Y-92512371D01*
X115391125Y-92476437D01*
X115455383Y-92450319D01*
X115487435Y-92436114D01*
X115494519Y-92431631D01*
X115500849Y-92424433D01*
X115506348Y-92411990D01*
X115511076Y-92391701D01*
X115515090Y-92360964D01*
X115518450Y-92317175D01*
X115521212Y-92257733D01*
X115523436Y-92180037D01*
X115525180Y-92081483D01*
X115526502Y-91959471D01*
X115527461Y-91811397D01*
X115528114Y-91634660D01*
X115528521Y-91426658D01*
X115528739Y-91184789D01*
X115528828Y-90906450D01*
X115528844Y-90589040D01*
X115528840Y-90460198D01*
X115528776Y-90158027D01*
X115528595Y-89893991D01*
X115528244Y-89665545D01*
X115527672Y-89470144D01*
X115526826Y-89305242D01*
X115525657Y-89168294D01*
X115524111Y-89056756D01*
X115522138Y-88968081D01*
X115519685Y-88899726D01*
X115516701Y-88849144D01*
X115513134Y-88813791D01*
X115508933Y-88791121D01*
X115504046Y-88778589D01*
X115498421Y-88773650D01*
X115492007Y-88773760D01*
X115470968Y-88781043D01*
X115414240Y-88802215D01*
X115327417Y-88835290D01*
X115215197Y-88878461D01*
X115082278Y-88929919D01*
X114933359Y-88987855D01*
X114773139Y-89050461D01*
X114091108Y-89317528D01*
X112778371Y-89317528D01*
X112778393Y-89003086D01*
X112643473Y-88915183D01*
X112527772Y-88831449D01*
X112404602Y-88711659D01*
X112317738Y-88580371D01*
X112264153Y-88432683D01*
X112240816Y-88263696D01*
X112239716Y-88240355D01*
X112238183Y-88150258D01*
X112243184Y-88098152D01*
X112254925Y-88081374D01*
X112269582Y-88091671D01*
X112278654Y-88128257D01*
X112290888Y-88185580D01*
X112328977Y-88260788D01*
X112383353Y-88331148D01*
X112444186Y-88381612D01*
X112486931Y-88403560D01*
X112533134Y-88418511D01*
X112585147Y-88424138D01*
X112647631Y-88419476D01*
X112725247Y-88403554D01*
X112822656Y-88375404D01*
X112944519Y-88334058D01*
X113095497Y-88278548D01*
X113280252Y-88207905D01*
X113303820Y-88198788D01*
X113444874Y-88143878D01*
X113572402Y-88093658D01*
X113681326Y-88050170D01*
X113766567Y-88015458D01*
X113823047Y-87991562D01*
X113845688Y-87980525D01*
X113844242Y-87977111D01*
X113817290Y-87954885D01*
X113760567Y-87915053D01*
X113678252Y-87860362D01*
X113574525Y-87793561D01*
X113453568Y-87717399D01*
X113319560Y-87634624D01*
X112778393Y-87303381D01*
X112778393Y-87233852D01*
X114094728Y-87233852D01*
X114095256Y-87409474D01*
X114096355Y-87553321D01*
X114098061Y-87667880D01*
X114100411Y-87755637D01*
X114103444Y-87819078D01*
X114107196Y-87860688D01*
X114111705Y-87882955D01*
X114117007Y-87888363D01*
X114262233Y-87832146D01*
X114386130Y-87782699D01*
X114481383Y-87742340D01*
X114553484Y-87708481D01*
X114607922Y-87678530D01*
X114650188Y-87649896D01*
X114685770Y-87619991D01*
X114772779Y-87539788D01*
X114872189Y-87701188D01*
X114916197Y-87770400D01*
X115021938Y-87924834D01*
X115140367Y-88085443D01*
X115260738Y-88237900D01*
X115372304Y-88367880D01*
X115392519Y-88389821D01*
X115446260Y-88445129D01*
X115487900Y-88483651D01*
X115509756Y-88498109D01*
X115511868Y-88488801D01*
X115514834Y-88441409D01*
X115517569Y-88355667D01*
X115520054Y-88233562D01*
X115522271Y-88077083D01*
X115524199Y-87888216D01*
X115525820Y-87668949D01*
X115527114Y-87421270D01*
X115528062Y-87147165D01*
X115528645Y-86848624D01*
X115528844Y-86527632D01*
X115528844Y-84557155D01*
X115484563Y-84571210D01*
X115465311Y-84578039D01*
X115409382Y-84598753D01*
X115323073Y-84631132D01*
X115211229Y-84673347D01*
X115078690Y-84723570D01*
X114930301Y-84779972D01*
X114770904Y-84840723D01*
X114101527Y-85096181D01*
X114096170Y-86497298D01*
X114095233Y-86777342D01*
X114094733Y-87023970D01*
X114094728Y-87233852D01*
X112778393Y-87233852D01*
X112778393Y-86051385D01*
X112778393Y-84799388D01*
X112575235Y-84702943D01*
X112534971Y-84683348D01*
X112333589Y-84568325D01*
X112165903Y-84441727D01*
X112033497Y-84305436D01*
X111937957Y-84161337D01*
X111880865Y-84011311D01*
X111863807Y-83857244D01*
X111866039Y-83757748D01*
X111885274Y-83843290D01*
X111912186Y-83913965D01*
X111970707Y-84003415D01*
X112046917Y-84083886D01*
X112129483Y-84141535D01*
X112162363Y-84156770D01*
X112296824Y-84198360D01*
X112450116Y-84219893D01*
X112607273Y-84218945D01*
X112618600Y-84217883D01*
X112659234Y-84212254D01*
X112706208Y-84202533D01*
X112763128Y-84187481D01*
X112833598Y-84165860D01*
X112921224Y-84136431D01*
X113029611Y-84097956D01*
X113162365Y-84049195D01*
X113323090Y-83988912D01*
X113515392Y-83915866D01*
X113742876Y-83828820D01*
X113787007Y-83811888D01*
X113977978Y-83738480D01*
X114157028Y-83669439D01*
X114320299Y-83606268D01*
X114463933Y-83550467D01*
X114584071Y-83503538D01*
X114676857Y-83466984D01*
X114738431Y-83442305D01*
X114764937Y-83431003D01*
X114781695Y-83420441D01*
X114828931Y-83384605D01*
X114882887Y-83338551D01*
X114962529Y-83266599D01*
X114988091Y-83345480D01*
X115021363Y-83432013D01*
X115078387Y-83552397D01*
X115147859Y-83679540D01*
X115222538Y-83799422D01*
X115222784Y-83799788D01*
X115261756Y-83851812D01*
X115318549Y-83920112D01*
X115387535Y-83998707D01*
X115463084Y-84081617D01*
X115539568Y-84162863D01*
X115611358Y-84236464D01*
X115672826Y-84296439D01*
X115718342Y-84336810D01*
X115742277Y-84351596D01*
X115749996Y-84346973D01*
X115784807Y-84318442D01*
X115843198Y-84267222D01*
X115921015Y-84197196D01*
X116014105Y-84112249D01*
X116118312Y-84016262D01*
X116229484Y-83913121D01*
X116343465Y-83806707D01*
X116456103Y-83700905D01*
X116563241Y-83599597D01*
X116660727Y-83506668D01*
X116744406Y-83426000D01*
X116810124Y-83361477D01*
X116853727Y-83316982D01*
X116871060Y-83296398D01*
X116877313Y-83284520D01*
X116900186Y-83268085D01*
X116917181Y-83277171D01*
X116962723Y-83308058D01*
X117030607Y-83356899D01*
X117115160Y-83419603D01*
X117210714Y-83492080D01*
X117503641Y-83724937D01*
X117823871Y-84000189D01*
X118123327Y-84280259D01*
X118399804Y-84562525D01*
X118651096Y-84844368D01*
X118874998Y-85123167D01*
X119069304Y-85396302D01*
X119231808Y-85661151D01*
X119360305Y-85915096D01*
X119452589Y-86155515D01*
X119465998Y-86199403D01*
X119508569Y-86360083D01*
X119541800Y-86519815D01*
X119563356Y-86666138D01*
X119570900Y-86786588D01*
X119570535Y-86807598D01*
X119560238Y-86925507D01*
X119538121Y-87057196D01*
X119507334Y-87188802D01*
X119471026Y-87306466D01*
X119432349Y-87396324D01*
X119378625Y-87484073D01*
X119253776Y-87632008D01*
X119105723Y-87748677D01*
X118939196Y-87831999D01*
X118758925Y-87879893D01*
X118569639Y-87890277D01*
X118376068Y-87861072D01*
X118230183Y-87813654D01*
X118061294Y-87734545D01*
X117905553Y-87636336D01*
X117772466Y-87525151D01*
X117671541Y-87407115D01*
X117664517Y-87395947D01*
X117666383Y-87389774D01*
X117692609Y-87411296D01*
X117740430Y-87458453D01*
X117887268Y-87591817D01*
X118063551Y-87708259D01*
X118251886Y-87787365D01*
X118456518Y-87831347D01*
X118468758Y-87832826D01*
X118659030Y-87836881D01*
X118839370Y-87806261D01*
X119004713Y-87743455D01*
X119149994Y-87650957D01*
X119270148Y-87531257D01*
X119360110Y-87386846D01*
X119383617Y-87334660D01*
X119428818Y-87212465D01*
X119457419Y-87089823D01*
X119472006Y-86953309D01*
X119475165Y-86789496D01*
X119475032Y-86776292D01*
X119472403Y-86669770D01*
X119465586Y-86583831D01*
X119452152Y-86503506D01*
X119429671Y-86413828D01*
X119395717Y-86299832D01*
X119350948Y-86167154D01*
X119255893Y-85940595D01*
X119136407Y-85714759D01*
X118989922Y-85485773D01*
X118813871Y-85249761D01*
X118605686Y-85002851D01*
X118362800Y-84741167D01*
X118252875Y-84628358D01*
X118155394Y-84534493D01*
X118072142Y-84467404D01*
X117997416Y-84427167D01*
X117925509Y-84413860D01*
X117850717Y-84427558D01*
X117767335Y-84468337D01*
X117669657Y-84536275D01*
X117643839Y-84557155D01*
X117551978Y-84631446D01*
G37*
%TD.AperFunction*%
%TD*%
D13*
%TO.P,H1,1,1*%
%TO.N,GND*%
X127985010Y-51120990D03*
X128644020Y-49530000D03*
X128644020Y-52711980D03*
X130235010Y-48870990D03*
D14*
X130235010Y-51120990D03*
D13*
X130235010Y-53370990D03*
X131826000Y-49530000D03*
X131826000Y-52711980D03*
X132485010Y-51120990D03*
%TD*%
%TO.P,H3,1,1*%
%TO.N,GND*%
X128052000Y-143728000D03*
X128711010Y-142137010D03*
X128711010Y-145318990D03*
X130302000Y-141478000D03*
D14*
X130302000Y-143728000D03*
D13*
X130302000Y-145978000D03*
X131892990Y-142137010D03*
X131892990Y-145318990D03*
X132552000Y-143728000D03*
%TD*%
D15*
%TO.P,J4,1,Pin_1*%
%TO.N,/5V*%
X99171505Y-51054000D03*
D16*
%TO.P,J4,2,Pin_2*%
%TO.N,GND*%
X101711505Y-51054000D03*
%TO.P,J4,3,Pin_3*%
%TO.N,Net-(J4-Pin_3)*%
X104251505Y-51054000D03*
%TO.P,J4,4,Pin_4*%
%TO.N,Net-(J4-Pin_4)*%
X106791505Y-51054000D03*
%TO.P,J4,5,Pin_5*%
%TO.N,Net-(J4-Pin_5)*%
X109331505Y-51054000D03*
%TO.P,J4,6,Pin_6*%
%TO.N,Net-(J4-Pin_6)*%
X111871505Y-51054000D03*
%TD*%
D13*
%TO.P,H4,1,1*%
%TO.N,GND*%
X78455010Y-143830990D03*
X79114020Y-142240000D03*
X79114020Y-145421980D03*
X80705010Y-141580990D03*
D14*
X80705010Y-143830990D03*
D13*
X80705010Y-146080990D03*
X82296000Y-142240000D03*
X82296000Y-145421980D03*
X82955010Y-143830990D03*
%TD*%
%TO.P,H2,1,1*%
%TO.N,GND*%
X78558000Y-51054000D03*
X79217010Y-49463010D03*
X79217010Y-52644990D03*
X80808000Y-48804000D03*
D14*
X80808000Y-51054000D03*
D13*
X80808000Y-53304000D03*
X82398990Y-49463010D03*
X82398990Y-52644990D03*
X83058000Y-51054000D03*
%TD*%
D17*
%TO.P,U2,41,PAD*%
%TO.N,GND*%
X92180000Y-78870000D03*
X93580000Y-78870000D03*
X94980000Y-78870000D03*
X91180000Y-77590000D03*
X92180000Y-77590000D03*
X93580000Y-77590000D03*
X94980000Y-77590000D03*
X95980000Y-77590000D03*
X92180000Y-76310000D03*
X93580000Y-76310000D03*
X94980000Y-76310000D03*
%TD*%
D18*
%TO.P,J6,1,Pin_1*%
%TO.N,GND*%
X89621000Y-143622000D03*
%TO.P,J6,2,Pin_2*%
%TO.N,/5V*%
X92161000Y-143622000D03*
%TO.P,J6,3,Pin_3*%
%TO.N,/Fan/FAN_TACH*%
X94701000Y-143622000D03*
%TO.P,J6,4,Pin_4*%
%TO.N,/Fan/FAN_PWM*%
X97241000Y-143622000D03*
%TD*%
D19*
%TO.P,J3,1,Pin_1*%
%TO.N,GND*%
X87005000Y-50292000D03*
D16*
%TO.P,J3,2,Pin_2*%
%TO.N,/3V3*%
X87405000Y-52832000D03*
%TO.P,J3,3,Pin_3*%
%TO.N,/SCL*%
X87005000Y-55372000D03*
%TO.P,J3,4,Pin_4*%
%TO.N,/SDA*%
X87405000Y-57912000D03*
%TD*%
D20*
%TO.P,FID7,*%
%TO.N,*%
X132260000Y-139060000D03*
%TD*%
D21*
%TO.P,J5,A1,GND*%
%TO.N,GND*%
X84545000Y-86460000D03*
%TO.P,J5,A4,VBUS*%
%TO.N,unconnected-(J5-VBUS-PadA4)*%
X84545000Y-85660000D03*
D22*
%TO.P,J5,A5,CC1*%
%TO.N,unconnected-(J5-CC1-PadA5)*%
X84545000Y-84510000D03*
%TO.P,J5,A6,D+*%
%TO.N,/ESP32/USB_D+*%
X84545000Y-83510000D03*
%TO.P,J5,A7,D-*%
%TO.N,/ESP32/USB_D-*%
X84545000Y-83010000D03*
%TO.P,J5,A8,SBU1*%
%TO.N,unconnected-(J5-SBU1-PadA8)*%
X84545000Y-82010000D03*
D21*
%TO.P,J5,B1,GND*%
%TO.N,GND*%
X84545000Y-80060000D03*
%TO.P,J5,B4,VBUS*%
%TO.N,unconnected-(J5-VBUS-PadB4)*%
X84545000Y-80860000D03*
D22*
%TO.P,J5,B5,CC2*%
%TO.N,unconnected-(J5-CC2-PadB5)*%
X84545000Y-81510000D03*
%TO.P,J5,B6,D+*%
%TO.N,/ESP32/USB_D+*%
X84545000Y-82510000D03*
%TO.P,J5,B7,D-*%
%TO.N,/ESP32/USB_D-*%
X84545000Y-84010000D03*
%TO.P,J5,B8,SBU2*%
%TO.N,unconnected-(J5-SBU2-PadB8)*%
X84545000Y-85010000D03*
D23*
%TO.P,J5,S1,SHIELD*%
%TO.N,GND*%
X79790000Y-87580000D03*
D24*
X83970000Y-87580000D03*
D23*
X79790000Y-78940000D03*
D24*
X83970000Y-78940000D03*
%TD*%
D25*
%TO.P,U4,1,GND*%
%TO.N,GND*%
X125690000Y-81360000D03*
%TO.P,U4,2,3V3*%
%TO.N,/3V3*%
X124420000Y-81360000D03*
%TO.P,U4,3,EN*%
%TO.N,/ESP32/EN*%
X123150000Y-81360000D03*
%TO.P,U4,4,GPIO4/TOUCH4/ADC1_CH3*%
%TO.N,unconnected-(U4-GPIO4{slash}TOUCH4{slash}ADC1_CH3-Pad4)*%
X121880000Y-81360000D03*
%TO.P,U4,5,GPIO5/TOUCH5/ADC1_CH4*%
%TO.N,unconnected-(U4-GPIO5{slash}TOUCH5{slash}ADC1_CH4-Pad5)*%
X120610000Y-81360000D03*
%TO.P,U4,6,GPIO6/TOUCH6/ADC1_CH5*%
%TO.N,unconnected-(U4-GPIO6{slash}TOUCH6{slash}ADC1_CH5-Pad6)*%
X119340000Y-81360000D03*
%TO.P,U4,7,GPIO7/TOUCH7/ADC1_CH6*%
%TO.N,unconnected-(U4-GPIO7{slash}TOUCH7{slash}ADC1_CH6-Pad7)*%
X118070000Y-81360000D03*
%TO.P,U4,8,GPIO15/U0RTS/ADC2_CH4/XTAL_32K_P*%
%TO.N,unconnected-(U4-GPIO15{slash}U0RTS{slash}ADC2_CH4{slash}XTAL_32K_P-Pad8)*%
X116800000Y-81360000D03*
%TO.P,U4,9,GPIO16/U0CTS/ADC2_CH5/XTAL_32K_NH5*%
%TO.N,unconnected-(U4-GPIO16{slash}U0CTS{slash}ADC2_CH5{slash}XTAL_32K_NH5-Pad9)*%
X115530000Y-81360000D03*
%TO.P,U4,10,GPIO17/U1TXD/ADC2_CH6*%
%TO.N,/TX*%
X114260000Y-81360000D03*
%TO.P,U4,11,GPIO18/U1RXD/ADC2_CH7/CLK_OUT3*%
%TO.N,/RX*%
X112990000Y-81360000D03*
%TO.P,U4,12,GPIO8/TOUCH8/ADC1_CH7/SUBSPICS1*%
%TO.N,unconnected-(U4-GPIO8{slash}TOUCH8{slash}ADC1_CH7{slash}SUBSPICS1-Pad12)*%
X111720000Y-81360000D03*
%TO.P,U4,13,GPIO19/U1RTS/ADC2_CH8/CLK_OUT2/USB_D-*%
%TO.N,/ESP32/USB_D-*%
X110450000Y-81360000D03*
%TO.P,U4,14,GPIO20/U1CTS/ADC2_CH9/CLK_OUT1/USB_D+*%
%TO.N,/ESP32/USB_D+*%
X109180000Y-81360000D03*
D26*
%TO.P,U4,15,GPIO3/TOUCH3/ADC1_CH2\u002A*%
%TO.N,/3V3*%
X107930000Y-79595000D03*
%TO.P,U4,16,\u002AGPIO46*%
%TO.N,unconnected-(U4-\u002AGPIO46-Pad16)*%
X107930000Y-78325000D03*
%TO.P,U4,17,GPIO9/TOUCH9/ADC1_CH8/FSPIHD/SUBSPIHD*%
%TO.N,unconnected-(U4-GPIO9{slash}TOUCH9{slash}ADC1_CH8{slash}FSPIHD{slash}SUBSPIHD-Pad17)*%
X107930000Y-77055000D03*
%TO.P,U4,18,GPIO10/TOUCH10/ADC1_CH9/FSPICS0/FSPIIO4/SUBSPICS0*%
%TO.N,unconnected-(U4-GPIO10{slash}TOUCH10{slash}ADC1_CH9{slash}FSPICS0{slash}FSPIIO4{slash}SUBSPICS0-Pad18)*%
X107930000Y-75785000D03*
%TO.P,U4,19,GPIO11/TOUCH11/ADC2_CH0/FSPID/FSPIIO5/SUBSPID*%
%TO.N,/Power/PGOOD*%
X107930000Y-74515000D03*
%TO.P,U4,20,GPIO12/TOUCH12/ADC2_CH1/FSPICLK/FSPIIO6/SUBSPICLK*%
%TO.N,unconnected-(U4-GPIO12{slash}TOUCH12{slash}ADC2_CH1{slash}FSPICLK{slash}FSPIIO6{slash}SUBSPICLK-Pad20)*%
X107930000Y-73245000D03*
%TO.P,U4,21,GPIO13/TOUCH13/ADC2_CH2/FSPIQ/FSPIIO7/SUBSPIQ*%
%TO.N,/Power/PMB_ALRT*%
X107930000Y-71975000D03*
%TO.P,U4,22,GPIO14/TOUCH14/ADC2_CH3/FSPIWP/FSPIDQS/SUBSPIWP*%
%TO.N,unconnected-(U4-GPIO14{slash}TOUCH14{slash}ADC2_CH3{slash}FSPIWP{slash}FSPIDQS{slash}SUBSPIWP-Pad22)*%
X107930000Y-70705000D03*
%TO.P,U4,23,GPIO21*%
%TO.N,unconnected-(U4-GPIO21-Pad23)*%
X107930000Y-69435000D03*
%TO.P,U4,24,GPIO47/SPICLK_P/SUBSPICLK_P_DIFF*%
%TO.N,/SDA*%
X107930000Y-68165000D03*
%TO.P,U4,25,GPIO48/SPICLK_N/SUBSPICLK_N_DIFF*%
%TO.N,/SCL*%
X107930000Y-66895000D03*
%TO.P,U4,26,\u002AGPIO45*%
%TO.N,unconnected-(U4-\u002AGPIO45-Pad26)*%
X107930000Y-65625000D03*
D25*
%TO.P,U4,27,GPIO0/BOOT\u002A*%
%TO.N,/ESP32/IO0*%
X109180000Y-63860000D03*
%TO.P,U4,28,SPIIO6/GPIO35/FSPID/SUBSPID*%
%TO.N,unconnected-(U4-SPIIO6{slash}GPIO35{slash}FSPID{slash}SUBSPID-Pad28)*%
X110450000Y-63860000D03*
%TO.P,U4,29,SPIIO7/GPIO36/FSPICLK/SUBSPICLK*%
%TO.N,unconnected-(U4-SPIIO7{slash}GPIO36{slash}FSPICLK{slash}SUBSPICLK-Pad29)*%
X111720000Y-63860000D03*
%TO.P,U4,30,SPIDQS/GPIO37/FSPIQ/SUBSPIQ*%
%TO.N,unconnected-(U4-SPIDQS{slash}GPIO37{slash}FSPIQ{slash}SUBSPIQ-Pad30)*%
X112990000Y-63860000D03*
%TO.P,U4,31,GPIO38/FSPIWP/SUBSPIWP*%
%TO.N,unconnected-(U4-GPIO38{slash}FSPIWP{slash}SUBSPIWP-Pad31)*%
X114260000Y-63860000D03*
%TO.P,U4,32,MTCK/GPIO39/CLK_OUT3/SUBSPICS1*%
%TO.N,Net-(J4-Pin_3)*%
X115530000Y-63860000D03*
%TO.P,U4,33,MTDO/GPIO40/CLK_OUT2*%
%TO.N,Net-(J4-Pin_4)*%
X116800000Y-63860000D03*
%TO.P,U4,34,MTDI/GPIO41/CLK_OUT1*%
%TO.N,Net-(J4-Pin_5)*%
X118070000Y-63860000D03*
%TO.P,U4,35,MTMS/GPIO42*%
%TO.N,Net-(J4-Pin_6)*%
X119340000Y-63860000D03*
%TO.P,U4,36,U0RXD/GPIO44/CLK_OUT2*%
%TO.N,/ESP32/P_RX*%
X120610000Y-63860000D03*
%TO.P,U4,37,U0TXD/GPIO43/CLK_OUT1*%
%TO.N,/ESP32/P_TX*%
X121880000Y-63860000D03*
%TO.P,U4,38,GPIO2/TOUCH2/ADC1_CH1*%
%TO.N,/VDD*%
X123150000Y-63860000D03*
%TO.P,U4,39,GPIO1/TOUCH1/ADC1_CH0*%
%TO.N,/RST*%
X124420000Y-63860000D03*
%TO.P,U4,40,GND*%
%TO.N,GND*%
X125690000Y-63860000D03*
D27*
%TO.P,U4,41,GND*%
X116570000Y-75510000D03*
X117970000Y-75510000D03*
X119370000Y-75510000D03*
X116570000Y-74110000D03*
X117970000Y-74110000D03*
X119370000Y-74110000D03*
X116570000Y-72710000D03*
X117970000Y-72710000D03*
X119370000Y-72710000D03*
%TD*%
D28*
%TO.P,J2,1,Pin_1*%
%TO.N,/ESP32/EN*%
X129400000Y-58365000D03*
%TO.P,J2,2,Pin_2*%
%TO.N,/3V3*%
X129400000Y-57095000D03*
%TO.P,J2,3,Pin_3*%
%TO.N,/ESP32/P_TX*%
X128130000Y-58365000D03*
%TO.P,J2,4,Pin_4*%
%TO.N,GND*%
X128130000Y-57095000D03*
%TO.P,J2,5,Pin_5*%
%TO.N,/ESP32/P_RX*%
X126860000Y-58365000D03*
%TO.P,J2,6,Pin_6*%
%TO.N,/ESP32/IO0*%
X126860000Y-57095000D03*
%TD*%
D29*
%TO.P,U8,1,VDD3_0*%
%TO.N,/BM1370/VDD1_0*%
X109526562Y-113032000D03*
%TO.P,U8,2,VDD2_0*%
%TO.N,/BM1370/VDD2_0*%
X109526562Y-113534000D03*
%TO.P,U8,3,VDD1_0*%
%TO.N,/BM1370/VDD3_0*%
X109526562Y-114036000D03*
%TO.P,U8,4,VSS*%
%TO.N,GND*%
X109526562Y-114538000D03*
%TO.P,U8,5,NRSTI*%
%TO.N,/BM1370/RST_N*%
X109526562Y-115040000D03*
%TO.P,U8,6,CI*%
%TO.N,/BM1370/CI*%
X109526562Y-115542000D03*
%TO.P,U8,7,RO*%
%TO.N,/BM1370/RO*%
X109526562Y-116044000D03*
%TO.P,U8,8,CLKI*%
%TO.N,/BM1370/CLKI*%
X109526562Y-116546000D03*
%TO.P,U8,9,BI*%
%TO.N,/BM1370/BI*%
X109526562Y-117048000D03*
%TO.P,U8,10,ROSC_SEL*%
%TO.N,Net-(U8-ROSC_SEL)*%
X109526562Y-117550000D03*
%TO.P,U8,11,LITE_PAD*%
%TO.N,Net-(U8-LITE_PAD)*%
X109526562Y-118052000D03*
%TO.P,U8,12,INV_CLKO*%
%TO.N,Net-(U8-INV_CLKO)*%
X109526562Y-118554000D03*
%TO.P,U8,13,PLL_VSS*%
%TO.N,GND*%
X109526562Y-119056000D03*
%TO.P,U8,14,VDDIO_08_0*%
%TO.N,/BM1370/0V8*%
X109526562Y-119558000D03*
%TO.P,U8,15,VDDIO_12_0*%
%TO.N,/BM1370/1V2*%
X109526562Y-120060000D03*
%TO.P,U8,16,VDDIO_12_1*%
X101694562Y-120060000D03*
%TO.P,U8,17,VDDIO_08_1*%
%TO.N,/BM1370/0V8*%
X101694562Y-119558000D03*
%TO.P,U8,18,VSS*%
%TO.N,GND*%
X101694562Y-119056000D03*
%TO.P,U8,19,PIN_MODE*%
%TO.N,/BM1370/PIN_MODE*%
X101694562Y-118554000D03*
%TO.P,U8,20,TEMP_P*%
%TO.N,/Fan/TEMP_P*%
X101694562Y-118052000D03*
%TO.P,U8,21,TEMP_N*%
%TO.N,/Fan/TEMP_N*%
X101694562Y-117550000D03*
%TO.P,U8,22,BO*%
%TO.N,/BM1370/BO*%
X101694562Y-117048000D03*
%TO.P,U8,23,CLKO*%
%TO.N,/BM1370/CLKO*%
X101694562Y-116546000D03*
%TO.P,U8,24,RI*%
%TO.N,/BM1370/RI*%
X101694562Y-116044000D03*
%TO.P,U8,25,CO*%
%TO.N,/BM1370/CO*%
X101694562Y-115542000D03*
%TO.P,U8,26,NRSTO*%
%TO.N,/BM1370/NRSTO*%
X101694562Y-115040000D03*
%TO.P,U8,27,VSS*%
%TO.N,GND*%
X101694562Y-114538000D03*
%TO.P,U8,28,VDD1_1*%
%TO.N,/BM1370/VDD3_1*%
X101694562Y-114036000D03*
%TO.P,U8,29,VDD2_1*%
%TO.N,/BM1370/VDD2_1*%
X101694562Y-113534000D03*
%TO.P,U8,30,VDD3_1*%
%TO.N,/BM1370/VDD1_1*%
X101694562Y-113032000D03*
D30*
%TO.P,U8,31,VDD*%
%TO.N,/VDD*%
X105610562Y-113676000D03*
D31*
%TO.P,U8,32,VSS*%
%TO.N,GND*%
X105610562Y-117786000D03*
%TD*%
D20*
%TO.P,FID8,*%
%TO.N,*%
X78850000Y-139070000D03*
%TD*%
D32*
%TO.P,J1,1*%
%TO.N,/5V*%
X82330000Y-72860000D03*
X88530000Y-72860000D03*
%TO.P,J1,2*%
%TO.N,GND*%
X82330000Y-61860000D03*
%TO.P,J1,3*%
X88530000Y-61860000D03*
%TD*%
D33*
%TO.P,SW1,1*%
%TO.N,GND*%
X132246000Y-104448000D03*
%TO.P,SW1,2*%
%TO.N,/ESP32/EN*%
X128136000Y-104448000D03*
%TD*%
D20*
%TO.P,FID5,*%
%TO.N,*%
X125270000Y-50310000D03*
%TD*%
D33*
%TO.P,SW2,1*%
%TO.N,GND*%
X132142000Y-113155000D03*
%TO.P,SW2,2*%
%TO.N,/ESP32/IO0*%
X128032000Y-113155000D03*
%TD*%
D20*
%TO.P,FID6,*%
%TO.N,*%
X78750000Y-55900000D03*
%TD*%
D34*
%TO.N,GND*%
X105610000Y-116830000D03*
X112180000Y-119260000D03*
X113580000Y-132650000D03*
X98050000Y-114260000D03*
X104490000Y-118700000D03*
D35*
X100043332Y-65740000D03*
D34*
X112180000Y-120800000D03*
X106740000Y-119930000D03*
D35*
X98880000Y-61530000D03*
D34*
X106740000Y-118720000D03*
X104640000Y-130470000D03*
X105540000Y-132550000D03*
D35*
X116540000Y-70920000D03*
X101416668Y-61640000D03*
D34*
X125600000Y-65940000D03*
X116770000Y-124080000D03*
X106740000Y-117780000D03*
D36*
X95080000Y-91220000D03*
D34*
X104490000Y-117760000D03*
X105630000Y-118700000D03*
D35*
X111860000Y-87470000D03*
D34*
X115260000Y-109040000D03*
X123750000Y-117530000D03*
D35*
X111860000Y-91040000D03*
D34*
X106740000Y-116860000D03*
X98450000Y-78230000D03*
X96070000Y-137650000D03*
X116050000Y-128010000D03*
D35*
X111860000Y-89030000D03*
D34*
X104490000Y-119910000D03*
X119270000Y-54220000D03*
X128130000Y-56090000D03*
D35*
X101370000Y-65740000D03*
D34*
X112980000Y-114270000D03*
D35*
X80680000Y-61050000D03*
X102050000Y-144400000D03*
D34*
X99550000Y-67970000D03*
X91790000Y-89910000D03*
X117090000Y-100360000D03*
D35*
X101356668Y-64450000D03*
D34*
X121580000Y-112400000D03*
D35*
X111860000Y-83000000D03*
X101420000Y-60280000D03*
D34*
X122640000Y-102460000D03*
X96070000Y-141200000D03*
X113180000Y-130220000D03*
D35*
X117910000Y-70950000D03*
D34*
X119280000Y-102930000D03*
X99370000Y-119240000D03*
D35*
X100050000Y-63040000D03*
X100030000Y-64450000D03*
D34*
X123710000Y-120230000D03*
X96600000Y-108920000D03*
X104490000Y-115746000D03*
X100490000Y-76620000D03*
X98460000Y-76630000D03*
X99490000Y-70390000D03*
X98440000Y-121490000D03*
X92680000Y-133370000D03*
X128690000Y-107620000D03*
X112512000Y-61250000D03*
X104490000Y-116840000D03*
X104560000Y-76600000D03*
D35*
X101376668Y-63040000D03*
X119454234Y-70914234D03*
X128020000Y-84450000D03*
X111860000Y-85460000D03*
D34*
X106740000Y-115766000D03*
X116990000Y-98200000D03*
D35*
X100090000Y-61640000D03*
D34*
X102570000Y-76600000D03*
X132297000Y-108743000D03*
X117550000Y-103000000D03*
X98460000Y-74920000D03*
D37*
%TO.N,/VDD*%
X103660000Y-97850000D03*
D36*
X120850000Y-69510000D03*
D37*
X103660000Y-99730000D03*
D34*
X84500000Y-76160000D03*
D37*
X107560000Y-97880000D03*
D36*
X99780000Y-81020000D03*
D37*
X105650000Y-101710000D03*
X103660000Y-101690000D03*
X105650000Y-99750000D03*
X107560000Y-101740000D03*
X105650000Y-97850000D03*
X107560000Y-99780000D03*
D36*
%TO.N,/ESP32/EN*%
X122101300Y-70905000D03*
X127228000Y-104448000D03*
D35*
%TO.N,/5V*%
X93620000Y-68975000D03*
X93620000Y-71720000D03*
X92330000Y-70347500D03*
D37*
X109280000Y-61185155D03*
D34*
X108290000Y-131179000D03*
D35*
X92330000Y-66230000D03*
X93620000Y-67602500D03*
X93620000Y-70347500D03*
X92330000Y-68975000D03*
D34*
X99710000Y-131420000D03*
D35*
X92330000Y-71720000D03*
X80680000Y-70950000D03*
X92330000Y-67602500D03*
D34*
X98770000Y-138720000D03*
D35*
X93620000Y-66230000D03*
D34*
%TO.N,/3V3*%
X129830000Y-56090000D03*
D35*
X126000000Y-84500000D03*
D34*
X123394000Y-86260000D03*
X112160000Y-74520000D03*
X95550000Y-135970000D03*
D37*
X111440000Y-55180000D03*
D34*
X122930000Y-99700000D03*
X118711400Y-59800000D03*
X127250000Y-107630000D03*
D35*
X115370000Y-61560000D03*
D34*
X95560000Y-126330000D03*
D36*
%TO.N,/TX*%
X116380000Y-79250000D03*
%TO.N,/RX*%
X115580000Y-78420000D03*
%TO.N,/RST*%
X121476817Y-70170000D03*
%TO.N,/SCL*%
X94317599Y-134229617D03*
X88970000Y-81220000D03*
%TO.N,Net-(U2-BP1V5)*%
X91690000Y-82980000D03*
X83660000Y-76570000D03*
%TO.N,/ESP32/P_TX*%
X123105000Y-61285000D03*
%TO.N,/ESP32/P_RX*%
X123040000Y-59730000D03*
%TO.N,/ESP32/IO0*%
X121244400Y-66945600D03*
X124830000Y-55100000D03*
X126520000Y-102640000D03*
%TO.N,Net-(U2-VDD5)*%
X92570000Y-74110000D03*
X102820000Y-73740000D03*
%TO.N,/Power/PGOOD*%
X89020000Y-82280000D03*
X109410000Y-74490000D03*
%TO.N,/SDA*%
X94340000Y-133580000D03*
X88990000Y-80510000D03*
X82390000Y-75900000D03*
X84290000Y-73420000D03*
%TO.N,Net-(U8-ROSC_SEL)*%
X119430000Y-116250000D03*
%TO.N,Net-(U8-LITE_PAD)*%
X119420000Y-118020000D03*
%TO.N,Net-(U8-INV_CLKO)*%
X124540000Y-121820000D03*
%TO.N,/Fan/TEMP_N*%
X92180000Y-119960000D03*
%TO.N,/Fan/TEMP_P*%
X92940000Y-119930000D03*
%TO.N,/Power/AGND*%
X89970000Y-74100000D03*
X89170000Y-77830000D03*
X90680000Y-72940000D03*
X89340000Y-74960000D03*
%TO.N,/Power/PMB_ALRT*%
X93330000Y-81550000D03*
D34*
%TO.N,/BM1370/VDD3_0*%
X113470000Y-111290000D03*
%TO.N,/BM1370/1V2*%
X110950000Y-124990000D03*
X124600000Y-101830000D03*
X100770000Y-123700000D03*
X117120000Y-101750000D03*
%TO.N,/BM1370/0V8*%
X110970000Y-123700000D03*
X99180000Y-123710000D03*
%TO.N,/BM1370/VDD2_0*%
X112390000Y-109350000D03*
%TO.N,/BM1370/VDD1_0*%
X111030000Y-107870000D03*
%TO.N,/BM1370/VDD1_1*%
X100553800Y-107457400D03*
%TO.N,/BM1370/VDD2_1*%
X99360000Y-109210000D03*
%TO.N,/BM1370/VDD3_1*%
X98140000Y-111060000D03*
D36*
%TO.N,/BM1370/BI*%
X119420000Y-114790000D03*
%TO.N,/BM1370/RST_N*%
X113800000Y-98950000D03*
%TO.N,/BM1370/CI*%
X113770000Y-99770000D03*
%TO.N,/BM1370/RO*%
X113830000Y-100500000D03*
X118320000Y-108370000D03*
%TO.N,/BM1370/CLKI*%
X118740000Y-113660000D03*
%TO.N,/BM1370/NRSTO*%
X92480000Y-112210000D03*
%TO.N,/BM1370/CO*%
X92480000Y-113611428D03*
%TO.N,/BM1370/RI*%
X92480000Y-115012856D03*
%TO.N,/BM1370/CLKO*%
X92480000Y-116414284D03*
%TO.N,/BM1370/BO*%
X92480000Y-117815712D03*
%TO.N,/BM1370/PIN_MODE*%
X91400000Y-120430000D03*
%TD*%
D38*
%TO.N,GND*%
X112712000Y-114538000D02*
X109526562Y-114538000D01*
X132345000Y-104448000D02*
X132345000Y-108695000D01*
X100051000Y-114541000D02*
X100054000Y-114538000D01*
D39*
X125690000Y-82480000D02*
X125690000Y-81360000D01*
D38*
X132241000Y-108799000D02*
X132297000Y-108743000D01*
X125600000Y-65940000D02*
X125600000Y-63950000D01*
D40*
X80680000Y-61050000D02*
X80750000Y-61120000D01*
D38*
X112980000Y-114270000D02*
X112712000Y-114538000D01*
X117910000Y-70950000D02*
X117970000Y-71010000D01*
X132345000Y-108695000D02*
X132297000Y-108743000D01*
X99370000Y-119240000D02*
X99554000Y-119056000D01*
D39*
X128020000Y-84450000D02*
X127660000Y-84450000D01*
X128130000Y-56090000D02*
X128130000Y-57095000D01*
D38*
X100054000Y-114538000D02*
X101694562Y-114538000D01*
D39*
X127660000Y-84450000D02*
X125690000Y-82480000D01*
D38*
X112180000Y-119260000D02*
X111976000Y-119056000D01*
D40*
X80750000Y-61120000D02*
X82330000Y-61120000D01*
D39*
X84545000Y-79515000D02*
X83970000Y-78940000D01*
X84545000Y-80060000D02*
X84545000Y-79515000D01*
D38*
X98331000Y-114541000D02*
X100051000Y-114541000D01*
X125600000Y-63950000D02*
X125690000Y-63860000D01*
X132241000Y-113155000D02*
X132241000Y-108799000D01*
X111976000Y-119056000D02*
X108526562Y-119056000D01*
D39*
X84545000Y-86460000D02*
X84545000Y-87005000D01*
D38*
X98050000Y-114260000D02*
X98331000Y-114541000D01*
X119454234Y-70914234D02*
X119370000Y-70998468D01*
X99554000Y-119056000D02*
X102683562Y-119056000D01*
D39*
X84545000Y-87005000D02*
X83970000Y-87580000D01*
D41*
%TO.N,/VDD*%
X92270000Y-81770000D02*
X93040000Y-81000000D01*
D38*
X120870000Y-69510000D02*
X123150000Y-67230000D01*
X102690562Y-114040000D02*
X102694562Y-114036000D01*
D41*
X99760000Y-81000000D02*
X99780000Y-81020000D01*
X87900000Y-80960000D02*
X88710000Y-81770000D01*
D38*
X123150000Y-67230000D02*
X123150000Y-63860000D01*
D41*
X84750000Y-76160000D02*
X87900000Y-79310000D01*
D38*
X120850000Y-69510000D02*
X120870000Y-69510000D01*
D41*
X84500000Y-76160000D02*
X84750000Y-76160000D01*
X87900000Y-79310000D02*
X87900000Y-80960000D01*
X88710000Y-81770000D02*
X92270000Y-81770000D01*
X93040000Y-81000000D02*
X99760000Y-81000000D01*
D38*
%TO.N,/ESP32/EN*%
X127675000Y-61485000D02*
X129400000Y-59760000D01*
X122101300Y-70898700D02*
X126540000Y-66460000D01*
X123160000Y-71963700D02*
X122101300Y-70905000D01*
X127228000Y-104448000D02*
X128027000Y-104448000D01*
X126540000Y-66460000D02*
X126540000Y-62620000D01*
X129400000Y-59760000D02*
X129400000Y-58365000D01*
X126540000Y-62620000D02*
X127675000Y-61485000D01*
X122101300Y-70905000D02*
X122101300Y-70898700D01*
X123160000Y-81133600D02*
X123160000Y-71963700D01*
D39*
%TO.N,/5V*%
X92161000Y-142859000D02*
X92161000Y-143622000D01*
X95560000Y-139450000D02*
X95560000Y-139460000D01*
X96290000Y-138720000D02*
X95560000Y-139450000D01*
X98770000Y-138720000D02*
X96290000Y-138720000D01*
D40*
X81160000Y-70950000D02*
X82330000Y-72120000D01*
X80680000Y-70950000D02*
X81160000Y-70950000D01*
D39*
X95560000Y-139460000D02*
X92161000Y-142859000D01*
%TO.N,/3V3*%
X129830000Y-56090000D02*
X129400000Y-56520000D01*
X129400000Y-56520000D02*
X129400000Y-57095000D01*
X124420000Y-82860000D02*
X124420000Y-81360000D01*
D38*
X107930000Y-79595000D02*
X110115000Y-79595000D01*
X112160000Y-77550000D02*
X112160000Y-74520000D01*
D39*
X126000000Y-84500000D02*
X126000000Y-84440000D01*
X126000000Y-84440000D02*
X124420000Y-82860000D01*
D38*
X110115000Y-79595000D02*
X112160000Y-77550000D01*
%TO.N,/TX*%
X116380000Y-79250000D02*
X114840000Y-79250000D01*
X114260000Y-79830000D02*
X114260000Y-81360000D01*
X114840000Y-79250000D02*
X114260000Y-79830000D01*
%TO.N,/RX*%
X114280000Y-78420000D02*
X112990000Y-79710000D01*
X112990000Y-79710000D02*
X112990000Y-81360000D01*
X115580000Y-78420000D02*
X114280000Y-78420000D01*
%TO.N,/RST*%
X121476817Y-70170000D02*
X124420000Y-67226817D01*
X124420000Y-67226817D02*
X124420000Y-63860000D01*
D41*
%TO.N,/SCL*%
X81430000Y-74660000D02*
X79560000Y-72790000D01*
X79560000Y-72790000D02*
X79560000Y-58130000D01*
X79560000Y-58130000D02*
X82318000Y-55372000D01*
D38*
X106885000Y-66895000D02*
X106610000Y-66620000D01*
D41*
X88970000Y-81220000D02*
X88360000Y-80610000D01*
X88360000Y-80610000D02*
X88360000Y-78750000D01*
X88360000Y-78750000D02*
X84270000Y-74660000D01*
X94027216Y-134520000D02*
X90490000Y-134520000D01*
X82318000Y-55372000D02*
X87005000Y-55372000D01*
D38*
X107930000Y-66895000D02*
X106885000Y-66895000D01*
D41*
X94317599Y-134229617D02*
X94027216Y-134520000D01*
X81890000Y-125920000D02*
X81890000Y-74660000D01*
D38*
X106610000Y-66620000D02*
X106610000Y-59449183D01*
D41*
X81890000Y-74660000D02*
X81430000Y-74660000D01*
X84270000Y-74660000D02*
X81890000Y-74660000D01*
X90490000Y-134520000D02*
X81890000Y-125920000D01*
D38*
X106610000Y-59449183D02*
X102532817Y-55372000D01*
X102532817Y-55372000D02*
X87355000Y-55372000D01*
D41*
%TO.N,/ESP32/USB_D+*%
X85320000Y-82510000D02*
X85450000Y-82640000D01*
X103530000Y-83510000D02*
X104080000Y-82960000D01*
X84545000Y-82510000D02*
X85320000Y-82510000D01*
X104080000Y-82960000D02*
X109271632Y-82960000D01*
X84545000Y-83510000D02*
X85450000Y-83510000D01*
X109530000Y-82701632D02*
X109530000Y-81710000D01*
X109271632Y-82960000D02*
X109530000Y-82701632D01*
X109530000Y-81710000D02*
X109180000Y-81360000D01*
X85450000Y-83510000D02*
X103530000Y-83510000D01*
X85450000Y-82640000D02*
X85450000Y-83510000D01*
%TO.N,/ESP32/USB_D-*%
X110100000Y-82630000D02*
X110100000Y-81710000D01*
X84545000Y-84010000D02*
X85690000Y-84010000D01*
X110100000Y-81710000D02*
X110450000Y-81360000D01*
X83770000Y-83010000D02*
X83690000Y-83090000D01*
X104240000Y-83320000D02*
X109410000Y-83320000D01*
X83810000Y-84010000D02*
X84545000Y-84010000D01*
X83690000Y-83090000D02*
X83690000Y-83890000D01*
X83690000Y-83890000D02*
X83810000Y-84010000D01*
X84545000Y-83010000D02*
X83770000Y-83010000D01*
X85690000Y-84010000D02*
X85837600Y-83862400D01*
X103697600Y-83862400D02*
X104240000Y-83320000D01*
X85837600Y-83862400D02*
X103697600Y-83862400D01*
X109410000Y-83320000D02*
X110100000Y-82630000D01*
%TO.N,Net-(U2-BP1V5)*%
X83990000Y-76900000D02*
X83660000Y-76570000D01*
X88880000Y-82980000D02*
X87420000Y-81520000D01*
X91690000Y-82980000D02*
X88880000Y-82980000D01*
X87420000Y-79290000D02*
X85030000Y-76900000D01*
X87420000Y-81520000D02*
X87420000Y-79290000D01*
X85030000Y-76900000D02*
X83990000Y-76900000D01*
D38*
%TO.N,/ESP32/P_TX*%
X121880000Y-62510000D02*
X121880000Y-63860000D01*
X126005000Y-61285000D02*
X128230000Y-59060000D01*
X128230000Y-59060000D02*
X128230000Y-58355000D01*
X123105000Y-61285000D02*
X121880000Y-62510000D01*
X123105000Y-61285000D02*
X126005000Y-61285000D01*
%TO.N,/ESP32/P_RX*%
X123040000Y-59730000D02*
X120610000Y-62160000D01*
X123040000Y-59730000D02*
X125050000Y-57720000D01*
X126325000Y-57720000D02*
X126960000Y-58355000D01*
X125050000Y-57720000D02*
X126325000Y-57720000D01*
X120610000Y-62160000D02*
X120610000Y-63860000D01*
%TO.N,/ESP32/IO0*%
X126830000Y-56955000D02*
X126960000Y-57085000D01*
D41*
X109180000Y-63860000D02*
X109180000Y-65190000D01*
D38*
X125830000Y-111062000D02*
X127923000Y-113155000D01*
X126520000Y-102640000D02*
X125830000Y-103330000D01*
D41*
X109180000Y-65190000D02*
X110935600Y-66945600D01*
D38*
X126310000Y-55100000D02*
X126830000Y-55620000D01*
X124830000Y-55100000D02*
X126310000Y-55100000D01*
D41*
X110935600Y-66945600D02*
X121244400Y-66945600D01*
D38*
X126830000Y-55620000D02*
X126830000Y-56955000D01*
X125830000Y-103330000D02*
X125830000Y-111062000D01*
D41*
%TO.N,Net-(U2-VDD5)*%
X92630000Y-74170000D02*
X92570000Y-74110000D01*
X102390000Y-74170000D02*
X92630000Y-74170000D01*
X102820000Y-73740000D02*
X102390000Y-74170000D01*
%TO.N,/Power/PGOOD*%
X106610000Y-80190000D02*
X106610000Y-74840000D01*
X106610000Y-74840000D02*
X106935000Y-74515000D01*
X93720000Y-81950000D02*
X104850000Y-81950000D01*
X93390000Y-82280000D02*
X93720000Y-81950000D01*
X106935000Y-74515000D02*
X107930000Y-74515000D01*
X89020000Y-82280000D02*
X93390000Y-82280000D01*
X109385000Y-74515000D02*
X109410000Y-74490000D01*
X104850000Y-81950000D02*
X106610000Y-80190000D01*
X107930000Y-74515000D02*
X109385000Y-74515000D01*
%TO.N,/SDA*%
X83930000Y-73780000D02*
X84290000Y-73420000D01*
X90650000Y-134200000D02*
X82230000Y-125780000D01*
D38*
X107180000Y-68165000D02*
X107930000Y-68165000D01*
D41*
X93280000Y-134200000D02*
X90650000Y-134200000D01*
X88990000Y-80510000D02*
X88670000Y-80190000D01*
X84356526Y-74320000D02*
X83930000Y-74320000D01*
X82230000Y-125780000D02*
X82230000Y-76060000D01*
X83930000Y-74320000D02*
X83930000Y-73780000D01*
X93900000Y-133580000D02*
X93280000Y-134200000D01*
X88670000Y-80190000D02*
X88670000Y-78633474D01*
X82230000Y-76060000D02*
X82390000Y-75900000D01*
X81540000Y-74320000D02*
X79861600Y-72641600D01*
D38*
X106150000Y-67135000D02*
X107180000Y-68165000D01*
D41*
X83930000Y-74320000D02*
X82090000Y-74320000D01*
X81298000Y-57912000D02*
X87405000Y-57912000D01*
X94340000Y-133580000D02*
X93900000Y-133580000D01*
D38*
X87087000Y-57880000D02*
X104300000Y-57880000D01*
X87055000Y-57912000D02*
X87087000Y-57880000D01*
D41*
X82090000Y-74320000D02*
X81540000Y-74320000D01*
X88670000Y-78633474D02*
X84356526Y-74320000D01*
D38*
X104300000Y-57880000D02*
X106150000Y-59730000D01*
D41*
X79861600Y-72641600D02*
X79861600Y-59348400D01*
X82491600Y-75900000D02*
X82390000Y-75900000D01*
X79861600Y-59348400D02*
X81298000Y-57912000D01*
D38*
X106150000Y-59730000D02*
X106150000Y-67135000D01*
%TO.N,Net-(J4-Pin_3)*%
X115530000Y-63020000D02*
X116380000Y-62170000D01*
X112780000Y-54210000D02*
X107407505Y-54210000D01*
X115530000Y-63860000D02*
X115530000Y-63020000D01*
X107407505Y-54210000D02*
X104251505Y-51054000D01*
X116380000Y-62170000D02*
X116380000Y-57810000D01*
X116380000Y-57810000D02*
X112780000Y-54210000D01*
%TO.N,Net-(J4-Pin_6)*%
X119340000Y-63860000D02*
X119340000Y-55550000D01*
X119340000Y-55550000D02*
X114844000Y-51054000D01*
X114844000Y-51054000D02*
X111871505Y-51054000D01*
%TO.N,Net-(J4-Pin_5)*%
X110777505Y-52500000D02*
X109331505Y-51054000D01*
X118070000Y-63860000D02*
X118070000Y-56010000D01*
X114560000Y-52500000D02*
X110777505Y-52500000D01*
X118070000Y-56010000D02*
X114560000Y-52500000D01*
%TO.N,Net-(J4-Pin_4)*%
X113650000Y-53350000D02*
X109087505Y-53350000D01*
X116800000Y-63860000D02*
X116800000Y-62820000D01*
X117220000Y-56920000D02*
X113650000Y-53350000D01*
X116800000Y-62820000D02*
X117220000Y-62400000D01*
X109087505Y-53350000D02*
X106791505Y-51054000D01*
X117220000Y-62400000D02*
X117220000Y-56920000D01*
%TO.N,Net-(U8-ROSC_SEL)*%
X116820000Y-117550000D02*
X109526562Y-117550000D01*
X118120000Y-116250000D02*
X116820000Y-117550000D01*
X119430000Y-116250000D02*
X118120000Y-116250000D01*
%TO.N,Net-(U8-LITE_PAD)*%
X118772000Y-118052000D02*
X109526562Y-118052000D01*
X118804000Y-118020000D02*
X118772000Y-118052000D01*
X119420000Y-118020000D02*
X118804000Y-118020000D01*
%TO.N,Net-(U8-INV_CLKO)*%
X116834000Y-118554000D02*
X109526562Y-118554000D01*
X124540000Y-121820000D02*
X124250000Y-121530000D01*
X124250000Y-121530000D02*
X119810000Y-121530000D01*
X119810000Y-121530000D02*
X116834000Y-118554000D01*
%TO.N,/Fan/TEMP_N*%
X92180000Y-119960000D02*
X92180000Y-119640000D01*
X94280000Y-117550000D02*
X101694562Y-117550000D01*
X94275000Y-117545000D02*
X94280000Y-117550000D01*
X92180000Y-119640000D02*
X94275000Y-117545000D01*
%TO.N,/Fan/TEMP_P*%
X92940000Y-119930000D02*
X94825000Y-118045000D01*
X94825000Y-118045000D02*
X94832000Y-118052000D01*
X94832000Y-118052000D02*
X101694562Y-118052000D01*
D41*
%TO.N,/Power/AGND*%
X89340000Y-77660000D02*
X89170000Y-77830000D01*
X89340000Y-74960000D02*
X89340000Y-77660000D01*
X89340000Y-74960000D02*
X89340000Y-74730000D01*
X89970000Y-73650000D02*
X90680000Y-72940000D01*
X89970000Y-74100000D02*
X89970000Y-73650000D01*
X89340000Y-74730000D02*
X89970000Y-74100000D01*
%TO.N,/Power/PMB_ALRT*%
X106665000Y-71975000D02*
X107930000Y-71975000D01*
X106230000Y-80040000D02*
X106230000Y-72410000D01*
X104720000Y-81550000D02*
X106230000Y-80040000D01*
X93330000Y-81550000D02*
X104720000Y-81550000D01*
X106230000Y-72410000D02*
X106665000Y-71975000D01*
D38*
%TO.N,/BM1370/VDD3_0*%
X110571000Y-114039000D02*
X110568000Y-114036000D01*
X113470000Y-112590000D02*
X112021000Y-114039000D01*
X110568000Y-114036000D02*
X109526562Y-114036000D01*
X112021000Y-114039000D02*
X110571000Y-114039000D01*
X113470000Y-111290000D02*
X113470000Y-112590000D01*
%TO.N,/BM1370/1V2*%
X110200000Y-120330000D02*
X109930000Y-120060000D01*
X110200000Y-124240000D02*
X110200000Y-120330000D01*
X124520000Y-101750000D02*
X124600000Y-101830000D01*
X109660000Y-123700000D02*
X100770000Y-123700000D01*
X100760000Y-123690000D02*
X100760000Y-120410000D01*
X109930000Y-120060000D02*
X109526562Y-120060000D01*
X100760000Y-120410000D02*
X101110000Y-120060000D01*
X100770000Y-123700000D02*
X100760000Y-123690000D01*
X110950000Y-124990000D02*
X109660000Y-123700000D01*
X110950000Y-124990000D02*
X110200000Y-124240000D01*
X117120000Y-101750000D02*
X124520000Y-101750000D01*
X101110000Y-120060000D02*
X101694562Y-120060000D01*
%TO.N,/BM1370/0V8*%
X99180000Y-123710000D02*
X99180000Y-120670000D01*
X110970000Y-123700000D02*
X110970000Y-120070000D01*
X110970000Y-120070000D02*
X110458000Y-119558000D01*
X100292000Y-119558000D02*
X101697438Y-119558000D01*
X99180000Y-120670000D02*
X100292000Y-119558000D01*
X110458000Y-119558000D02*
X109526562Y-119558000D01*
%TO.N,/BM1370/VDD2_0*%
X112380000Y-109360000D02*
X112380000Y-112680000D01*
X111526000Y-113534000D02*
X109526562Y-113534000D01*
X112390000Y-109350000D02*
X112380000Y-109360000D01*
X112380000Y-112680000D02*
X111526000Y-113534000D01*
%TO.N,/BM1370/VDD1_0*%
X111030000Y-107870000D02*
X111000000Y-107900000D01*
X110528000Y-113032000D02*
X109526562Y-113032000D01*
X111000000Y-112560000D02*
X110528000Y-113032000D01*
X111000000Y-107900000D02*
X111000000Y-112560000D01*
%TO.N,/BM1370/VDD1_1*%
X100540000Y-112750000D02*
X100822000Y-113032000D01*
X100553800Y-107457400D02*
X100540000Y-107471200D01*
X100822000Y-113032000D02*
X101522000Y-113032000D01*
X100540000Y-107471200D02*
X100540000Y-112750000D01*
%TO.N,/BM1370/VDD2_1*%
X99360000Y-109210000D02*
X99360000Y-112970000D01*
X99927000Y-113537000D02*
X99930000Y-113534000D01*
X99360000Y-112970000D02*
X99927000Y-113537000D01*
X99930000Y-113534000D02*
X101694562Y-113534000D01*
%TO.N,/BM1370/VDD3_1*%
X100704000Y-114036000D02*
X101694562Y-114036000D01*
X100700000Y-114040000D02*
X100704000Y-114036000D01*
X99150000Y-114040000D02*
X100700000Y-114040000D01*
X98140000Y-111060000D02*
X98140000Y-113030000D01*
X98140000Y-113030000D02*
X99150000Y-114040000D01*
%TO.N,/BM1370/BI*%
X119420000Y-114790000D02*
X118310000Y-114790000D01*
X116052000Y-117048000D02*
X109526562Y-117048000D01*
X118310000Y-114790000D02*
X116052000Y-117048000D01*
%TO.N,/BM1370/RST_N*%
X113800000Y-98950000D02*
X113420000Y-98950000D01*
X113840000Y-115040000D02*
X109526562Y-115040000D01*
X117140000Y-108980000D02*
X117140000Y-111740000D01*
X117140000Y-111740000D02*
X113840000Y-115040000D01*
X112400000Y-99970000D02*
X112400000Y-104240000D01*
X113420000Y-98950000D02*
X112400000Y-99970000D01*
X112400000Y-104240000D02*
X117140000Y-108980000D01*
%TO.N,/BM1370/CI*%
X117710000Y-108640000D02*
X117710000Y-112030000D01*
X113520000Y-99770000D02*
X113110000Y-100180000D01*
X113770000Y-99770000D02*
X113520000Y-99770000D01*
X117710000Y-112030000D02*
X114198000Y-115542000D01*
X113110000Y-104040000D02*
X117710000Y-108640000D01*
X114198000Y-115542000D02*
X109526562Y-115542000D01*
X113110000Y-100180000D02*
X113110000Y-104040000D01*
%TO.N,/BM1370/RO*%
X113830000Y-103880000D02*
X113830000Y-100500000D01*
X114636000Y-116044000D02*
X109526562Y-116044000D01*
X118320000Y-108370000D02*
X113830000Y-103880000D01*
X114636000Y-116044000D02*
X118320000Y-112360000D01*
X118320000Y-112360000D02*
X118320000Y-108370000D01*
%TO.N,/BM1370/CLKI*%
X118740000Y-113660000D02*
X118220000Y-113660000D01*
X115334000Y-116546000D02*
X109526562Y-116546000D01*
X118220000Y-113660000D02*
X115334000Y-116546000D01*
%TO.N,/BM1370/NRSTO*%
X95310000Y-115040000D02*
X101694562Y-115040000D01*
X92480000Y-112210000D02*
X95310000Y-115040000D01*
%TO.N,/BM1370/CO*%
X92480000Y-113611428D02*
X92480000Y-113930000D01*
X92480000Y-113930000D02*
X94092000Y-115542000D01*
X94092000Y-115542000D02*
X101694562Y-115542000D01*
%TO.N,/BM1370/RI*%
X93511144Y-116044000D02*
X101694562Y-116044000D01*
X92480000Y-115012856D02*
X93511144Y-116044000D01*
%TO.N,/BM1370/CLKO*%
X92611716Y-116546000D02*
X101694562Y-116546000D01*
X92480000Y-116414284D02*
X92611716Y-116546000D01*
%TO.N,/BM1370/BO*%
X92480000Y-117815712D02*
X92974288Y-117815712D01*
X92974288Y-117815712D02*
X93742000Y-117048000D01*
X93742000Y-117048000D02*
X101694562Y-117048000D01*
%TO.N,/BM1370/PIN_MODE*%
X91650000Y-120680000D02*
X93610000Y-120680000D01*
X93610000Y-120680000D02*
X95736000Y-118554000D01*
X91400000Y-120430000D02*
X91650000Y-120680000D01*
X95736000Y-118554000D02*
X101694562Y-118554000D01*
%TD*%
%TA.AperFunction,Conductor*%
%TO.N,GND*%
G36*
X92497923Y-74505315D02*
G01*
X92517273Y-74510500D01*
X92622727Y-74510500D01*
X92641109Y-74505574D01*
X105904124Y-74529573D01*
X105971128Y-74549379D01*
X106016787Y-74602266D01*
X106027900Y-74653573D01*
X106027900Y-79904924D01*
X106008215Y-79971963D01*
X105991581Y-79992605D01*
X104903127Y-81081058D01*
X104841804Y-81114543D01*
X104815222Y-81117377D01*
X100304276Y-81109243D01*
X100237273Y-81089437D01*
X100191613Y-81036551D01*
X100180500Y-80985243D01*
X100180500Y-80967275D01*
X100180500Y-80967273D01*
X100153207Y-80865413D01*
X100100480Y-80774087D01*
X100025913Y-80699520D01*
X99934587Y-80646793D01*
X99832727Y-80619500D01*
X99727273Y-80619500D01*
X99625413Y-80646793D01*
X99625410Y-80646794D01*
X99534085Y-80699521D01*
X99472026Y-80761581D01*
X99410703Y-80795066D01*
X99384345Y-80797900D01*
X92999800Y-80797900D01*
X92987056Y-80803178D01*
X92956287Y-80815922D01*
X92956287Y-80815923D01*
X92936884Y-80823960D01*
X92925516Y-80828669D01*
X92695137Y-81059048D01*
X92633814Y-81092533D01*
X92607232Y-81095367D01*
X89752468Y-81090220D01*
X89685465Y-81070414D01*
X89639805Y-81017528D01*
X89628699Y-80967537D01*
X89627089Y-80815923D01*
X89569029Y-75350045D01*
X89587999Y-75282805D01*
X89605332Y-75261060D01*
X89660480Y-75205913D01*
X89713207Y-75114587D01*
X89740500Y-75012727D01*
X89740500Y-74907273D01*
X89713207Y-74805413D01*
X89701187Y-74784595D01*
X89684715Y-74716700D01*
X89707566Y-74650672D01*
X89720886Y-74634924D01*
X89818867Y-74536943D01*
X89880187Y-74503461D01*
X89906764Y-74500627D01*
X92497923Y-74505315D01*
G37*
%TD.AperFunction*%
%TD*%
%TA.AperFunction,Conductor*%
%TO.N,GND*%
G36*
X119916378Y-70319418D02*
G01*
X119983324Y-70339418D01*
X120028830Y-70392437D01*
X120039794Y-70443623D01*
X120037810Y-71640434D01*
X120018014Y-71707440D01*
X119965134Y-71753108D01*
X119900557Y-71763518D01*
X119867833Y-71760000D01*
X119620000Y-71760000D01*
X119620000Y-75386000D01*
X119600315Y-75453039D01*
X119547511Y-75498794D01*
X119496000Y-75510000D01*
X119370000Y-75510000D01*
X119370000Y-75636000D01*
X119350315Y-75703039D01*
X119297511Y-75748794D01*
X119246000Y-75760000D01*
X116694000Y-75760000D01*
X116626961Y-75740315D01*
X116581206Y-75687511D01*
X116570000Y-75636000D01*
X116570000Y-75510000D01*
X116444000Y-75510000D01*
X116376961Y-75490315D01*
X116331206Y-75437511D01*
X116320000Y-75386000D01*
X116320000Y-75260000D01*
X116820000Y-75260000D01*
X117720000Y-75260000D01*
X118220000Y-75260000D01*
X119120000Y-75260000D01*
X119120000Y-74360000D01*
X118220000Y-74360000D01*
X118220000Y-75260000D01*
X117720000Y-75260000D01*
X117720000Y-74360000D01*
X116820000Y-74360000D01*
X116820000Y-75260000D01*
X116320000Y-75260000D01*
X116320000Y-73860000D01*
X116820000Y-73860000D01*
X117720000Y-73860000D01*
X118220000Y-73860000D01*
X119120000Y-73860000D01*
X119120000Y-72960000D01*
X118220000Y-72960000D01*
X118220000Y-73860000D01*
X117720000Y-73860000D01*
X117720000Y-72960000D01*
X116820000Y-72960000D01*
X116820000Y-73860000D01*
X116320000Y-73860000D01*
X116320000Y-72460000D01*
X116820000Y-72460000D01*
X117720000Y-72460000D01*
X118220000Y-72460000D01*
X119120000Y-72460000D01*
X119120000Y-71760000D01*
X118872155Y-71760000D01*
X118812627Y-71766401D01*
X118812616Y-71766403D01*
X118713332Y-71803434D01*
X118643640Y-71808418D01*
X118626668Y-71803434D01*
X118527383Y-71766403D01*
X118527372Y-71766401D01*
X118467844Y-71760000D01*
X118220000Y-71760000D01*
X118220000Y-72460000D01*
X117720000Y-72460000D01*
X117720000Y-71760000D01*
X117472155Y-71760000D01*
X117412627Y-71766401D01*
X117412616Y-71766403D01*
X117313332Y-71803434D01*
X117243640Y-71808418D01*
X117226668Y-71803434D01*
X117127383Y-71766403D01*
X117127372Y-71766401D01*
X117067844Y-71760000D01*
X116820000Y-71760000D01*
X116820000Y-72460000D01*
X116320000Y-72460000D01*
X116320000Y-71760000D01*
X116072155Y-71760000D01*
X116012627Y-71766401D01*
X116012621Y-71766402D01*
X115955052Y-71787874D01*
X115885361Y-71792857D01*
X115824038Y-71759371D01*
X115790554Y-71698047D01*
X115787721Y-71671492D01*
X115789793Y-70424376D01*
X115809589Y-70357371D01*
X115862469Y-70311704D01*
X115914375Y-70300585D01*
X119916378Y-70319418D01*
G37*
%TD.AperFunction*%
%TD*%
%TA.AperFunction,Conductor*%
%TO.N,/5V*%
G36*
X94532607Y-65409727D02*
G01*
X94578402Y-65462497D01*
X94589645Y-65514446D01*
X94580000Y-68899757D01*
X94580000Y-68900000D01*
X94560596Y-72935944D01*
X94540589Y-73002888D01*
X94487566Y-73048389D01*
X94435943Y-73059346D01*
X91203846Y-73042309D01*
X91136912Y-73022272D01*
X91091436Y-72969227D01*
X91080500Y-72918311D01*
X91080500Y-72887275D01*
X91080500Y-72887273D01*
X91053207Y-72785413D01*
X91000480Y-72694087D01*
X90925913Y-72619520D01*
X90834587Y-72566793D01*
X90732727Y-72539500D01*
X90627273Y-72539500D01*
X90525413Y-72566793D01*
X90525410Y-72566794D01*
X90434085Y-72619521D01*
X90359521Y-72694085D01*
X90306794Y-72785410D01*
X90306793Y-72785413D01*
X90279500Y-72887273D01*
X90279500Y-72912781D01*
X90259815Y-72979820D01*
X90207011Y-73025575D01*
X90154846Y-73036779D01*
X81403671Y-72990651D01*
X81336737Y-72970614D01*
X81291261Y-72917569D01*
X81280325Y-72866330D01*
X81292868Y-68106400D01*
X81312729Y-68039419D01*
X81365653Y-67993803D01*
X81434837Y-67984042D01*
X81498316Y-68013234D01*
X81512720Y-68028068D01*
X81514024Y-68029657D01*
X81660342Y-68175975D01*
X81660345Y-68175977D01*
X81832402Y-68290941D01*
X82023580Y-68370130D01*
X82226530Y-68410499D01*
X82226534Y-68410500D01*
X82226535Y-68410500D01*
X82433466Y-68410500D01*
X82433467Y-68410499D01*
X82636420Y-68370130D01*
X82827598Y-68290941D01*
X82999655Y-68175977D01*
X83145977Y-68029655D01*
X83260941Y-67857598D01*
X83340130Y-67666420D01*
X83380500Y-67463465D01*
X83380500Y-67269448D01*
X85679500Y-67269448D01*
X85679500Y-67450551D01*
X85707829Y-67629410D01*
X85763787Y-67801636D01*
X85763788Y-67801639D01*
X85846006Y-67962997D01*
X85952441Y-68109494D01*
X85952445Y-68109499D01*
X86080500Y-68237554D01*
X86080505Y-68237558D01*
X86208287Y-68330396D01*
X86227006Y-68343996D01*
X86278299Y-68370131D01*
X86388360Y-68426211D01*
X86388363Y-68426212D01*
X86474476Y-68454191D01*
X86560591Y-68482171D01*
X86643429Y-68495291D01*
X86739449Y-68510500D01*
X86739454Y-68510500D01*
X86920551Y-68510500D01*
X87007259Y-68496765D01*
X87099409Y-68482171D01*
X87271639Y-68426211D01*
X87432994Y-68343996D01*
X87579501Y-68237553D01*
X87707553Y-68109501D01*
X87813996Y-67962994D01*
X87896211Y-67801639D01*
X87952171Y-67629409D01*
X87966765Y-67537259D01*
X87980500Y-67450551D01*
X87980500Y-67269448D01*
X87964019Y-67165397D01*
X87952171Y-67090591D01*
X87896211Y-66918361D01*
X87896211Y-66918360D01*
X87867698Y-66862402D01*
X87813996Y-66757006D01*
X87791809Y-66726468D01*
X87707558Y-66610505D01*
X87707554Y-66610500D01*
X87579499Y-66482445D01*
X87579494Y-66482441D01*
X87432997Y-66376006D01*
X87432996Y-66376005D01*
X87432994Y-66376004D01*
X87381300Y-66349664D01*
X87271639Y-66293788D01*
X87271636Y-66293787D01*
X87099410Y-66237829D01*
X86920551Y-66209500D01*
X86920546Y-66209500D01*
X86739454Y-66209500D01*
X86739449Y-66209500D01*
X86560589Y-66237829D01*
X86388363Y-66293787D01*
X86388360Y-66293788D01*
X86227002Y-66376006D01*
X86080505Y-66482441D01*
X86080500Y-66482445D01*
X85952445Y-66610500D01*
X85952441Y-66610505D01*
X85846006Y-66757002D01*
X85763788Y-66918360D01*
X85763787Y-66918363D01*
X85707829Y-67090589D01*
X85679500Y-67269448D01*
X83380500Y-67269448D01*
X83380500Y-67256535D01*
X83340130Y-67053580D01*
X83260941Y-66862402D01*
X83145977Y-66690345D01*
X83145975Y-66690342D01*
X82999657Y-66544024D01*
X82907490Y-66482441D01*
X82827598Y-66429059D01*
X82636420Y-66349870D01*
X82636412Y-66349868D01*
X82433469Y-66309500D01*
X82433465Y-66309500D01*
X82226535Y-66309500D01*
X82226530Y-66309500D01*
X82023587Y-66349868D01*
X82023579Y-66349870D01*
X81832403Y-66429058D01*
X81660342Y-66544024D01*
X81660341Y-66544025D01*
X81509715Y-66694652D01*
X81508058Y-66692995D01*
X81458879Y-66726468D01*
X81389034Y-66728312D01*
X81329279Y-66692102D01*
X81298587Y-66629335D01*
X81296816Y-66608133D01*
X81299674Y-65523578D01*
X81319536Y-65456593D01*
X81372460Y-65410977D01*
X81423580Y-65399907D01*
X94465555Y-65390093D01*
X94532607Y-65409727D01*
G37*
%TD.AperFunction*%
%TD*%
%TA.AperFunction,Conductor*%
%TO.N,/VDD*%
G36*
X109395630Y-96993391D02*
G01*
X109463486Y-97014272D01*
X109509281Y-97068525D01*
X109520000Y-97119380D01*
X109520000Y-112281949D01*
X109510909Y-112312907D01*
X109503492Y-112344299D01*
X109500981Y-112346721D01*
X109499998Y-112350070D01*
X109475618Y-112371195D01*
X109452402Y-112393597D01*
X109447954Y-112395166D01*
X109446342Y-112396563D01*
X109418581Y-112405528D01*
X109393188Y-112410579D01*
X109368608Y-112413000D01*
X109148860Y-112413000D01*
X109148851Y-112413001D01*
X109049665Y-112426059D01*
X109038644Y-112427510D01*
X109038642Y-112427510D01*
X109038641Y-112427511D01*
X108901507Y-112484312D01*
X108783740Y-112574678D01*
X108693374Y-112692445D01*
X108636572Y-112829581D01*
X108622062Y-112939795D01*
X108622062Y-113124201D01*
X108622063Y-113124210D01*
X108634959Y-113222171D01*
X108636382Y-113232978D01*
X108636572Y-113234417D01*
X108636724Y-113234784D01*
X108636760Y-113235119D01*
X108638709Y-113242393D01*
X108637574Y-113242697D01*
X108644311Y-113305374D01*
X108636726Y-113331209D01*
X108636572Y-113331580D01*
X108622062Y-113441795D01*
X108622062Y-113626201D01*
X108622063Y-113626210D01*
X108636572Y-113736417D01*
X108636724Y-113736784D01*
X108636760Y-113737119D01*
X108638709Y-113744393D01*
X108637574Y-113744697D01*
X108644311Y-113807374D01*
X108636726Y-113833209D01*
X108636572Y-113833580D01*
X108622062Y-113943795D01*
X108622062Y-114128201D01*
X108622063Y-114128210D01*
X108634959Y-114226171D01*
X108636382Y-114236978D01*
X108636572Y-114238417D01*
X108636724Y-114238784D01*
X108636783Y-114239208D01*
X108638709Y-114246393D01*
X108637829Y-114246628D01*
X108645516Y-114301155D01*
X108643520Y-114318807D01*
X108636572Y-114335582D01*
X108622062Y-114445797D01*
X108622062Y-114508594D01*
X108621264Y-114515656D01*
X108610141Y-114542096D01*
X108602060Y-114569621D01*
X108596558Y-114574388D01*
X108593736Y-114581098D01*
X108570083Y-114597328D01*
X108548404Y-114616114D01*
X108540064Y-114617928D01*
X108535196Y-114621269D01*
X108523014Y-114621637D01*
X108496062Y-114627500D01*
X102725061Y-114627500D01*
X102656940Y-114607498D01*
X102610447Y-114553842D01*
X102599061Y-114501500D01*
X102599061Y-114445798D01*
X102599060Y-114445789D01*
X102586796Y-114352631D01*
X102584552Y-114335582D01*
X102584401Y-114335219D01*
X102584366Y-114334887D01*
X102582414Y-114327601D01*
X102583550Y-114327296D01*
X102576812Y-114264631D01*
X102584402Y-114238780D01*
X102584552Y-114238418D01*
X102599062Y-114128203D01*
X102599061Y-113943798D01*
X102584552Y-113833582D01*
X102584401Y-113833219D01*
X102584366Y-113832887D01*
X102582414Y-113825601D01*
X102583550Y-113825296D01*
X102576812Y-113762631D01*
X102584402Y-113736780D01*
X102584552Y-113736418D01*
X102599062Y-113626203D01*
X102599061Y-113441798D01*
X102584552Y-113331582D01*
X102584401Y-113331219D01*
X102584366Y-113330887D01*
X102582414Y-113323601D01*
X102583550Y-113323296D01*
X102576812Y-113260631D01*
X102584402Y-113234780D01*
X102584552Y-113234418D01*
X102599062Y-113124203D01*
X102599061Y-112939798D01*
X102584552Y-112829582D01*
X102543709Y-112730978D01*
X102527749Y-112692445D01*
X102527747Y-112692442D01*
X102437384Y-112574678D01*
X102319620Y-112484315D01*
X102319619Y-112484314D01*
X102319616Y-112484312D01*
X102182480Y-112427510D01*
X102072267Y-112413000D01*
X102072265Y-112413000D01*
X101916000Y-112413000D01*
X101847879Y-112392998D01*
X101801386Y-112339342D01*
X101790000Y-112287000D01*
X101790000Y-97022640D01*
X101810002Y-96954519D01*
X101863658Y-96908026D01*
X101917629Y-96896651D01*
X109395630Y-96993391D01*
G37*
%TD.AperFunction*%
%TD*%
%TA.AperFunction,Conductor*%
%TO.N,GND*%
G36*
X101967354Y-59889595D02*
G01*
X102034329Y-59909500D01*
X102079909Y-59962455D01*
X102090941Y-60012642D01*
X102139041Y-66275139D01*
X102119872Y-66342327D01*
X102067421Y-66388486D01*
X102015136Y-66400091D01*
X95334091Y-66404970D01*
X95267037Y-66385334D01*
X95221243Y-66332564D01*
X95210000Y-66280970D01*
X95210000Y-64784721D01*
X81091796Y-64760211D01*
X81024791Y-64740410D01*
X80979127Y-64687527D01*
X80968027Y-64638223D01*
X80892047Y-59946422D01*
X80910644Y-59879074D01*
X80962700Y-59832470D01*
X81016437Y-59820417D01*
X101967354Y-59889595D01*
G37*
%TD.AperFunction*%
%TD*%
M02*
